<svg xmlns="http://www.w3.org/2000/svg" xmlns:xlink="http://www.w3.org/1999/xlink" fill="none" version="1.1" width="20" height="20" viewBox="0 0 20 20"><defs><clipPath id="master_svg0_1224_000849"><rect x="0" y="0" width="20" height="20" rx="0"/></clipPath></defs><g clip-path="url(#master_svg0_1224_000849)"><g><path d="M1.041748046875,4.999921953125C1.041748046875,3.734271953125,2.067768046875,2.708251953125,3.333418046875,2.708251953125L16.666748046875,2.708251953125C17.932448046875,2.708251953125,18.958448046875,3.734271953125,18.958448046875,4.999921953125L18.958448046875,13.333251953125C18.958448046875,14.598951953125,17.932448046875,15.624951953125,16.666748046875,15.624951953125L11.844648046875,15.624951953125L12.469648046875,16.874951953125L14.166748046875,16.874951953125C14.511948046875,16.874951953125,14.791748046875,17.154751953125,14.791748046875,17.499951953125C14.791748046875,17.845051953125,14.511948046875,18.124951953125,14.166748046875,18.124951953125L5.833418046875,18.124951953125C5.488238046875,18.124951953125,5.208418046875,17.845051953125,5.208418046875,17.499951953125C5.208418046875,17.154751953125,5.488238046875,16.874951953125,5.833418046875,16.874951953125L7.530478046875,16.874951953125L8.155478046875,15.624951953125L3.333418046875,15.624951953125C2.067768046875,15.624951953125,1.041748717427,14.598951953125,1.041748717427,13.333251953125L1.041748046875,4.999921953125ZM16.666748046875,14.374951953125L3.333418046875,14.374951953125C2.758118046875,14.374951953125,2.291748046875,13.908551953125,2.291748046875,13.333251953125L2.291748046875,4.999921953125C2.291748046875,4.4246219531249995,2.758118046875,3.958251953125,3.333418046875,3.958251953125L16.666748046875,3.958251953125C17.242048046875,3.958251953125,17.708448046875,4.4246219531249995,17.708448046875,4.999921953125L17.708448046875,13.333251953125C17.708448046875,13.908551953125,17.242048046875,14.374951953125,16.666748046875,14.374951953125Z" fill-rule="evenodd" fill="currentColor" fill-opacity="1"/></g></g></svg>