<svg xmlns="http://www.w3.org/2000/svg" xmlns:xlink="http://www.w3.org/1999/xlink" fill="none" version="1.1" width="20" height="20" viewBox="0 0 20 20"><defs><clipPath id="master_svg0_1224_000851"><rect x="0" y="0" width="20" height="20" rx="0"/></clipPath></defs><g clip-path="url(#master_svg0_1224_000851)"><g><g><g><path d="M11.833160400390625,1.6666946411132812L9.833160400390625,1.6666946411132812C9.556832400390626,1.6666946411132812,9.333160400390625,1.8903666411132813,9.333160400390625,2.1666946411132812C9.333160400390625,2.443022641113281,9.556832400390626,2.6666946411132812,9.833160400390625,2.6666946411132812L11.833160400390625,2.6666946411132812C12.109490400390625,2.6666946411132812,12.333160400390625,2.443022641113281,12.333160400390625,2.1666946411132812C12.333160400390625,1.8903666411132813,12.109490400390625,1.6666946411132812,11.833160400390625,1.6666946411132812Z" fill="currentColor" fill-opacity="1"/></g></g></g><g><g><g><path d="M13.999984741210938,0L5.9999847412109375,0C4.897328741210938,0,3.9999847412109375,0.897344,3.9999847412109375,2L3.9999847412109375,18C3.9999847412109375,19.1027,4.897328741210938,20,5.9999847412109375,20L13.999984741210938,20C15.102684741210938,20,15.999984741210938,19.1027,15.999984741210938,18L15.999984741210938,2C15.999984741210938,0.897344,15.102684741210938,0,13.999984741210938,0ZM14.999984741210938,18C14.999984741210938,18.5523,14.552284741210938,19,13.999984741210938,19L5.9999847412109375,19C5.4476447412109374,19,4.9999847412109375,18.5523,4.9999847412109375,18L4.9999847412109375,2C4.9999847412109375,1.44766,5.4476447412109374,1,5.9999847412109375,1L13.999984741210938,1C14.552284741210938,1,14.999984741210938,1.44766,14.999984741210938,2L14.999984741210938,18Z" fill="currentColor" fill-opacity="1"/></g></g></g><g><g><g><ellipse cx="9.999969482421875" cy="17.333251953125" rx="1" ry="1" fill="currentColor" fill-opacity="1"/></g></g></g><g><g><g><ellipse cx="8.166656494140625" cy="2.1666946411132812" rx="0.5" ry="0.5" fill="currentColor" fill-opacity="1"/></g></g></g></g></svg>