<svg xmlns="http://www.w3.org/2000/svg" xmlns:xlink="http://www.w3.org/1999/xlink" fill="none" version="1.1" width="116" height="116" viewBox="0 0 116 116"><defs><clipPath id="master_svg0_1220_001406"><rect x="0" y="0" width="116" height="116" rx="0"/></clipPath></defs><g clip-path="url(#master_svg0_1220_001406)"><g><g><path d="M82.5589125,0L10.1953125,0L10.1953125,116L105.8047125,116L105.8047125,23.2458L82.5589125,0ZM82.2839125,9.33709L96.4676125,23.5208L82.2839125,23.5208L82.2839125,9.33709ZM99.0078125,109.203L16.9921925,109.203L16.9921925,6.79688L75.4870125,6.79688L75.4870125,30.3177L99.0078125,30.3177L99.0078125,109.203Z" fill="#FFFFFF" fill-opacity="1"/></g><g><path d="M48.05218015625,81.99608828125L51.33711015625,72.52688828125L64.69091015625,72.52688828125L67.94591015625,81.99608828125L75.13321015625,81.99608828125L61.17041015625,41.37548828125L54.94741015625,41.38206017125L40.85791015625,81.99608828125L48.05218015625,81.99608828125ZM58.044710156250005,53.19158828125L62.354610156250004,65.72978828125L53.69521015625,65.72978828125L58.044710156250005,53.19158828125Z" fill="#FFFFFF" fill-opacity="1"/></g><g><path d="M26.734130859375,41.378173828125L42.820330859375005,41.378173828125L42.820330859375005,48.175053828125L26.734130859375,48.175053828125L26.734130859375,41.378173828125Z" fill="#FFFFFF" fill-opacity="1"/></g><g><path d="M26.734132587905,58.26953125L38.893330859375,58.26953125L38.893330859375,65.06641125L26.734130859375,65.06641125L26.734132587905,58.26953125Z" fill="#FFFFFF" fill-opacity="1"/></g><g><path d="M26.734132587905,92.05322265625L89.265830859375,92.05322265625L89.265830859375,98.85010265625L26.734130859375,98.85010265625L26.734132587905,92.05322265625Z" fill="#FFFFFF" fill-opacity="1"/></g><g><path d="M26.734132587905,75.161376953125L33.531010859375,75.161376953125L33.531010859375,81.958256953125L26.734130859375,81.958256953125L26.734132587905,75.161376953125Z" fill="#FFFFFF" fill-opacity="1"/></g><g><path d="M73.1796875,41.378173828125L89.2658875,41.378173828125L89.2658875,48.175053828125L73.1796875,48.175053828125L73.1796875,41.378173828125Z" fill="#FFFFFF" fill-opacity="1"/></g><g><path d="M77.106689453125,58.26953125L89.265889453125,58.26953125L89.265889453125,65.06641125L77.106689453125,65.06641125L77.106689453125,58.26953125Z" fill="#FFFFFF" fill-opacity="1"/></g><g><path d="M82.468994140625,75.161376953125L89.265874140625,75.161376953125L89.265874140625,81.958256953125L82.468994140625,81.958256953125L82.468994140625,75.161376953125Z" fill="#FFFFFF" fill-opacity="1"/></g></g></g></svg>