<svg xmlns="http://www.w3.org/2000/svg" xmlns:xlink="http://www.w3.org/1999/xlink" fill="none" version="1.1" width="116" height="116" viewBox="0 0 116 116"><defs><clipPath id="master_svg0_1220_001211"><rect x="0" y="0" width="116" height="116" rx="0"/></clipPath></defs><g clip-path="url(#master_svg0_1220_001211)"><g><g><g><path d="M105.805,17.21875L10.1953,17.21875C4.56229,17.21875,0,21.809359999999998,0,27.41405L0,88.58595C0,94.22395,4.59582,98.78125,10.1953,98.78125L105.805,98.78125C111.391,98.78125,116,94.24325,116,88.58595L116,27.41405C116,21.81933,111.456,17.21875,105.805,17.21875ZM104.377,24.01563C102.294,26.08754,66.4469,61.74575,65.2092,62.97685C63.2834,64.90265,60.7233,65.96295,58,65.96295C55.2767,65.96295,52.7166,64.90245,50.7844,62.97055C49.952,62.14245,14.5007,26.87802,11.6231,24.01563L104.377,24.01563ZM6.79688,87.20255L6.79688,28.80175L36.168,58.01815L6.79688,87.20255ZM11.6274,91.98435L40.987,62.81155L45.9847,67.78295C49.1942,70.99244999999999,53.4613,72.75985,58,72.75985C62.5387,72.75985,66.8058,70.99244999999999,70.0089,67.78935L75.013,62.81155L104.373,91.98435L11.6274,91.98435ZM109.203,87.20255L79.832,58.01815L109.203,28.80175L109.203,87.20255Z" fill="#FFFFFF" fill-opacity="1"/></g></g></g></g></svg>