<svg width="26" height="26" viewBox="0 0 1024 1024" xmlns="http://www.w3.org/2000/svg" p-id="2801" version="1.1" class="icon" t="1671009710474">
  <circle cx="512" cy="512" r="512" fill="#6d767a"/>
  <path stroke="null" id="svg_1" p-id="6671" fill="#aeb6ba" d="m772.75002,749.66665l-521.50002,0c-21.10834,0 -37.25,-15.44834 -37.25,-35.65l0,-404.03332c0,-20.20166 16.14167,-35.65 37.25,-35.65l183.76667,0c9.93334,0 19.86667,3.565 26.075,10.695l39.73334,38.02667c7.45,7.13 16.14167,10.695 26.075,10.695l245.85001,0c21.10834,0 37.25,15.44833 37.25,35.65l0,344.61665c0,20.20166 -16.14167,35.65 -37.25,35.65zm-244.60834,-325.60332c-4.96666,-4.75333 -11.175,-7.13 -18.625,-7.13c-6.20833,0 -13.65833,2.37667 -18.625,7.13l-104.3,106.94999c-14.9,15.44834 -3.725,39.215 18.625,39.215l57.11667,0l0,71.3c0,13.07167 11.175,23.76667 24.83333,23.76667l49.66667,0c13.65833,0 24.83333,-10.695 24.83333,-23.76667l0,-71.3l52.15,0c21.10834,0 32.28334,-24.955 18.625,-39.215l-104.3,-106.94999z"/>
</svg>