<svg xmlns="http://www.w3.org/2000/svg" xmlns:xlink="http://www.w3.org/1999/xlink" fill="none" version="1.1" width="16" height="16" viewBox="0 0 16 16"><defs><clipPath id="master_svg0_0_17094"><rect x="0" y="0" width="16" height="16" rx="0"/></clipPath></defs><g style="mix-blend-mode:passthrough" clip-path="url(#master_svg0_0_17094)"><g style="mix-blend-mode:passthrough" transform="matrix(0.7071067690849304,0.7071067690849304,-0.7071067690849304,0.7071067690849304,1.0000001553060969,-6.213203347063299)"><path d="M21,3.6005051136016846C21,3.6005051136016846,16.5,3.6005051136016846,16.5,3.6005051136016846C16.5,3.6005051136016846,16.5,-0.8994948863983154,16.5,-0.8994948863983154C16.5,-1.4516828863983156,16.05219,-1.8994948863983154,15.5,-1.8994948863983154C15.5,-1.8994948863983154,14.5,-1.8994948863983154,14.5,-1.8994948863983154C13.94781,-1.8994948863983154,13.5,-1.4516828863983156,13.5,-0.8994948863983154C13.5,-0.8994948863983154,13.5,3.6005051136016846,13.5,3.6005051136016846C13.5,3.6005051136016846,9,3.6005051136016846,9,3.6005051136016846C8.447812,3.6005051136016846,8,4.048315113601684,8,4.600505113601685C8,4.600505113601685,8,5.600505113601685,8,5.600505113601685C8,6.152695113601684,8.447812,6.600505113601685,9,6.600505113601685C9,6.600505113601685,13.5,6.600505113601685,13.5,6.600505113601685C13.5,6.600505113601685,13.5,11.100505113601685,13.5,11.100505113601685C13.5,11.652705113601684,13.94781,12.100505113601685,14.5,12.100505113601685C14.5,12.100505113601685,15.5,12.100505113601685,15.5,12.100505113601685C16.05219,12.100505113601685,16.5,11.652705113601684,16.5,11.100505113601685C16.5,11.100505113601685,16.5,6.600505113601685,16.5,6.600505113601685C16.5,6.600505113601685,21,6.600505113601685,21,6.600505113601685C21.5522,6.600505113601685,22,6.152695113601684,22,5.600505113601685C22,5.600505113601685,22,4.600505113601685,22,4.600505113601685C22,4.048315113601684,21.5522,3.6005051136016846,21,3.6005051136016846Z" fill="#8796A4" fill-opacity="1"/></g></g></svg>