<?xml version="1.0" encoding="utf-8"?>
<!-- Generator: Adobe Illustrator 27.7.0, SVG Export Plug-In . SVG Version: 6.00 Build 0)  -->
<svg version="1.1" id="svg5" xmlns:svg="http://www.w3.org/2000/svg"
	 xmlns="http://www.w3.org/2000/svg" xmlns:xlink="http://www.w3.org/1999/xlink" x="0px" y="0px" viewBox="0 0 13.2 13.2"
	 style="enable-background:new 0 0 13.2 13.2;" xml:space="preserve">
<style type="text/css">
	.st0{fill:#ECF5FF;}
	.st1{fill:#BDDDFF;}
	.st2{fill:#3D9CE2;}
</style>
<g id="layer1_00000046334551266092390680000004061005129063646100_">
	<g id="g1745_00000069391204847803438520000006987531365197949847_" transform="matrix(.265 0 0 .265 -23.812 -1.852)">
		<path id="path66778_00000039113942838635637380000018177853076430527133_" class="st0" d="M131,49c0,1.1-0.9,2-2,2h-28
			c-1.1,0-2-0.9-2-2V15c0-1.1,0.9-2,2-2h20l10,10V49z"/>
		<path id="path66800_00000011013967805486362620000001825414732691129258_" class="st1" d="M130.5,23H123c-1.1,0-2-0.9-2-2v-7.5"/>
		<path id="path10836_00000127755171482407577760000000121825982617429897_" class="st2" d="M101,12c-1.6,0-3,1.4-3,3v34
			c0,1.6,1.4,3,3,3h28c1.6,0,3-1.4,3-3V23c0-0.3-0.1-0.5-0.3-0.7l-10-10c-0.2-0.2-0.4-0.3-0.7-0.3C121,12,101,12,101,12z M101,14h19
			v7c0,1.6,1.4,3,3,3h7v25c0,0.6-0.4,1-1,1h-28c-0.6,0-1-0.4-1-1V15C100,14.4,100.4,14,101,14z M122,15.4l6.6,6.6H123
			c-0.6,0-1-0.4-1-1V15.4z"/>
	</g>
</g>
</svg>
