<svg width="26" height="26" viewBox="0 0 26 26" fill="none" xmlns="http://www.w3.org/2000/svg">
<circle cx="13" cy="13" r="13" fill="#D9E0E7"/>
<g clip-path="url(#clip0_498_16903)">
<path d="M6.5 6.5C6.20333 6.5 5.91332 6.58797 5.66665 6.7528C5.41997 6.91762 5.22771 7.15189 5.11418 7.42597C5.00065 7.70006 4.97094 8.00166 5.02882 8.29264C5.0867 8.58361 5.22956 8.85088 5.43934 9.06066C5.64912 9.27044 5.91639 9.4133 6.20737 9.47118C6.49834 9.52906 6.79994 9.49935 7.07403 9.38582C7.34811 9.27229 7.58238 9.08003 7.74721 8.83336C7.91203 8.58668 8 8.29667 8 8C8 7.60218 7.84197 7.22064 7.56066 6.93934C7.27936 6.65804 6.89783 6.5 6.5 6.5ZM6.5 11.5C6.20333 11.5 5.91332 11.588 5.66665 11.7528C5.41997 11.9176 5.22771 12.1519 5.11418 12.426C5.00065 12.7001 4.97094 13.0017 5.02882 13.2926C5.0867 13.5836 5.22956 13.8509 5.43934 14.0607C5.64912 14.2704 5.91639 14.4133 6.20737 14.4712C6.49834 14.5291 6.79994 14.4994 7.07403 14.3858C7.34811 14.2723 7.58238 14.08 7.74721 13.8334C7.91203 13.5867 8 13.2967 8 13C8 12.6022 7.84197 12.2206 7.56066 11.9393C7.27936 11.658 6.89783 11.5 6.5 11.5ZM6.5 16.5C6.20333 16.5 5.91332 16.588 5.66665 16.7528C5.41997 16.9176 5.22771 17.1519 5.11418 17.426C5.00065 17.7001 4.97094 18.0017 5.02882 18.2926C5.0867 18.5836 5.22956 18.8509 5.43934 19.0607C5.64912 19.2704 5.91639 19.4133 6.20737 19.4712C6.49834 19.5291 6.79994 19.4994 7.07403 19.3858C7.34811 19.2723 7.58238 19.08 7.74721 18.8334C7.91203 18.5867 8 18.2967 8 18C8 17.6022 7.84197 17.2206 7.56066 16.9393C7.27936 16.658 6.89783 16.5 6.5 16.5ZM20.5 17H10.5C10.3674 17 10.2402 17.0527 10.1464 17.1464C10.0527 17.2402 10 17.3674 10 17.5V18.5C10 18.6326 10.0527 18.7598 10.1464 18.8536C10.2402 18.9473 10.3674 19 10.5 19H20.5C20.6326 19 20.7598 18.9473 20.8536 18.8536C20.9473 18.7598 21 18.6326 21 18.5V17.5C21 17.3674 20.9473 17.2402 20.8536 17.1464C20.7598 17.0527 20.6326 17 20.5 17ZM20.5 7H10.5C10.3674 7 10.2402 7.05268 10.1464 7.14645C10.0527 7.24021 10 7.36739 10 7.5V8.5C10 8.63261 10.0527 8.75979 10.1464 8.85355C10.2402 8.94732 10.3674 9 10.5 9H20.5C20.6326 9 20.7598 8.94732 20.8536 8.85355C20.9473 8.75979 21 8.63261 21 8.5V7.5C21 7.36739 20.9473 7.24021 20.8536 7.14645C20.7598 7.05268 20.6326 7 20.5 7ZM20.5 12H10.5C10.3674 12 10.2402 12.0527 10.1464 12.1464C10.0527 12.2402 10 12.3674 10 12.5V13.5C10 13.6326 10.0527 13.7598 10.1464 13.8536C10.2402 13.9473 10.3674 14 10.5 14H20.5C20.6326 14 20.7598 13.9473 20.8536 13.8536C20.9473 13.7598 21 13.6326 21 13.5V12.5C21 12.3674 20.9473 12.2402 20.8536 12.1464C20.7598 12.0527 20.6326 12 20.5 12Z" fill="#6D767A"/>
</g>
<defs>
<clipPath id="clip0_498_16903">
<rect width="16" height="16" fill="white" transform="translate(5 5)"/>
</clipPath>
</defs>
</svg>
