<svg xmlns="http://www.w3.org/2000/svg" xmlns:xlink="http://www.w3.org/1999/xlink" fill="none" version="1.1" width="20" height="20" viewBox="0 0 20 20"><defs><clipPath id="master_svg0_416_86795"><rect x="0" y="0" width="20" height="20" rx="0"/></clipPath></defs><g clip-path="url(#master_svg0_416_86795)"><g><path d="M17.8182,0C16.6149,0,15.6364,0.978545,15.6364,2.18182C15.6364,2.55818,15.732,2.91236,15.9004,3.22182L12.3262,6.796C11.8335,6.41236,11.2167,6.18182,10.5455,6.18182C9.87418,6.18182,9.25745,6.41236,8.76436,6.79564L5.97564,4.00691C6.10364,3.79055,6.18182,3.54182,6.18182,3.27273C6.18182,2.47055,5.52945,1.81818,4.72727,1.81818C3.92509,1.81818,3.27273,2.47055,3.27273,3.27273C3.27273,4.07491,3.92509,4.72727,4.72727,4.72727C4.99636,4.72727,5.24509,4.64909,5.46145,4.52109L8.25018,7.30982C7.86691,7.80291,7.63636,8.41964,7.63636,9.09091C7.63636,9.76218,7.86691,10.3789,8.25018,10.8716L3.64509,15.4771C3.25745,15.1255,2.74509,14.9091,2.18182,14.9091C0.978545,14.9091,0,15.8876,0,17.0909C0,18.2942,0.978545,19.2727,2.18182,19.2727C3.38509,19.2727,4.36364,18.2942,4.36364,17.0909C4.36364,16.7145,4.268,16.3604,4.09964,16.0509L8.76473,11.3858C9.16691,11.6985,9.652,11.908,10.1822,11.9745L10.1822,15.6691C9.152,15.8429,8.364,16.7389,8.364,17.8182C8.364,19.0215,9.34255,20,10.5458,20C11.7491,20,12.7276,19.0215,12.7276,17.8182C12.7276,16.7393,11.9396,15.8433,10.9095,15.6691L10.9095,11.9745C11.4396,11.908,11.9247,11.6985,12.3269,11.3858L15.1156,14.1745C14.9873,14.3913,14.9091,14.64,14.9091,14.9091C14.9091,15.7113,15.5615,16.3636,16.3636,16.3636C17.1658,16.3636,17.8182,15.7113,17.8182,14.9091C17.8182,14.1069,17.1658,13.4545,16.3636,13.4545C16.0945,13.4545,15.8458,13.5327,15.6295,13.6607L12.8407,10.872C13.224,10.3789,13.4545,9.76218,13.4545,9.09091C13.4545,8.41964,13.224,7.80291,12.8407,7.31018L16.3553,3.79564C16.7425,4.14727,17.2549,4.36364,17.8182,4.36364C19.0215,4.36364,20,3.38509,20,2.18182C20,0.978545,19.0215,0,17.8182,0ZM4,3.27273C4,2.87164,4.32618,2.54545,4.72727,2.54545C5.12836,2.54545,5.45455,2.87164,5.45455,3.27273C5.45455,3.67382,5.12836,4,4.72727,4C4.32618,4,4,3.67382,4,3.27273ZM2.18182,18.5455C1.37964,18.5455,0.727273,17.8931,0.727273,17.0909C0.727273,16.2887,1.37964,15.6364,2.18182,15.6364C2.984,15.6364,3.63636,16.2887,3.63636,17.0909C3.63636,17.8931,2.984,18.5455,2.18182,18.5455ZM12,17.8182C12,18.6204,11.3476,19.2727,10.5455,19.2727C9.74327,19.2727,9.09091,18.6204,9.09091,17.8182C9.09091,17.016,9.74327,16.3636,10.5455,16.3636C11.3476,16.3636,12,17.016,12,17.8182ZM10.5455,11.2727C9.34218,11.2727,8.36364,10.2942,8.36364,9.09091C8.36364,7.88764,9.34218,6.90909,10.5455,6.90909C11.7487,6.90909,12.7273,7.88764,12.7273,9.09091C12.7273,10.2942,11.7487,11.2727,10.5455,11.2727ZM17.0909,14.9091C17.0909,15.3102,16.7647,15.6364,16.3636,15.6364C15.9625,15.6364,15.6364,15.3102,15.6364,14.9091C15.6364,14.508,15.9625,14.1818,16.3636,14.1818C16.7647,14.1818,17.0909,14.508,17.0909,14.9091ZM17.8182,3.63636C17.016,3.63636,16.3636,2.984,16.3636,2.18182C16.3636,1.37964,17.016,0.727273,17.8182,0.727273C18.6204,0.727273,19.2727,1.37964,19.2727,2.18182C19.2727,2.984,18.6204,3.63636,17.8182,3.63636Z" fill="#000000" fill-opacity="1"/></g></g></svg>