<svg width="28" height="28" viewBox="0 0 28 28" fill="none" xmlns="http://www.w3.org/2000/svg">
<path d="M0 14C0 6.26801 6.26801 0 14 0C21.732 0 28 6.26801 28 14C28 21.732 21.732 28 14 28C6.26801 28 0 21.732 0 14Z" fill="#5F676F"/>
<path d="M9.5686 14.7857L9.04829 14.2654C8.82798 14.0451 8.82798 13.6889 9.04829 13.4709L13.6022 8.91465C13.8225 8.69434 14.1788 8.69434 14.3967 8.91465L18.953 13.4709C19.1733 13.6912 19.1733 14.0475 18.953 14.2654L18.4327 14.7857C18.21 15.0084 17.8467 15.0037 17.6288 14.7764L14.9381 11.9521L14.9381 18.6881C14.9381 18.9998 14.6874 19.2506 14.3756 19.2506L13.6256 19.2506C13.3139 19.2506 13.0631 18.9998 13.0631 18.6881L13.0631 11.9521L10.3725 14.7764C10.1545 15.0061 9.79126 15.0107 9.5686 14.7857Z" fill="white" fill-opacity="0.7"/>
</svg>
