<svg width="26" height="26" viewBox="0 0 26 26" fill="none" xmlns="http://www.w3.org/2000/svg">
<circle cx="13" cy="13" r="13" fill="#D9E0E7"/>
<path d="M8.2 14.4001H5.8C5.35825 14.4001 5 14.7583 5 15.2001V17.6001C5 18.0418 5.35825 18.4001 5.8 18.4001H8.2C8.64175 18.4001 9 18.0418 9 17.6001V15.2001C9 14.7583 8.64175 14.4001 8.2 14.4001ZM7.6 12.4001H12.4V13.6001H13.6V12.4001H18.4V13.6001H19.6V12.1603C19.6 11.6311 19.1693 11.2001 18.6398 11.2001H13.6V9.6001H14.6C15.0417 9.6001 15.4 9.24185 15.4 8.8001V6.4001C15.4 5.95835 15.0417 5.6001 14.6 5.6001H11.4C10.9583 5.6001 10.6 5.95835 10.6 6.4001V8.8001C10.6 9.24185 10.9583 9.6001 11.4 9.6001H12.4V11.2001H7.36025C6.83075 11.2001 6.4 11.6308 6.4 12.1603V13.6001H7.6V12.4001ZM14.2 14.4001H11.8C11.3583 14.4001 11 14.7583 11 15.2001V17.6001C11 18.0418 11.3583 18.4001 11.8 18.4001H14.2C14.6418 18.4001 15 18.0418 15 17.6001V15.2001C15 14.7583 14.6418 14.4001 14.2 14.4001ZM20.2 14.4001H17.8C17.3583 14.4001 17 14.7583 17 15.2001V17.6001C17 18.0418 17.3583 18.4001 17.8 18.4001H20.2C20.6418 18.4001 21 18.0418 21 17.6001V15.2001C21 14.7583 20.6418 14.4001 20.2 14.4001Z" fill="#6D767A"/>
</svg>
