<svg width="16" height="16" viewBox="0 0 16 16" fill="none" xmlns="http://www.w3.org/2000/svg">
<path d="M2.94737 0.000244141C1.32211 0.000244141 0 1.25624 0 2.80024C0 4.06424 0.892632 5.12264 2.10526 5.46984V11.1978C2.10442 11.341 2.128 12.6226 3.09389 13.5426C3.69011 14.1122 4.48842 14.4002 5.46526 14.4002V16.0002L8.83368 13.6002L5.46526 11.2002V12.8002C3.93011 12.8002 3.79453 11.573 3.78947 11.2002V5.46984C5.00211 5.12264 5.89474 4.06424 5.89474 2.80024C5.89474 1.25624 4.57179 0.000244141 2.94737 0.000244141ZM2.94737 4.00024C2.25095 4.00024 1.68421 3.46184 1.68421 2.80024C1.68421 2.13864 2.25095 1.60024 2.94737 1.60024C3.64379 1.60024 4.21053 2.13864 4.21053 2.80024C4.21053 3.46184 3.64379 4.00024 2.94737 4.00024ZM13.8947 10.5306V4.79784C13.8905 3.51304 12.9878 1.60024 10.5179 1.60024V0.000244141L7.14947 2.40024L10.5179 4.80024V3.20024C12.0581 3.20024 12.2029 4.43144 12.2105 4.80024V10.5306C10.9979 10.8778 10.1053 11.9362 10.1053 13.2002C10.1053 14.7442 11.4274 16.0002 13.0526 16.0002C14.6779 16.0002 16 14.7442 16 13.2002C16 11.9362 15.1074 10.8778 13.8947 10.5306ZM13.0526 14.4002C12.3562 14.4002 11.7895 13.8618 11.7895 13.2002C11.7895 12.5386 12.3562 12.0002 13.0526 12.0002C13.7491 12.0002 14.3158 12.5386 14.3158 13.2002C14.3158 13.8618 13.7491 14.4002 13.0526 14.4002Z" fill="#8796A4"/>
</svg>
