<svg t="1683767784067" class="icon" viewBox="0 0 1024 1024" version="1.1" xmlns="http://www.w3.org/2000/svg" p-id="2398" width="200" height="200"><path d="M846.72 629.12h-133.76a145.92 145.92 0 0 1-21.12-18.56 81.92 81.92 0 0 1-28.8-60.8v-6.4A112.64 112.64 0 0 1 678.4 512l13.44-20.48c9.6-14.72 20.48-29.44 31.36-43.52a259.84 259.84 0 0 0 60.8-166.4A269.44 269.44 0 0 0 522.88 12.16h-19.84a270.72 270.72 0 0 0-263.04 266.24A264.96 264.96 0 0 0 300.8 448c10.24 13.44 20.48 27.52 30.08 42.24a182.4 182.4 0 0 1 27.52 52.48v6.4a83.2 83.2 0 0 1-26.88 60.16 147.84 147.84 0 0 1-21.12 17.92H177.92c-88.96 0-128 34.56-128 112.64v174.08a91.52 91.52 0 0 0 92.16 92.16h741.76a92.16 92.16 0 0 0 91.52-92.16v-172.8c0-78.08-39.04-112.64-128-112.64z m-729.6 286.72V742.4c0-21.12 0-31.36 10.24-37.12a89.6 89.6 0 0 1 50.56-8.32h153.6l8.32-5.12a296.32 296.32 0 0 0 44.16-33.28 150.4 150.4 0 0 0 44.8-113.28 167.04 167.04 0 0 0-38.4-93.44c-11.52-17.28-24.32-34.56-37.12-51.2a192 192 0 0 1-44.8-122.88 201.6 201.6 0 0 1 195.84-197.76h16.64a200.32 200.32 0 0 1 192 197.76 192 192 0 0 1-44.8 122.88 546.56 546.56 0 0 0-33.28 47.36l-15.36 24.32a134.4 134.4 0 0 0-24.32 70.4 148.48 148.48 0 0 0 44.8 115.2 239.36 239.36 0 0 0 42.24 33.92l8.32 5.12h154.24c54.4 0 59.52 8.32 59.52 44.8v172.8a24.32 24.32 0 0 1-23.68 23.68H138.24a23.04 23.04 0 0 1-16.64-7.04 24.96 24.96 0 0 1-7.04-17.28z m0 0" p-id="2399"></path><path d="M337.28 789.12h350.72v66.56H337.28z" p-id="2400"></path></svg>