<svg t="1683796411444" class="icon" viewBox="0 0 1024 1024" version="1.1" xmlns="http://www.w3.org/2000/svg" p-id="5170" width="200" height="200"><path d="M460.8 1024H128c-70.656 0-128-57.344-128-128V128C0 57.344 57.344 0 128 0h614.4c70.656 0 128 57.344 128 128v230.4c0 14.336-11.264 25.6-25.6 25.6s-25.6-11.264-25.6-25.6V128c0-42.496-34.304-76.8-76.8-76.8H128c-42.496 0-76.8 34.304-76.8 76.8v768c0 42.496 34.304 76.8 76.8 76.8h332.8c14.336 0 25.6 11.264 25.6 25.6s-11.264 25.6-25.6 25.6z" p-id="5171"></path><path d="M691.2 256H179.2c-14.336 0-25.6-11.264-25.6-25.6s11.264-25.6 25.6-25.6h512c14.336 0 25.6 11.264 25.6 25.6s-11.264 25.6-25.6 25.6zM537.6 443.904H179.2c-14.336 0-25.6-11.264-25.6-25.6s11.264-25.6 25.6-25.6h358.4c14.336 0 25.6 11.264 25.6 25.6s-11.264 25.6-25.6 25.6zM435.2 631.296H179.2c-14.336 0-25.6-11.264-25.6-25.6s11.264-25.6 25.6-25.6h256c14.336 0 25.6 11.264 25.6 25.6s-11.264 25.6-25.6 25.6zM486.4 819.2H179.2c-14.336 0-25.6-11.264-25.6-25.6s11.264-25.6 25.6-25.6h307.2c14.336 0 25.6 11.264 25.6 25.6s-11.264 25.6-25.6 25.6zM793.6 742.4c-70.656 0-128-57.344-128-128s57.344-128 128-128 128 57.344 128 128-57.344 128-128 128z m0-204.8c-42.496 0-76.8 34.304-76.8 76.8s34.304 76.8 76.8 76.8 76.8-34.304 76.8-76.8-34.304-76.8-76.8-76.8zM947.2 1024h-307.2c-42.496 0-76.8-34.304-76.8-76.8s34.304-76.8 76.8-76.8h307.2c42.496 0 76.8 34.304 76.8 76.8s-34.304 76.8-76.8 76.8z m-307.2-102.4c-14.336 0-25.6 11.264-25.6 25.6s11.264 25.6 25.6 25.6h307.2c14.336 0 25.6-11.264 25.6-25.6s-11.264-25.6-25.6-25.6h-307.2z" p-id="5172"></path><path d="M640 921.6c-4.096 0-8.704-1.024-12.8-3.584-12.288-7.168-16.384-22.528-9.728-34.816l102.4-179.2c7.168-12.288 22.528-16.384 34.816-9.728 12.288 7.168 16.384 22.528 9.728 34.816l-102.4 179.2c-4.608 8.704-13.312 13.312-22.016 13.312zM947.2 921.6c-8.704 0-17.408-4.608-22.016-12.8l-102.4-179.2c-7.168-12.288-2.56-28.16 9.728-34.816 12.288-7.168 28.16-2.56 34.816 9.728l102.4 179.2c7.168 12.288 2.56 28.16-9.728 34.816-4.096 2.048-8.704 3.072-12.8 3.072z"  p-id="5173"></path></svg>