<svg t="1682585186957" class="icon" viewBox="0 0 1024 1024" version="1.1" xmlns="http://www.w3.org/2000/svg" p-id="3825" width="200" height="200"><path d="M458.121 145.959l-398.697 0c-29.056 0-52.741 23.625-52.741 52.741 0 29.309 23.625 52.741 52.741 52.741l398.697 0c29.12 0 52.741-23.625 52.741-52.741s-23.561-52.741-52.741-52.741zM458.121 462.478l-398.697 0c-29.056 0-52.741 23.561-52.741 52.741 0 29.309 23.625 52.741 52.741 52.741l398.697 0c29.12 0 52.741-23.625 52.741-52.741s-23.561-52.741-52.741-52.741zM458.121 778.999l-398.697 0c-29.056 0-52.741 23.625-52.741 52.741 0 29.372 23.625 52.741 52.741 52.741l398.697 0c29.12 0 52.741-23.625 52.741-52.741 0.064-29.182-23.561-52.741-52.741-52.741zM528.085 399.187l189.937 0 0 537.849c0 29.245 23.434 52.932 52.741 52.932 29.12 0 52.741-23.562 52.741-52.932l0-537.849 189.937 0c10.547 0 11.559-13.958 6.695-20.908-72.577-105.549-217.729-316.709-217.729-316.709s-17.939-29.562-31.645-27.477c-15.855 0-31.645 27.477-31.645 27.477s-145.153 211.098-217.667 316.581c-4.801 7.011-3.917 21.034 6.633 21.034z" p-id="3826"></path></svg>