<svg t="1683620880091" class="icon" viewBox="0 0 1024 1024" version="1.1" xmlns="http://www.w3.org/2000/svg" p-id="8299" width="200" height="200"><path d="M928.6 98.2H94.9c-17 0-30.7 13.8-30.7 30.9 0 17.1 13.8 30.9 30.7 30.9h31.5v494.6c0 71 51.4 116.2 109.1 116.2H409.2L312.1 881c-10.4 11.7-9.3 29.7 2.4 40.1 11.7 10.4 29.5 9.3 39.9-2.4l130.4-147.9h51.4l130.4 147.9c10.4 11.7 28.2 12.8 39.9 2.4s12.8-28.4 2.4-40.1l-97.2-110.2h175.9c70.6 0 109.1-51.6 109.1-116.2V160h31.9c17 0 30.7-13.8 30.7-30.9 0-17-13.7-30.9-30.7-30.9M229.1 499.7c0-19.4 12.8-32.3 32.1-32.3h353c19.3 0 32.1 12.9 32.1 32.3S633.5 532 614.2 532h-353c-19.2 0-32.1-12.9-32.1-32.3m520 148.4h-475c-25.7 0-38.5-12.9-38.5-32.3s19.3-32.3 38.5-32.3h468.6c25.7 0 38.5 12.9 38.5 32.3s-12.9 32.3-32.1 32.3"  p-id="8300"></path></svg>