<svg t="1683253171923" class="icon" viewBox="0 0 1024 1024" version="1.1" xmlns="http://www.w3.org/2000/svg" p-id="3712" width="200" height="200"><path d="M329.4 576.6h365.1c18.9 0 34.2-15.4 34.2-34.2 0-18.9-15.3-34.2-34.2-34.2H329.4c-18.9 0-34.2 15.3-34.2 34.2 0 18.8 15.3 34.2 34.2 34.2z m0-137h365.1c18.9 0 34.2-15.3 34.2-34.2 0-18.9-15.3-34.2-34.2-34.2H329.4c-18.9 0-34.2 15.3-34.2 34.2 0 18.9 15.3 34.2 34.2 34.2z m0-136.8h365.1c18.9 0 34.2-15.3 34.2-34.3 0-18.9-15.3-34.2-34.2-34.2H329.4c-18.9 0-34.2 15.4-34.2 34.2 0 18.9 15.3 34.3 34.2 34.3z m137 342.3h-137c-18.9 0-34.2 15.3-34.2 34.2s15.3 34.2 34.2 34.2h136.9c18.9 0 34.2-15.3 34.2-34.2 0.1-18.9-15.2-34.2-34.1-34.2z m270.9 242l-69.1-102.3c-3.5-5.1-10.4-6.5-15.5-3s-6.5 10.4-3 15.6l69.1 102.3c3.5 5.1 10.4 6.5 15.5 3s6.4-10.4 3-15.6z m-47.6-130.4c-5.1 3.4-6.5 10.4-3 15.5l69.1 102.3c3.5 5.1 10.4 6.5 15.5 3s6.5-10.4 3-15.5l-69.1-102.4c-3.4-5-10.4-6.3-15.5-2.9z m34.1-9.5l69.1 102.3c3.5 5.1 10.4 6.5 15.5 3s6.5-10.4 3-15.5l-69.1-102.3c-3.5-5.1-10.4-6.5-15.5-3-5.2 3.4-6.5 10.4-3 15.5zM825.5 865c-3 2-79.7 53.9-84.1 56.8-4.3 2.9-4 7.8-0.3 9.2 5 1.9 76.2 27.2 80.6 28.7 3.9 1.4 8.9-1.9 9.1-6.2 0.3-6.4 3.3-81.6 3.4-85.3 0.3-4.6-4.7-5.9-8.7-3.2zM718.1 695.9l-13.6-20.1c-3.8-5.5-13.8-5.3-22.4 0.5l-62.5 42.3c-8.6 5.8-12.6 15.1-8.8 20.6l13.6 20.1c3.8 5.6 13.8 5.3 22.4-0.5l62.5-42.2c8.6-5.8 12.6-15.1 8.8-20.7z" p-id="3713"></path><path d="M575 874.7H267.1c-23.5 0-42.6-19.1-42.6-42.6V191.7c0-23.5 19.1-42.6 42.6-42.6h489.8c23.5 0 42.6 19.1 42.6 42.6v453.8c4.9-0.3 9.9-0.5 14.9-0.5 24.5 0 48.1 3.7 70.3 10.5V149.1c0-47-38.1-85.1-85.2-85.1h-575c-47 0-85.2 38.1-85.2 85.1v725.6c0 47 38.1 85.2 85.2 85.2h362.3c-7.8-23.7-12.1-48.9-12.1-75.2 0.1-3.4 0.1-6.7 0.3-10z" p-id="3714"></path></svg>