<svg t="1683767894848" class="icon" viewBox="0 0 1024 1024" version="1.1" xmlns="http://www.w3.org/2000/svg" p-id="5687" width="200" height="200"><path d="M0 307.2V76.8a76.8 76.8 0 0 1 76.8-76.8h307.2a76.8 76.8 0 0 1 76.8 76.8v230.4a76.8 76.8 0 0 1-76.8 76.8H76.8a76.8 76.8 0 0 1-76.8-76.8z m588.8 166.4a12.8 12.8 0 0 1-25.6 0V76.8a76.8 76.8 0 0 1 76.8-76.8h307.2a76.8 76.8 0 0 1 76.8 76.8v473.6a12.8 12.8 0 0 1-25.6 0V76.8q0-21.1968-15.0016-36.1984T947.2 25.6H640q-21.1968 0-36.1984 15.0016T588.8 76.8v396.8zM25.6 307.2q0 21.1968 15.0016 36.1984T76.8 358.4h307.2q21.1968 0 36.1984-15.0016T435.2 307.2V76.8q0-21.1968-15.0016-36.1984T384 25.6H76.8q-21.1968 0-36.1984 15.0016T25.6 76.8v230.4zM0 947.2V537.6a76.8 76.8 0 0 1 76.8-76.8h307.2a76.8 76.8 0 0 1 76.8 76.8v409.6a76.8 76.8 0 0 1-76.8 76.8H76.8a76.8 76.8 0 0 1-76.8-76.8z m25.6 0q0 21.1968 15.0016 36.1984T76.8 998.4h307.2q21.1968 0 36.1984-15.0016T435.2 947.2V537.6q0-21.1968-15.0016-36.1984T384 486.4H76.8q-21.1968 0-36.1984 15.0016T25.6 537.6v409.6z m742.4 76.8c141.3888 0 256-114.6112 256-256s-114.6112-256-256-256-256 114.6112-256 256 114.6112 256 256 256z m214.2208-340.8128Q998.4 724.0448 998.4 768t-16.1792 84.8128q-17.5616 44.3648-51.3024 78.1056t-78.1056 51.3024Q811.9552 998.4 768 998.4t-84.8128-16.1792q-44.3648-17.5616-78.1056-51.3024t-51.3024-78.1056Q537.6 811.9552 537.6 768t16.1792-84.8128q17.5616-44.3648 51.3024-78.1056t78.1056-51.3024Q724.0448 537.6 768 537.6t84.8128 16.1792q44.3648 17.5616 78.1056 51.3024t51.3024 78.1056zM691.2 627.2a12.8 12.8 0 0 1 12.8 12.8v129.6384a51.2 51.2 0 0 1 0 99.1488V896a12.8 12.8 0 0 1-25.6 0v-27.2128a51.2 51.2 0 0 1 0-99.1488V640a12.8 12.8 0 0 1 12.8-12.8z m166.4 12.8a12.8 12.8 0 0 0-25.6 0v27.2384a51.2 51.2 0 0 0 0 99.1232V896a12.8 12.8 0 0 0 25.6 0v-129.6384a51.2 51.2 0 0 0 0-99.1232V640z" p-id="5688"></path></svg>