<svg t="1686906295433" class="icon" viewBox="0 0 1024 1024" version="1.1" xmlns="http://www.w3.org/2000/svg" p-id="19460" width="200" height="200"><path d="M785.92 955.733333H187.733333c-64.034133 0-100.386133-34.048-102.4-95.880533V346.453333c0-60.1088 30.122667-95.6416 85.333334-101.5296V85.333333a17.066667 17.066667 0 0 1 17.066666-17.066666h598.186667a17.066667 17.066667 0 0 1 17.066667 17.066666v238.933334h68.266666a17.066667 17.066667 0 0 1 17.066667 17.134933l-0.853333 170.666667A17.066667 17.066667 0 0 1 870.4 529.066667h-0.085333A17.066667 17.066667 0 0 1 853.333333 511.914667L854.101333 358.4H529.066667a17.066667 17.066667 0 0 1-17.066667-17.066667v-63.146666H187.733333c-47.223467 0-68.266667 21.060267-68.266666 68.266666v512.853334C120.866133 902.212267 141.909333 921.6 187.733333 921.6h598.186667c47.223467 0 68.266667-21.0432 68.266667-68.266667a17.066667 17.066667 0 1 1 34.133333 0c0 66.030933-36.369067 102.4-102.4 102.4zM546.133333 324.266667h222.72V102.4H204.8v141.653333h324.266667a17.066667 17.066667 0 0 1 17.066666 17.066667V324.266667z" p-id="19461"></path><path d="M785.066667 802.133333c-32.597333 0-61.098667-11.9808-84.718934-35.601066a134.178133 134.178133 0 0 1-18.295466-22.852267C670.9248 724.957867 665.6 704.733867 665.6 682.666667a114.688 114.688 0 0 1 15.2576-58.146134 105.898667 105.898667 0 0 1 19.541333-26.606933C724.292267 574.7712 752.674133 563.2 785.066667 563.2c32.6144 0 60.8256 11.707733 83.882666 34.7648 7.389867 7.3728 13.824 15.342933 19.131734 23.688533 11.127467 18.722133 16.452267 38.946133 16.452266 61.013334a115.9168 115.9168 0 0 1-16.9472 61.303466c-0.3584 0.597333-0.750933 1.1776-1.143466 1.774934a157.610667 157.610667 0 0 1-17.493334 20.804266A114.517333 114.517333 0 0 1 785.066667 802.133333z m0-170.666666c-14.472533 0-26.1632 4.8128-36.846934 15.1552a36.4544 36.4544 0 0 0-6.826666 9.472 32.085333 32.085333 0 0 1-1.160534 2.133333A46.592 46.592 0 0 0 733.866667 682.666667c0 9.796267 2.065067 18.0736 6.331733 25.275733 2.065067 3.208533 5.102933 6.997333 8.413867 10.308267 10.6496 10.666667 22.237867 15.616 36.4544 15.616 13.9776 0 25.173333-4.829867 35.191466-15.2064 3.7888-3.805867 6.894933-7.441067 9.5744-11.127467 4.334933-7.441067 6.434133-15.581867 6.434134-24.866133 0-9.796267-2.065067-18.0736-6.331734-25.275734a71.253333 71.253333 0 0 0-9.2672-11.1616C810.5984 636.142933 799.300267 631.466667 785.066667 631.466667z" p-id="19462"></path><path d="M785.066667 870.4a17.066667 17.066667 0 0 1-17.066667-17.066667v-85.333333a17.066667 17.066667 0 1 1 34.133333 0v85.333333a17.066667 17.066667 0 0 1-17.066666 17.066667z m147.6096-84.48a17.015467 17.015467 0 0 1-8.482134-2.269867l-74.257066-42.666666a17.0496 17.0496 0 1 1 16.9984-29.5936l74.257066 42.666666a17.0496 17.0496 0 0 1-8.516266 31.863467zM636.603733 785.066667a17.0496 17.0496 0 0 1-8.516266-31.863467l74.257066-42.666667a17.066667 17.066667 0 0 1 16.9984 29.5936l-74.257066 42.666667a17.015467 17.015467 0 0 1-8.482134 2.269867z m74.205867-127.146667a17.015467 17.015467 0 0 1-8.482133-2.269867l-74.274134-42.666666a17.0496 17.0496 0 1 1 16.9984-29.5936l74.274134 42.666666a17.0496 17.0496 0 0 1-8.516267 31.863467z m148.514133-0.853333a17.066667 17.066667 0 0 1-8.6016-31.812267l73.403734-42.666667a17.066667 17.066667 0 1 1 17.169066 29.4912l-73.403733 42.666667a17.066667 17.066667 0 0 1-8.567467 2.321067zM785.066667 614.4a17.066667 17.066667 0 0 1-17.066667-17.066667v-85.333333a17.066667 17.066667 0 1 1 34.133333 0v85.333333a17.066667 17.066667 0 0 1-17.066666 17.066667z" p-id="19463"></path></svg>