<svg t="1685067152385" class="icon" viewBox="0 0 1024 1024" version="1.1" xmlns="http://www.w3.org/2000/svg" p-id="3292" width="200" height="200"><path d="M741.193143 559.396571V517.485714a26.148571 26.148571 0 1 0-52.297143 0v41.874286a143.469714 143.469714 0 0 0-79.469714 43.995429l-34.377143-19.858286a26.148571 26.148571 0 0 0-26.148572 45.312l32.585143 18.797714a144.896 144.896 0 0 0-3.84 96.621714l-28.745143 16.603429a26.148571 26.148571 0 0 0 26.148572 45.312l26.88-15.542857a143.725714 143.725714 0 0 0 86.966857 52.809143v28.745143a26.148571 26.148571 0 1 0 52.297143 0v-28.745143a143.725714 143.725714 0 0 0 86.966857-52.809143l26.88 15.542857a26.148571 26.148571 0 1 0 26.148571-45.312l-28.745142-16.603429c4.205714-13.531429 6.436571-27.904 6.436571-42.861714 0-19.017143-3.657143-37.12-10.276571-53.76l32.585142-18.797714a26.148571 26.148571 0 1 0-26.148571-45.312l-34.377143 19.858286a143.469714 143.469714 0 0 0-79.469714-43.995429zM603.428571 539.428571c10.386286-7.204571 21.504-13.458286 33.243429-18.614857a79.872 79.872 0 0 1-0.073143-2.925714v-0.585143a78.482286 78.482286 0 1 1 156.928 0v0.585143l-0.036571 2.925714c11.702857 5.12 22.857143 11.410286 33.243428 18.651429 0.585143-0.365714 1.133714-0.731429 1.755429-1.060572l0.512-0.292571a78.482286 78.482286 0 0 1 80.201143 134.838857 199.314286 199.314286 0 0 1 1.389714 44.617143 78.482286 78.482286 0 0 1-73.508571 138.020571 195.949714 195.949714 0 0 1-44.141715 26.587429 78.482286 78.482286 0 0 1-155.721143 0 195.949714 195.949714 0 0 1-44.141714-26.587429 78.482286 78.482286 0 0 1-73.508571-138.057142 200.374857 200.374857 0 0 1 1.353143-44.580572 78.482286 78.482286 0 0 1 80.237714-134.838857l0.512 0.292571 1.755428 1.024z m111.652572 240.713143a78.628571 78.628571 0 0 1-78.482286-78.774857c0-43.483429 35.108571-78.738286 78.482286-78.738286a78.628571 78.628571 0 0 1 78.445714 78.738286 78.628571 78.628571 0 0 1-78.445714 78.774857zM402.285714 694.857143c0 25.124571 2.816 49.627429 8.155429 73.142857H146.285714a73.142857 73.142857 0 0 1-73.142857-73.142857V182.857143a73.142857 73.142857 0 0 1 73.142857-73.142857h731.428572a73.142857 73.142857 0 0 1 73.142857 73.142857v266.678857a329.764571 329.764571 0 0 0-73.142857-49.590857V219.428571c0-1.938286-0.146286-3.84-0.438857-5.705142l-166.473143 152.612571a328.777143 328.777143 0 0 0-247.515429 137.581714L146.724571 213.723429C146.432 215.588571 146.285714 217.490286 146.285714 219.428571v438.857143c0 8.484571 2.925714 16.310857 7.753143 22.528l211.2-193.609143 58.514286 53.613715-168.996572 150.235428a36.571429 36.571429 0 0 0-3.693714 3.803429H402.285714zM242.468571 182.857143a36.571429 36.571429 0 0 0 12.288 27.318857l232.96 207.067429a36.571429 36.571429 0 0 0 48.566858 0l232.96-207.067429A36.498286 36.498286 0 0 0 781.531429 182.857143H242.468571z" p-id="3293"></path></svg>