<svg t="1698912368719" class="icon" viewBox="0 0 1024 1024" version="1.1" xmlns="http://www.w3.org/2000/svg" p-id="1470" width="200" height="200"><path d="M972.4 256.356H788.833c-27.985 0-50.686 22.754-50.686 50.817v664.765c-0.029 28.024 22.661 50.769 50.686 50.813H972.4c27.985 0 50.661-22.75 50.661-50.813V307.173c0.001-28.063-22.675-50.817-50.661-50.817zM946.461 946.15H814.753V332.961h131.708V946.15zM635.958 1022.751H388.579a50.741 50.741 0 0 1-35.854-14.913 50.755 50.755 0 0 1-14.806-35.899V52.181c0-28.063 22.676-50.812 50.66-50.812h240.025a58.127 58.127 0 0 1 41.092 17.119 58.156 58.156 0 0 1 16.924 41.179v912.271c-0.001 28.063-22.677 50.813-50.662 50.813zM235.884 367.662H52.341c-27.984 0-50.661 22.754-50.661 50.812v553.464a50.734 50.734 0 0 0 50.661 50.812h183.543c27.985 0 50.686-22.75 50.686-50.813V418.474c0-28.057-22.701-50.812-50.686-50.812zM209.965 946.15H78.285V444.268h131.68V946.15z" p-id="1471"></path><path d="M108.051 513.583h70.094c14.07 0 25.56 11.489 25.56 25.536 0 14.045-11.489 25.534-25.56 25.534h-70.094c-14.017 0-25.506-11.489-25.506-25.534 0-14.047 11.489-25.536 25.506-25.536zM108.051 615.26h70.094c14.07 0 25.56 11.494 25.56 25.538s-11.489 25.533-25.56 25.533h-70.094c-14.017 0-25.506-11.489-25.506-25.533s11.489-25.538 25.506-25.538zM108.051 716.938h70.094c14.07 0 25.56 11.496 25.56 25.535 0 14.046-11.489 25.535-25.56 25.535h-70.094c-14.017 0-25.506-11.489-25.506-25.535 0-14.038 11.489-25.535 25.506-25.535zM108.051 818.646h70.094c14.07 0 25.56 11.489 25.56 25.537 0 14.039-11.489 25.528-25.56 25.528h-70.094c-14.017 0-25.506-11.489-25.506-25.528 0-14.048 11.489-25.537 25.506-25.537zM845.53 517.143h70.094c14.07 0 25.561 11.489 25.561 25.536 0 14.045-11.49 25.534-25.561 25.534H845.53c-14.017 0-25.506-11.489-25.506-25.534 0-14.047 11.49-25.536 25.506-25.536zM845.53 618.819h70.094c14.07 0 25.561 11.494 25.561 25.538s-11.49 25.533-25.561 25.533H845.53c-14.017 0-25.506-11.489-25.506-25.533s11.49-25.538 25.506-25.538zM845.53 720.498h70.094c14.07 0 25.561 11.496 25.561 25.535 0 14.046-11.49 25.535-25.561 25.535H845.53c-14.017 0-25.506-11.489-25.506-25.535 0-14.039 11.49-25.535 25.506-25.535zM845.53 822.205h70.094c14.07 0 25.561 11.489 25.561 25.537 0 14.039-11.49 25.528-25.561 25.528H845.53c-14.017 0-25.506-11.489-25.506-25.528 0-14.048 11.49-25.537 25.506-25.537zM845.53 406.143h70.094c14.07 0 25.561 11.489 25.561 25.536 0 14.045-11.49 25.534-25.561 25.534H845.53c-14.017 0-25.506-11.489-25.506-25.534 0-14.047 11.49-25.536 25.506-25.536z" p-id="1472"></path></svg>