<svg t="1682242298144" class="icon" viewBox="0 0 1024 1024" version="1.1" xmlns="http://www.w3.org/2000/svg" p-id="4666" width="200" height="200"><path d="M416 192c23.7 0 44.4 12.9 55.4 32h245.4c17.7 0 32 14.3 32 32s-14.3 32-32 32l-245.4 0.1C460.3 307.2 439.7 320 416 320s-44.3-12.8-55.4-31.9l-27.8-0.1c-17.7 0-32-14.3-32-32s14.3-32 32-32h27.8c11-19.1 31.7-32 55.4-32z m192 192c23.7 0 44.4 12.9 55.4 32H704c17.7 0 32 14.3 32 32s-14.3 32-32 32l-40.6 0.1C652.3 499.2 631.7 512 608 512s-44.3-12.8-55.4-31.9L320 480c-17.7 0-32-14.3-32-32s14.3-32 32-32h232.6c11-19.1 31.7-32 55.4-32z m192-256H224v448h135.5c14.6 0 28.1 7.3 36.2 19.1l3.1 5.4c31.2 63.4 108 89.5 171.4 58.3 25.1-12.4 45.5-32.6 58-57.6 7.7-15.4 23.4-25.1 40.6-25.1H800V128zM347.5 640H128v256h768V640H679.7l-1 1.9c-16.6 27.9-40 51.2-68 67.6l-12.3 6.6c-88.1 43.4-193.3 13.1-245.6-67.2l-5.3-8.9zM832 64c17.7 0 32 14.3 32 32v480h64c17.7 0 32 14.3 32 32v320c0 17.7-14.3 32-32 32H96c-17.7 0-32-14.3-32-32V608c0-17.7 14.3-32 32-32h64V96c0-17.7 14.3-32 32-32h640z" p-id="4667"></path></svg>