<svg xmlns="http://www.w3.org/2000/svg" xmlns:xlink="http://www.w3.org/1999/xlink" version="1.1" width="168" height="168" viewBox="0 0 168 168"><defs><clipPath id="master_svg0_821_96230"><rect x="0" y="0" width="168" height="168" rx="0"/></clipPath></defs><g clip-path="url(#master_svg0_821_96230)"><g><path d="M29.0919904296875,24.306975C29.0919904296875,16.169175,35.7263904296875,9.547685,43.8800904296875,9.547685L113.2204904296875,9.547685C117.1231904296875,9.547685,120.9421904296875,11.130675,123.6961904296875,13.890275L132.93719042968752,23.148275L132.93719042968752,4.591195C132.93719042968752,3.286385,132.4181904296875,2.035405,131.4941904296875,1.112555C130.5691904296875,0.18969800000000003,129.31619042968748,-0.328125,128.0081904296875,-0.328125Q128.0081904296875,-0.328125,128.0071904296875,-0.328125L20.8741304296875,-0.2909546C18.1528104296875,-0.2909546,15.9464745996875,1.9123549999999998,15.9464745996875,4.628365L15.9451904296875,143.072875C15.9451904296875,144.378875,16.4653104296875,145.631875,17.3912504296875,146.553875C18.3159104296875,147.475875,19.5680504296875,147.993875,20.8741304296875,147.993875L20.8805504296875,147.993875L29.0906904296875,147.986875L29.0919904296875,24.306975Z" /></g><g><path d="M113.2204083984375,63.7934732421875C110.4978083984375,63.7934732421875,108.2902083984375,61.5901732421875,108.2902083984375,58.8728732421875L108.2902083984375,19.3875732421875L43.8801183984375,19.3875732421875C41.1575083984375,19.3875732421875,38.9511768884375,21.5896032421875,38.9511768884375,24.3068932421875L38.9486083984375,162.7515732421875C38.9486083984375,164.0575732421875,39.4687283984375,165.3095732421875,40.3946683984375,166.2325732421875C41.3193283984375,167.1545732421875,42.5714683984375,167.6725732421875,43.8788283984375,167.6725732421875L43.8852483984375,167.6725732421875L147.73160839843752,167.5415732421875C150.4516083984375,167.5375732421875,152.6556083984375,165.3365732421875,152.6556083984375,162.6205732421875L152.6556083984375,63.7934732421875L113.2204083984375,63.7934732421875ZM119.7470083984375,129.58557324218748C113.9396083984375,135.3825732421875,106.2174083984375,138.5745732421875,98.0034083984375,138.5745732421875C89.7894083984375,138.5745732421875,82.0672083984375,135.3825732421875,76.2598083984375,129.58557324218748C71.5287083984375,124.8635732421875,68.5299083984375,118.8673732421875,67.5809083984375,112.3714732421875L67.0826083984375,112.8687732421875C65.1588083984375,114.7913732421875,62.0368083984375,114.7913732421875,60.1117083984375,112.8687732421875C58.1866083984375,110.9487732421875,58.1866083984375,107.8327732421875,60.1117083984375,105.9114732421875L68.6969083984375,97.3430732421875C70.6220083984375,95.4216732421875,73.7440083984375,95.4216732421875,75.6691083984375,97.3430732421875L84.2542083984375,105.9114732421875C86.1781083984375,107.8327732421875,86.1781083984375,110.9487732421875,84.2542083984375,112.8687732421875C83.2911083984375,113.8300732421875,82.0299083984375,114.3107732421875,80.7675083984375,114.3107732421875C79.7350083984375,114.3107732421875,78.7037083984375,113.9825732421875,77.8343083984375,113.3378732421875C78.7731083984375,116.8152732421875,80.6083083984375,120.0105732421875,83.2307083984375,122.6275732421875C87.1772083984375,126.5665732421875,92.4233083984375,128.7355732421875,98.0034083984375,128.7355732421875C103.5834083984375,128.7355732421875,108.8309083984375,126.5655732421875,112.7761083984375,122.6275732421875C114.7012083984375,120.7065732421875,117.8219083984375,120.7065732421875,119.7470083984375,122.6275732421875C121.6721083984375,124.5495732421875,121.6721083984375,127.6635732421875,119.7470083984375,129.58557324218748ZM131.4131083984375,101.6381732421875L122.8279083984375,110.2065732421875C121.8660083984375,111.1678732421875,120.6049083984375,111.6472732421875,119.3424083984375,111.6472732421875C118.0813083984375,111.6472732421875,116.8202083984375,111.1678732421875,115.8570083984375,110.2065732421875L107.2718083984375,101.6381732421875C105.3467083984375,99.7168732421875,105.3467083984375,96.6021732421875,107.2718083984375,94.6808732421875C109.0235083984375,92.9325732421875,111.7615083984375,92.7813732421875,113.6917083984375,94.2130732421875C112.7530083984375,90.7343732421875,110.9165083984375,87.5389732421875,108.2953083984375,84.9216732421875C100.1494083984375,76.7928732421875,86.8947083984375,76.7928732421875,78.7500083984375,84.9216732421875C76.8249083984375,86.8430732421875,73.7029083984375,86.8430732421875,71.7778083984375,84.9216732421875C69.8527083984375,83.0003732421875,69.8527083984375,79.8857732421875,71.7778083984375,77.96437324218749C83.7675083984375,65.9980732421875,103.2765083984375,65.9980732421875,115.2662083984375,77.96437324218749C119.9974083984375,82.6863732421875,122.9948083984375,88.6835732421875,123.9439083984375,95.1781732421875L124.4422083984375,94.6808732421875C126.3673083984375,92.7595732421875,129.4880083984375,92.7595732421875,131.4131083984375,94.6808732421875C133.3394083984375,96.6021732421875,133.3394083984375,99.7168732421875,131.4131083984375,101.6381732421875Z" /></g><g><path d="M118.14938354492188,22.2752685546875L118.14938354492188,53.953468554687504L149.77268354492188,53.953468554687504L118.14938354492188,22.2752685546875Z"/></g></g></svg>