<svg t="1689559577609" class="icon" viewBox="0 0 1082 1024" version="1.1" xmlns="http://www.w3.org/2000/svg" p-id="24320" width="200" height="200"><path d="M533.441374 666.50083L342.850691 557.494744c12.351001-24.135443 19.942901-51.103685 19.942902-80.111542 0-17.903286-3.399358-34.786766-8.385084-51.216996l198.295895-113.31194c32.520527 35.240013 78.751798 57.675777 130.535355 57.675777 98.241452 0 178.013057-79.771606 178.013057-178.013057 0-98.241452-79.771606-178.013057-178.013057-178.013058C584.884995 14.61724 505.226701 94.275534 505.226701 192.630298c0 17.903286 3.399358 34.900077 8.271772 51.216996l-198.295895 113.31194c-32.520527-35.240013-78.751798-57.675777-130.422043-57.675777-98.468076-0.113312-178.126369 79.544982-178.126369 177.899745S86.31246 655.39626 184.667223 655.39626c40.565674 0 77.618679-14.163992 107.533031-36.939693l-0.679871 1.246432 215.632621 123.28339c-0.906496 6.232157 25.268563-66.400797 26.28837-76.485559zM683.239759 85.777138c58.922209 0 106.853159 47.817639 106.853159 106.85316 0 59.035521-47.930951 106.853159-106.853159 106.853159-59.035521 0-106.853159-47.817639-106.85316-106.853159 0-59.035521 47.817639-106.853159 106.85316-106.85316z m-498.572536 498.459224c-59.035521 0-106.739847-47.817639-106.739847-106.85316 0-59.035521 47.817639-106.853159 106.739847-106.853159 59.035521 0 106.853159 47.817639 106.85316 106.853159 0 59.035521-47.817639 106.853159-106.85316 106.85316z m498.572536 284.866216" p-id="24321"></path><path d="M742.955151 1024c-150.591568 0-272.628527-122.490207-272.628527-273.535023s122.036959-273.535023 272.628527-273.535022c150.591568 0 272.628527 122.490207 272.628527 273.535022S893.546719 1024 742.955151 1024z m-2.832799-490.07414c-119.997344 0-217.332301 97.56158-217.3323 218.012173 0 120.33728 97.334956 218.012172 217.3323 218.012172s217.332301-97.56158 217.332301-218.012172c-0.113312-120.450592-97.334956-218.012172-217.332301-218.012173z m113.538564 242.147616h-110.819077c-14.163992 0-25.608498-11.444506-25.608499-25.608499V596.587363c0-14.163992 11.444506-25.608498 25.608499-25.608498 14.163992 0 25.608498 11.444506 25.608498 25.608498v128.269116h85.210579c14.163992 0 25.608498 11.444506 25.608498 25.608498s-11.444506 25.608498-25.608498 25.608499z m0 0" p-id="24322"></path></svg>