<svg t="1689559635496" class="icon" viewBox="0 0 1024 1024" version="1.1" xmlns="http://www.w3.org/2000/svg" p-id="24482" width="200" height="200"><path d="M920.346122 953.051429H124.551837a20.897959 20.897959 0 0 1-20.897959-20.89796V250.77551a20.897959 20.897959 0 0 1 20.897959-20.897959h795.794285a20.897959 20.897959 0 0 1 20.89796 20.897959v681.377959a20.897959 20.897959 0 0 1-20.89796 20.89796z m-775.000816-41.795919h754.102857V271.673469H145.449796z" p-id="24483"></path><path d="M920.346122 269.165714a20.897959 20.897959 0 0 1-18.494693-11.075918L826.096327 114.938776H218.801633l-75.859592 143.04653a20.897959 20.897959 0 0 1-36.989388-19.539592L188.081633 84.218776A20.897959 20.897959 0 0 1 206.158367 73.142857h632.581225A20.897959 20.897959 0 0 1 856.816327 84.218776l81.71102 154.226938a20.897959 20.897959 0 0 1-18.494694 30.72zM920.346122 927.451429a10.44898 10.44898 0 0 1-9.195102-5.53796L832.470204 773.22449H212.427755L133.746939 921.80898a10.44898 10.44898 0 0 1-18.808163-9.717551l81.71102-154.226939a10.44898 10.44898 0 0 1 9.195102-5.537959h632.894694a10.44898 10.44898 0 0 1 9.195102 5.537959L929.959184 912.091429a10.44898 10.44898 0 0 1-4.388572 14.106122 10.44898 10.44898 0 0 1-5.22449 1.253878z" p-id="24484"></path><path d="M208.979592 773.22449a10.44898 10.44898 0 0 1-10.44898-10.44898V94.040816a10.44898 10.44898 0 0 1 20.897959 0v668.734694a10.44898 10.44898 0 0 1-10.448979 10.44898zM835.918367 773.22449a10.44898 10.44898 0 0 1-10.448979-10.44898V94.040816a10.44898 10.44898 0 0 1 20.897959 0v668.734694a10.44898 10.44898 0 0 1-10.44898 10.44898zM705.306122 679.183673a88.816327 88.816327 0 1 1 88.816327-88.816326 88.920816 88.920816 0 0 1-88.816327 88.816326z m0-135.836734a47.020408 47.020408 0 1 0 47.020409 47.020408 47.020408 47.020408 0 0 0-47.020409-47.020408zM522.44898 491.102041a73.142857 73.142857 0 1 1 73.142857-73.142857 73.142857 73.142857 0 0 1-73.142857 73.142857z m0-104.489796a31.346939 31.346939 0 1 0 31.346938 31.346939 31.346939 31.346939 0 0 0-31.346938-31.346939zM308.244898 668.734694a67.918367 67.918367 0 1 1 67.918367-67.918367 68.022857 68.022857 0 0 1-67.918367 67.918367z m0-94.040816a26.122449 26.122449 0 1 0 26.122449 26.122449 26.122449 26.122449 0 0 0-26.122449-26.122449z" p-id="24485"></path><path d="M344.816327 574.693878a20.897959 20.897959 0 0 1-13.374694-36.989388l125.387755-104.489796a20.897959 20.897959 0 1 1 26.749388 32.078367l-125.387756 104.489796A20.897959 20.897959 0 0 1 344.816327 574.693878zM658.285714 543.346939a20.897959 20.897959 0 0 1-14.628571-5.955919l-83.591837-81.81551a20.897959 20.897959 0 1 1 29.257143-29.884081l83.591837 81.81551A20.897959 20.897959 0 0 1 658.285714 543.346939z" p-id="24486"></path></svg>