<svg t="1695115616652" class="icon" viewBox="0 0 1024 1024" version="1.1" xmlns="http://www.w3.org/2000/svg" p-id="2456" width="200" height="200"><path d="M997.3 933.3c0 49.8-40.8 90.7-90.7 90.7h-272c-49.8 0-90.6-40.9-90.6-90.7V661.2c0-49.8 40.9-90.6 90.6-90.6h272c50 0 90.7 40.9 90.7 90.6v272.1zM453.3 389.4c0 49.8-40.9 90.7-90.6 90.7h-272C40.9 480.1 0 439.3 0 389.4v-272c0-50 40.8-90.7 90.7-90.7h272c50 0 90.6 40.9 90.6 90.7v272zM453.3 933.3c0 49.8-40.9 90.7-90.6 90.7h-272C40.9 1024 0 983.1 0 933.3v-272c0-50 40.8-90.6 90.7-90.6h272c50 0 90.6 40.8 90.6 90.6v272zM997.4 189.2L834.7 26.5c-35.3-35.3-92.9-35.3-128.3 0L543.7 189.2c-35.3 35.3-35.3 92.9 0 128.3l162.8 162.8c35.3 35.3 92.9 35.3 128.3 0l162.8-162.8c35.1-35.2 35.1-92.9-0.2-128.3z m-45.9 82.4L788.8 434.3c-6.5 6.5-14.2 7.5-18.1 7.5s-11.6-1-18.1-7.5L589.9 271.6c-9.9-9.9-9.9-26.2 0-36.1L752.6 72.7c6.5-6.5 14.2-7.5 18.1-7.5s11.6 1 18.1 7.5l162.8 162.8c6.5 6.5 7.5 14.2 7.5 18.1s-1.1 11.5-7.6 18z" p-id="2457"></path></svg>