<svg t="1695113760308" class="icon" viewBox="0 0 1024 1024" version="1.1" xmlns="http://www.w3.org/2000/svg" p-id="1483" width="200" height="200"><path d="M409.7 731.9H193.5c-33.1 0-60-26.9-60-60V240c0-33.1 26.9-60 60-60h637.2c33.1 0 60 26.9 60 60v164.5c0 11-9 20-20 20s-20-9-20-20V240c0-11-9-20-20-20H193.5c-11 0-20 9-20 20v431.9c0 11 9 20 20 20h216.2c11 0 20 9 20 20s-9 20-20 20z m0 102.4H307c-11 0-20-9-20-20s9-20 20-20h102.6c11 0 20 9 20 20 0.1 11-8.9 20-19.9 20z" p-id="1484"></path><path d="M691.1 720.7c-47.3 0-85.8-38.5-85.8-85.8s38.5-85.8 85.8-85.8 85.8 38.5 85.8 85.8-38.5 85.8-85.8 85.8z m0-131.6c-25.3 0-45.8 20.5-45.8 45.8 0 25.2 20.5 45.8 45.8 45.8 25.3 0 45.8-20.5 45.8-45.8 0-25.3-20.5-45.8-45.8-45.8z" p-id="1485"></path><path d="M620.9 874.1c-2 0-4.1-0.3-6.1-1-34.3-11-65.2-28.9-91.9-53.2-6.7-6.1-8.5-15.9-4.3-23.9 9.9-19.3 9.4-42-1.4-60.8-10.8-18.7-30.2-30.5-51.8-31.6-9-0.5-16.7-6.9-18.6-15.8-3.7-17.3-5.6-35.1-5.6-52.8 0-17.9 1.9-35.9 5.7-53.3 1.9-8.8 9.5-15.3 18.5-15.7 21.6-1.1 41-12.9 51.8-31.6 10.8-18.7 11.4-41.3 1.6-60.5-4.1-8-2.3-17.8 4.4-23.9 26.9-24.4 57.9-42.3 92.4-53.2 8.5-2.7 17.8 0.6 22.7 8 11.8 17.8 31.6 28.4 52.9 28.4 21.3 0 41.1-10.6 52.9-28.4 4.9-7.4 14.2-10.7 22.7-8 34.5 10.9 65.5 28.8 92.4 53.2 6.7 6.1 8.5 15.8 4.4 23.9-9.8 19.2-9.2 41.9 1.6 60.5 10.8 18.7 30.1 30.5 51.8 31.6 9 0.5 16.6 6.9 18.5 15.7 3.8 17.5 5.7 35.4 5.7 53.3 0 17.7-1.9 35.5-5.6 52.8-1.9 8.9-9.5 15.3-18.6 15.8-21.7 1.1-41 12.9-51.8 31.6-10.8 18.7-11.4 41.5-1.4 60.8 4.1 8 2.4 17.8-4.3 23.9-26.7 24.3-57.6 42.2-91.9 53.2-8.6 2.8-18-0.6-22.9-8.2-11.8-18.3-31.7-29.2-53.4-29.2s-41.6 10.9-53.4 29.2c-3.9 5.9-10.3 9.2-17 9.2z m-60.5-74.7c16.3 13 34.2 23.3 53.5 30.9 19.5-21.9 47.3-34.6 77.2-34.6 29.9 0 57.7 12.7 77.2 34.6 19.3-7.6 37.2-18 53.5-30.9-9.2-27.8-6.3-58.3 8.6-84.1 14.9-25.8 39.8-43.6 68.4-49.5 1.5-10.2 2.2-20.4 2.2-30.7 0-10.4-0.8-20.9-2.3-31.2-28.6-6-53.4-23.7-68.3-49.5-14.9-25.7-17.8-56.1-8.8-83.8-16.5-13.1-34.6-23.6-54.1-31.2-19.4 21.4-47 33.8-76.4 33.8-29.4 0-57-12.4-76.5-33.8-19.5 7.6-37.7 18.1-54.1 31.2 9.1 27.7 6.1 58.1-8.8 83.8-14.9 25.8-39.7 43.5-68.3 49.5-1.5 10.3-2.3 20.7-2.3 31.2 0 10.3 0.8 20.5 2.2 30.7 28.6 5.9 53.5 23.7 68.4 49.5 15 25.9 17.9 56.3 8.7 84.1z m287.4-74.1z" p-id="1486"></path></svg>