<svg width="25" height="25" viewBox="0 0 25 25" fill="none" xmlns="http://www.w3.org/2000/svg">
<path d="M23.8477 17.082C23.9492 16.5312 23.9492 15.9688 23.8477 15.418L24.8555 14.8359C24.9727 14.7695 25.0234 14.6328 24.9844 14.5039C24.7227 13.6602 24.2734 12.8945 23.6875 12.2617C23.5977 12.1641 23.4531 12.1406 23.3359 12.207L22.3281 12.7891C21.9023 12.4258 21.4141 12.1445 20.8867 11.957V10.793C20.8867 10.6602 20.793 10.543 20.6641 10.5156C19.793 10.3203 18.9062 10.3281 18.0781 10.5156C17.9492 10.543 17.8555 10.6602 17.8555 10.793V11.957C17.3281 12.1445 16.8398 12.4258 16.4141 12.7891L15.4062 12.207C15.293 12.1406 15.1445 12.1641 15.0547 12.2617C14.4688 12.8945 14.0195 13.6602 13.7578 14.5039C13.7188 14.6328 13.7734 14.7695 13.8867 14.8359L14.8945 15.418C14.793 15.9688 14.793 16.5312 14.8945 17.082L13.8867 17.6641C13.7695 17.7305 13.7188 17.8672 13.7578 17.9961C14.0195 18.8398 14.4688 19.6016 15.0547 20.2383C15.1445 20.3359 15.2891 20.3594 15.4062 20.293L16.4141 19.7109C16.8398 20.0742 17.3281 20.3555 17.8555 20.543V21.707C17.8555 21.8398 17.9492 21.957 18.0781 21.9844C18.9492 22.1797 19.8359 22.1719 20.6641 21.9844C20.793 21.957 20.8867 21.8398 20.8867 21.707V20.543C21.4141 20.3555 21.9023 20.0742 22.3281 19.7109L23.3359 20.293C23.4492 20.3594 23.5977 20.3359 23.6875 20.2383C24.2734 19.6055 24.7227 18.8398 24.9844 17.9961C25.0234 17.8672 24.9688 17.7305 24.8555 17.6641L23.8477 17.082ZM19.375 18.1445C18.3281 18.1445 17.4805 17.293 17.4805 16.25C17.4805 15.207 18.332 14.3555 19.375 14.3555C20.418 14.3555 21.2695 15.207 21.2695 16.25C21.2695 17.293 20.4219 18.1445 19.375 18.1445ZM8.75 12.5C11.5117 12.5 13.75 10.2617 13.75 7.5C13.75 4.73828 11.5117 2.5 8.75 2.5C5.98828 2.5 3.75 4.73828 3.75 7.5C3.75 10.2617 5.98828 12.5 8.75 12.5ZM16.6094 21.3477C16.5195 21.3008 16.4297 21.2461 16.3438 21.1953L16.0352 21.375C15.8008 21.5078 15.5352 21.582 15.2695 21.582C14.8438 21.582 14.4336 21.4023 14.1406 21.0898C13.4258 20.3164 12.8789 19.375 12.5703 18.3711C12.3555 17.6797 12.6445 16.9492 13.2695 16.5859L13.5781 16.4062C13.5742 16.3047 13.5742 16.2031 13.5781 16.1016L13.2695 15.9219C12.6445 15.5625 12.3555 14.8281 12.5703 14.1367C12.6055 14.0234 12.6562 13.9102 12.6953 13.7969C12.5469 13.7852 12.4023 13.75 12.25 13.75H11.5977C10.7305 14.1484 9.76562 14.375 8.75 14.375C7.73438 14.375 6.77344 14.1484 5.90234 13.75H5.25C2.35156 13.75 0 16.1016 0 19V20.625C0 21.6602 0.839844 22.5 1.875 22.5H15.625C16.0195 22.5 16.3867 22.375 16.6875 22.168C16.6406 22.0195 16.6094 21.8672 16.6094 21.707V21.3477Z" fill="currentColor"/>
</svg>