<svg xmlns="http://www.w3.org/2000/svg" xmlns:xlink="http://www.w3.org/1999/xlink" fill="none" version="1.1"  viewBox="0 0 159 159"><defs><clipPath id="master_svg0_155_53751/114_43740"><rect x="0" y="0" width="159" height="159" rx="0"/></clipPath></defs><g clip-path="url(#master_svg0_155_53751/114_43740)"><g><g><path d="M113.162609375,0L13.974609375,0L13.974609375,159L145.025609375,159L145.025609375,31.8627L113.162609375,0ZM112.785709375,12.7983L132.227609375,32.2397L112.785709375,32.2397L112.785709375,12.7983ZM135.70860937499998,149.684L23.291019374999998,149.684L23.291019374999998,9.31641L103.469209375,9.31641L103.469209375,41.5561L135.70860937499998,41.5561L135.70860937499998,149.684Z" fill="currentColor" fill-opacity="1"/></g><g><path d="M65.86477973876953,112.39131269531251L70.36736973876953,99.4120126953125L88.67136973876953,99.4120126953125L93.13296973876953,112.39131269531251L102.98446973876953,112.39131269531251L83.84576973876953,56.7130126953125L75.31596973876952,56.7220207153125L56.00366973876953,112.39131269531251L65.86477973876953,112.39131269531251ZM79.56146973876953,72.90931269531251L85.46896973876953,90.0952126953125L73.59956973876953,90.0952126953125L79.56146973876953,72.90931269531251Z" fill="currentColor" fill-opacity="1"/></g><g><path d="M36.64421844482422,56.71650695800781L58.693318444824214,56.71650695800781L58.693318444824214,66.03291695800782L36.64421844482422,66.03291695800782L36.64421844482422,56.71650695800781Z" fill="currentColor" fill-opacity="1"/></g><g><path d="M36.644220814104216,79.8695297241211L53.310618444824215,79.8695297241211L53.310618444824215,89.1859397241211L36.64421844482422,89.1859397241211L36.644220814104216,79.8695297241211Z" fill="currentColor" fill-opacity="1"/></g><g><path d="M36.644220814104216,126.1764907836914L122.35581844482422,126.1764907836914L122.35581844482422,135.4929007836914L36.64421844482422,135.4929007836914L36.644220814104216,126.1764907836914Z" fill="currentColor" fill-opacity="1"/></g><g><path d="M36.644220814104216,103.02285766601562L45.960628444824216,103.02285766601562L45.960628444824216,112.33926766601563L36.64421844482422,112.33926766601563L36.644220814104216,103.02285766601562Z" fill="currentColor" fill-opacity="1"/></g><g><path d="M100.306640625,56.71650695800781L122.355740625,56.71650695800781L122.355740625,66.03291695800782L100.306640625,66.03291695800782L100.306640625,56.71650695800781Z" fill="currentColor" fill-opacity="1"/></g><g><path d="M105.68934631347656,79.8695297241211L122.35574631347656,79.8695297241211L122.35574631347656,89.1859397241211L105.68934631347656,89.1859397241211L105.68934631347656,79.8695297241211Z" fill="currentColor" fill-opacity="1"/></g><g><path d="M113.03936004638672,103.02285766601562L122.35577004638672,103.02285766601562L122.35577004638672,112.33926766601563L113.03936004638672,112.33926766601563L113.03936004638672,103.02285766601562Z" fill="currentColor" fill-opacity="1"/></g></g></g></svg>