<svg t="1688622795492" class="icon" viewBox="0 0 1024 1024" version="1.1" xmlns="http://www.w3.org/2000/svg" p-id="7734" width="200" height="200"><path d="M832 176V64c0-35.3-28.7-64-64-64H64C28.7 0 0 28.7 0 64v704c0 35.3 28.7 64 64 64h112c8.8 0 16 7.2 16 16v112c0 35.3 28.7 64 64 64h124c2.2 0 4-1.8 4-4v-56c0-2.2-1.8-4-4-4H256V848c0-8.8 7.2-16 16-16h496c35.3 0 64-28.7 64-64V272c0-8.8 7.2-16 16-16h112v124c0 2.2 1.8 4 4 4h56c2.2 0 4-1.8 4-4V256c0-35.3-28.7-64-64-64H848c-8.8 0-16-7.2-16-16z m-80 592H80c-8.8 0-16-7.2-16-16V80c0-8.8 7.2-16 16-16h672c8.8 0 16 7.2 16 16v672c0 8.8-7.2 16-16 16zM960 1024H836c-2.2 0-4-1.8-4-4v-56c0-2.2 1.8-4 4-4h108c8.8 0 16-7.2 16-16V836c0-2.2 1.8-4 4-4h56c2.2 0 4 1.8 4 4v124c0 35.3-28.7 64-64 64z" p-id="7735"></path><path d="M732 1024H484c-2.2 0-4-1.8-4-4v-56c0-2.2 1.8-4 4-4h248c2.2 0 4 1.8 4 4v56c0 2.2-1.8 4-4 4zM1020 736h-56c-2.2 0-4-1.8-4-4V484c0-2.2 1.8-4 4-4h56c2.2 0 4 1.8 4 4v248c0 2.2-1.8 4-4 4z" p-id="7736"></path></svg>