<svg t="1688621822134" class="icon" viewBox="0 0 1024 1024" version="1.1" xmlns="http://www.w3.org/2000/svg" p-id="2386" width="200" height="200"><path d="M419.5 780.57c-10.2 0-18.55-9.59-18.55-21.32V533.1c0-11.72 8.35-21.32 18.55-21.32 10.2 0 18.55 9.59 18.55 21.32v226.16c0 11.72-8.35 21.31-18.55 21.31z" p-id="2387"></path><path d="M419.5 782.92c-11.52 0-20.89-10.61-20.89-23.66V533.1c0-13.05 9.37-23.66 20.89-23.66s20.89 10.61 20.89 23.66v226.16c0.01 13.04-9.37 23.66-20.89 23.66z m0-268.79c-8.93 0-16.2 8.51-16.2 18.97v226.16c0 10.46 7.27 18.97 16.2 18.97s16.2-8.51 16.2-18.97V533.1c0-10.46-7.26-18.97-16.2-18.97z" p-id="2388"></path><path d="M498.88 628.25c-4.82 0-9.46-1.85-13.17-5.38l-79.38-79.38c-7.23-7.23-7.23-18.92 0-26.15 7.23-7.23 18.92-7.23 26.15 0l79.56 79.38c7.23 7.23 7.23 18.92 0 26.15-3.7 3.71-8.34 5.38-13.16 5.38z" p-id="2389"></path><path d="M498.88 630.6c-5.44 0-10.69-2.14-14.78-6.02l-79.42-79.42c-3.94-3.94-6.11-9.17-6.11-14.73s2.17-10.79 6.11-14.73c3.94-3.94 9.17-6.11 14.73-6.11 5.56 0 10.79 2.17 14.73 6.11l79.56 79.37c8.12 8.13 8.12 21.34 0 29.47-3.96 3.96-9.09 6.06-14.82 6.06z m-79.47-116.33c-4.31 0-8.36 1.68-11.42 4.74a16.062 16.062 0 0 0-4.74 11.42c0 4.31 1.68 8.36 4.74 11.42l79.38 79.38c3.22 3.05 7.21 4.69 11.51 4.69 4.46 0 8.44-1.62 11.51-4.69 6.29-6.29 6.29-16.54 0-22.83l-79.56-79.37c-3.06-3.08-7.11-4.76-11.42-4.76z" p-id="2390"></path><path d="M339.94 628.25c-4.82 0-9.46-1.85-13.17-5.38-7.23-7.23-7.23-18.92 0-26.15l79.56-79.56c7.23-7.23 18.92-7.23 26.15 0 7.23 7.23 7.23 18.92 0 26.15l-79.56 79.56c-3.52 3.71-8.16 5.38-12.98 5.38z" p-id="2391"></path><path d="M339.94 630.6c-5.44 0-10.69-2.14-14.78-6.02-8.17-8.17-8.17-21.39-0.04-29.51l79.56-79.56c8.12-8.12 21.34-8.12 29.47 0 3.94 3.94 6.11 9.17 6.11 14.73s-2.17 10.79-6.11 14.73l-79.56 79.56c-3.76 3.95-8.84 6.07-14.65 6.07z m79.47-116.5c-4.13 0-8.27 1.57-11.42 4.72l-79.56 79.56c-6.29 6.3-6.29 16.54 0 22.83 3.22 3.05 7.21 4.69 11.51 4.69 3.13 0 7.63-0.81 11.28-4.65l79.6-79.6c3.05-3.05 4.74-7.11 4.74-11.42s-1.68-8.36-4.74-11.42c-3.14-3.14-7.28-4.71-11.41-4.71z" p-id="2392"></path><path d="M672.98 118.49c98.79 0 178.87 80.08 178.87 178.87v429.29c0 98.79-80.08 178.87-178.87 178.87H351.02c-98.79 0-178.87-80.08-178.87-178.87V297.36c0-98.79 80.08-178.87 178.87-178.87h321.96z m0 62.6H351.02c-62.59 0-113.95 49.55-116.19 112.1l-0.07 4.17v429.29c0 62.59 49.55 113.95 112.1 116.19l4.17 0.07h321.96c62.59 0 113.95-49.55 116.19-112.1l0.07-4.17V297.36c0-62.59-49.55-113.95-112.1-116.19l-4.17-0.08z" p-id="2393"></path><path d="M447.61 305.41c-17.29 0.01-31.3 14.03-31.29 31.32 0.01 16.28 12.49 29.83 28.71 31.18l2.58 0.11h214.64c17.29-0.01 31.3-14.03 31.29-31.32-0.01-16.28-12.49-29.83-28.71-31.18l-2.58-0.11H447.61zM590.7 484.28c-17.29 0.01-31.3 14.03-31.29 31.32 0.01 16.28 12.49 29.83 28.71 31.18l2.58 0.11h71.55c17.29-0.01 31.3-14.03 31.29-31.32-0.01-16.28-12.49-29.83-28.71-31.18l-2.58-0.11H590.7z" p-id="2394"></path></svg>