<svg t="1688621760933" class="icon" viewBox="0 0 1024 1024" version="1.1" xmlns="http://www.w3.org/2000/svg" p-id="1498" width="200" height="200"><path d="M370.16 738.45c-9.97 0-18.12-9.37-18.12-20.83V496.61c0-11.46 8.16-20.83 18.12-20.83 9.97 0 18.12 9.37 18.12 20.83v221.02c0 11.45-8.15 20.82-18.12 20.82z" p-id="1499"></path><path d="M370.16 740.75c-11.26 0-20.42-10.37-20.42-23.12V496.61c0-12.75 9.16-23.12 20.42-23.12s20.42 10.37 20.42 23.12v221.02c-0.01 12.74-9.16 23.12-20.42 23.12z m0-262.68c-8.73 0-15.83 8.32-15.83 18.54v221.02c0 10.22 7.1 18.54 15.83 18.54 4.15 0 8.08-1.89 11.07-5.33 3.07-3.53 4.76-8.22 4.76-13.21V496.61c0-10.22-7.1-18.54-15.83-18.54z" p-id="1500"></path><path d="M447.73 589.6c-4.71 0-9.24-1.81-12.87-5.26l-77.57-77.57c-7.07-7.07-7.07-18.49 0-25.56s18.49-7.07 25.56 0l77.75 77.57c7.07 7.07 7.07 18.49 0 25.56-3.63 3.62-8.16 5.26-12.87 5.26z" p-id="1501"></path><path d="M447.73 591.89c-5.32 0-10.45-2.09-14.45-5.89l-77.61-77.61c-7.94-7.94-7.94-20.86 0-28.8 7.94-7.94 20.86-7.94 28.8 0l77.75 77.57c3.85 3.85 5.97 8.97 5.97 14.4s-2.12 10.55-5.97 14.4c-3.88 3.88-8.89 5.93-14.49 5.93z m-77.66-113.67c-4.04 0-8.08 1.54-11.16 4.61-6.15 6.15-6.15 16.16 0 22.31l77.57 77.57c3.14 2.99 7.05 4.58 11.25 4.58 4.36 0 8.25-1.59 11.25-4.58 2.99-2.99 4.63-6.95 4.63-11.16s-1.64-8.17-4.63-11.16l-77.75-77.57c-3.08-3.06-7.12-4.6-11.16-4.6z" p-id="1502"></path><path d="M292.4 589.6c-4.71 0-9.24-1.81-12.87-5.26-7.07-7.07-7.07-18.49 0-25.56l77.75-77.75c7.07-7.07 18.49-7.07 25.56 0s7.07 18.49 0 25.56l-77.75 77.75c-3.44 3.62-7.97 5.26-12.69 5.26z" p-id="1503"></path><path d="M292.4 591.89c-5.32 0-10.45-2.09-14.45-5.89-3.89-3.89-6.01-9.01-6.01-14.44s2.12-10.55 5.97-14.4l77.75-77.75c3.85-3.85 8.96-5.97 14.4-5.97 5.43 0 10.55 2.12 14.4 5.97 3.85 3.85 5.97 8.97 5.97 14.4s-2.12 10.55-5.97 14.4l-77.75 77.75c-3.67 3.86-8.63 5.93-14.31 5.93z m77.67-113.87c-4.21 0-8.17 1.64-11.16 4.63l-77.75 77.75a15.674 15.674 0 0 0-4.63 11.16c0 4.21 1.64 8.17 4.63 11.16 3.14 2.99 7.05 4.58 11.25 4.58 4.39 0 8.2-1.57 11.03-4.54l77.79-77.8c2.99-2.99 4.63-6.95 4.63-11.16s-1.64-8.17-4.63-11.16c-2.99-2.97-6.96-4.62-11.16-4.62z" p-id="1504"></path><path d="M888.7 354.68l-0.07-4.51c-2.44-82.68-70.17-148.44-152.88-148.44H511.76a100.496 100.496 0 0 0-76.21-34.96h-147.3c-84.47 0-152.95 68.48-152.95 152.95v384.57c0 84.47 68.48 152.95 152.95 152.95h447.5c84.47 0 152.95-68.48 152.95-152.95V372.94c0-1.22-0.07-2.41-0.21-3.58h0.21v-14.68zM735.75 262.9l3.78 0.07c44.45 1.83 81.19 35.28 87.17 79.36l-230.27 0.02-2.92-0.1a39.343 39.343 0 0 1-34.16-26.15l-18.77-53.19h195.17z m91.77 441.38c0 50.69-41.08 91.77-91.77 91.77h-447.5c-50.69 0-91.77-41.08-91.77-91.77V319.72c0-50.68 41.09-91.77 91.77-91.77h147.29a39.32 39.32 0 0 1 37.09 26.24l29.02 82.28 1.5 3.97c15.29 38.11 52.22 63.08 93.28 63.09h231.09v300.75z" p-id="1505"></path></svg>