<svg t="1688621901278" class="icon" viewBox="0 0 1024 1024" version="1.1" xmlns="http://www.w3.org/2000/svg" p-id="2988" width="200" height="200"><path d="M640 528h-88v-88c0-22.092-17.908-40-40-40s-40 17.908-40 40v88h-88c-22.092 0-40 17.908-40 40 0 22.091 17.908 40 40 40h88v88c0 22.091 17.908 40 40 40s40-17.909 40-40v-88h88c22.092 0 40-17.909 40-40 0-22.092-17.908-40-40-40z" p-id="2989"></path><path d="M768 208H595.349a223.478 223.478 0 0 1-147.964-56 223.473 223.473 0 0 0-147.964-56H256C149.961 96 64 181.961 64 288v448c0 106.038 85.961 192 192 192h512c106.039 0 192-85.962 192-192V400c0-106.039-85.961-192-192-192z m112 528c0 61.757-50.243 112-112 112H256c-61.757 0-112-50.243-112-112V288c0-61.758 50.243-112 112-112h43.421a143.372 143.372 0 0 1 94.995 35.953A303.263 303.263 0 0 0 595.349 288H768c61.757 0 112 50.242 112 112v336z" p-id="2990"></path></svg>