<svg width="22" height="22" viewBox="0 0 22 22" fill="none" xmlns="http://www.w3.org/2000/svg">
<path d="M21.8737 12.3784L19.1075 17.1204C18.8923 17.4895 18.584 17.7956 18.2136 18.0084C17.8431 18.2212 17.4233 18.3332 16.9961 18.3332H1.71971C1.01223 18.3332 0.571427 17.5657 0.927896 16.9546L3.69409 12.2126C3.90936 11.8436 4.2176 11.5374 4.58807 11.3246C4.95855 11.1118 5.37832 10.9998 5.80556 10.9998H21.082C21.7894 10.9998 22.2302 11.7673 21.8737 12.3784ZM5.80556 9.77761H18.3333V7.94428C18.3333 6.93175 17.5125 6.11095 16.5 6.11095H10.3889L7.94445 3.6665H1.83333C0.820799 3.6665 0 4.4873 0 5.49984V16.1196L2.63836 11.5967C3.2929 10.4747 4.50652 9.77761 5.80556 9.77761Z" fill="currentColor"/>
</svg>
