<svg xmlns="http://www.w3.org/2000/svg" xmlns:xlink="http://www.w3.org/1999/xlink" fill="none" version="1.1"  viewBox="0 0 31.99998664855957 32"><defs><clipPath id="master_svg0_171_60759"><rect x="31.99998664855957" y="0" width="32" height="31.99998664855957" rx="0"/></clipPath></defs><g transform="matrix(0,1,-1,0,31.99998664855957,-31.99998664855957)" clip-path="url(#master_svg0_171_60759)"><g><g><path d="M59.99998664855957,0L51.99998664855957,0L51.99998664855957,4L57.99998664855957,4C59.104986648559574,4,59.99998664855957,4.896,59.99998664855957,6L59.99998664855957,12L63.99998664855957,12L63.99998664855957,4C63.99998664855957,1.79101,62.20898664855957,0,59.99998664855957,0Z" fill="currentColor" fill-opacity="1"/></g><g style="opacity:0.5;"><path d="M31.99998664855957,19.891815185546875L31.99998664855957,27.891815185546875C31.99998664855957,30.100815185546875,33.79099664855957,31.891815185546875,35.99998664855957,31.891815185546875L43.99998664855957,31.891815185546875L43.99998664855957,27.891815185546875L37.99998664855957,27.891815185546875C36.89499664855957,27.891815185546875,35.99998664855957,26.996815185546875,35.99998664855957,25.891815185546875L35.99998664855957,19.891815185546875L31.99998664855957,19.891815185546875Z" fill="currentColor" fill-opacity="1"/></g><g style="opacity:0.5;"><path d="M51.99998664855957,31.891815185546875L59.99998664855957,31.891815185546875C62.20898664855957,31.891815185546875,63.99998664855957,30.100815185546875,63.99998664855957,27.891815185546875L63.99998664855957,19.891815185546875L59.99998664855957,19.891815185546875L59.99998664855957,25.891815185546875C59.99998664855957,26.996815185546875,59.104986648559574,27.891815185546875,57.99998664855957,27.891815185546875L51.99998664855957,27.891815185546875L51.99998664855957,31.891815185546875Z" fill="currentColor" fill-opacity="1"/></g><g transform="matrix(-1,0,0,-1,87.99997329711914,24)" style="opacity:0.5;"><path d="M43.99998664855957,24L51.99998664855957,24C54.20898664855957,24,55.99998664855957,22.209,55.99998664855957,20L55.99998664855957,12L51.99998664855957,12L51.99998664855957,18C51.99998664855957,19.105,51.104986648559574,20,49.99998664855957,20L43.99998664855957,20L43.99998664855957,24Z" fill="currentColor" fill-opacity="1"/></g></g></g></svg>
