<svg xmlns="http://www.w3.org/2000/svg" xmlns:xlink="http://www.w3.org/1999/xlink" fill="none" version="1.1"  viewBox="0 0 32 31.99998664855957"><defs><clipPath id="master_svg0_171_60777"><rect x="0" y="0" width="32" height="31.99998664855957" rx="0"/></clipPath></defs><g clip-path="url(#master_svg0_171_60777)"><g><g><path d="M28,0L20,0L20,4L26,4C27.105,4,28,4.896,28,6L28,12L32,12L32,4C32,1.79101,30.209,0,28,0Z" fill="currentColor" fill-opacity="1"/></g><g style="opacity:0.5;"><path d="M0,19.8922119140625L0,27.8922119140625C0,30.1012119140625,1.79101,31.8922119140625,4,31.8922119140625L12,31.8922119140625L12,27.8922119140625L6,27.8922119140625C4.89501,27.8922119140625,4,26.9972119140625,4,25.8922119140625L4,19.8922119140625L0,19.8922119140625Z" fill="currentColor" fill-opacity="1"/></g><g style="opacity:0.5;"><path d="M20,31.8922119140625L28,31.8922119140625C30.209,31.8922119140625,32,30.1012119140625,32,27.8922119140625L32,19.8922119140625L28,19.8922119140625L28,25.8922119140625C28,26.9972119140625,27.105,27.8922119140625,26,27.8922119140625L20,27.8922119140625L20,31.8922119140625Z" fill="currentColor" fill-opacity="1"/></g><g transform="matrix(-1,0,0,-1,24,24)" style="opacity:0.5;"><path d="M12,24L20,24C22.209,24,24,22.209,24,20L24,12L20,12L20,18C20,19.105,19.105,20,18,20L12,20L12,24Z" fill="currentColor" fill-opacity="1"/></g></g></g></svg>
