<svg xmlns="http://www.w3.org/2000/svg" xmlns:xlink="http://www.w3.org/1999/xlink" fill="none" version="1.1"  viewBox="0 0 32 31.99998664855957"><defs><clipPath id="master_svg0_171_60793"><rect x="32" y="31.99998664855957" width="32" height="31.99998664855957" rx="0"/></clipPath></defs><g transform="matrix(-1,0,0,-1,64,63.99997329711914)" clip-path="url(#master_svg0_171_60793)"><g><g style="opacity:0.5;"><path d="M60,31.99998664855957L52,31.99998664855957L52,35.99998664855957L58,35.99998664855957C59.105000000000004,35.99998664855957,60,36.89598664855957,60,37.99998664855957L60,43.99998664855957L64,43.99998664855957L64,35.99998664855957C64,33.79099664855957,62.209,31.99998664855957,60,31.99998664855957Z" fill="currentColor" fill-opacity="1"/></g><g style="opacity:0.5;"><path d="M32,51.89219856262207L32,59.89219856262207C32,62.10119856262207,33.79101,63.89219856262207,36,63.89219856262207L44,63.89219856262207L44,59.89219856262207L38,59.89219856262207C36.89501,59.89219856262207,36,58.997198562622074,36,57.89219856262207L36,51.89219856262207L32,51.89219856262207Z" fill="currentColor" fill-opacity="1"/></g><g style="opacity:0.5;"><path d="M52,63.89219856262207L60,63.89219856262207C62.209,63.89219856262207,64,62.10119856262207,64,59.89219856262207L64,51.89219856262207L60,51.89219856262207L60,57.89219856262207C60,58.997198562622074,59.105000000000004,59.89219856262207,58,59.89219856262207L52,59.89219856262207L52,63.89219856262207Z" fill="currentColor" fill-opacity="1"/></g><g transform="matrix(-1,0,0,-1,88,87.99997329711914)" style="opacity:0.5;"><path d="M44,55.99998664855957L52,55.99998664855957C54.209,55.99998664855957,56,54.20898664855957,56,51.99998664855957L56,43.99998664855957L52,43.99998664855957L52,49.99998664855957C52,51.104986648559574,51.105000000000004,51.99998664855957,50,51.99998664855957L44,51.99998664855957L44,55.99998664855957Z" fill="currentColor" fill-opacity="1"/></g></g><g style="mix-blend-mode:passthrough" transform="matrix(-1,0,0,-1,108,107.99997329711914)"><ellipse cx="60" cy="59.99998664855957" rx="6" ry="6" fill="currentColor" fill-opacity="1"/></g></g></svg>
