<svg xmlns="http://www.w3.org/2000/svg" xmlns:xlink="http://www.w3.org/1999/xlink" fill="none" version="1.1"  viewBox="0 0 31.99998664855957 32"><defs><clipPath id="master_svg0_171_60771"><rect x="0" y="32" width="32" height="31.99998664855957" rx="0"/></clipPath></defs><g transform="matrix(0,-1,1,0,-32,32)" clip-path="url(#master_svg0_171_60771)"><g><g><path d="M28,32L20,32L20,36L26,36C27.105,36,28,36.896,28,38L28,44L32,44L32,36C32,33.79101,30.209,32,28,32Z" fill="currentColor" fill-opacity="1"/></g><g style="opacity:0.5;"><path d="M0,51.891815185546875L0,59.891815185546875C0,62.10081518554688,1.79101,63.891815185546875,4,63.891815185546875L12,63.891815185546875L12,59.891815185546875L6,59.891815185546875C4.89501,59.891815185546875,4,58.99681518554688,4,57.891815185546875L4,51.891815185546875L0,51.891815185546875Z" fill="currentColor" fill-opacity="1"/></g><g style="opacity:0.5;"><path d="M20,63.891815185546875L28,63.891815185546875C30.209,63.891815185546875,32,62.10081518554688,32,59.891815185546875L32,51.891815185546875L28,51.891815185546875L28,57.891815185546875C28,58.99681518554688,27.105,59.891815185546875,26,59.891815185546875L20,59.891815185546875L20,63.891815185546875Z" fill="currentColor" fill-opacity="1"/></g><g transform="matrix(-1,0,0,-1,24,88)" style="opacity:0.5;"><path d="M12,56L20,56C22.209,56,24,54.209,24,52L24,44L20,44L20,50C20,51.105000000000004,19.105,52,18,52L12,52L12,56Z" fill="currentColor" fill-opacity="1"/></g></g></g></svg>
