<svg t="1683508637694" class="icon" viewBox="0 0 1024 1024" version="1.1" xmlns="http://www.w3.org/2000/svg" p-id="21526" width="200" height="200"><path d="M886.613333 841.386667l-144-144c-0.533333-0.533333-1.066667-0.96-1.6-1.493334C797.76 629.013333 832 542.4 832 448c0-211.733333-172.266667-384-384-384S64 236.266667 64 448s172.266667 384 384 384c94.4 0 181.013333-34.24 247.893333-90.986667 0.426667 0.533333 0.96 1.066667 1.493334 1.6l144 144c6.293333 6.293333 14.4 9.386667 22.613333 9.386667s16.426667-3.093333 22.613333-9.386667c12.48-12.48 12.48-32.746667 0-45.226666zM448 768c-176.426667 0-320-143.573333-320-320s143.573333-320 320-320 320 143.573333 320 320-143.573333 320-320 320z" p-id="21527"></path><path d="M608 320H288c-17.706667 0-32 14.293333-32 32s14.293333 32 32 32h320c17.706667 0 32-14.293333 32-32s-14.293333-32-32-32zM608 512H288c-17.706667 0-32 14.293333-32 32s14.293333 32 32 32h320c17.706667 0 32-14.293333 32-32s-14.293333-32-32-32z" p-id="21528"></path></svg>