<svg width="12" height="12" viewBox="0 0 12 12" fill="none" xmlns="http://www.w3.org/2000/svg">
<g clip-path="url(#clip0_445_5526)">
<path d="M8.3875 2.4002L10.2667 4.27936C10.3458 4.35853 10.3458 4.48769 10.2667 4.56686L5.71667 9.11686L3.78333 9.33144C3.525 9.36061 3.30625 9.14186 3.33542 8.88353L3.55 6.95019L8.1 2.4002C8.17917 2.32103 8.30833 2.32103 8.3875 2.4002ZM11.7625 1.92311L10.7458 0.906445C10.4292 0.589779 9.91458 0.589779 9.59583 0.906445L8.85833 1.64395C8.77917 1.72311 8.77917 1.85228 8.85833 1.93145L10.7375 3.81061C10.8167 3.88978 10.9458 3.88978 11.025 3.81061L11.7625 3.07311C12.0792 2.75436 12.0792 2.23978 11.7625 1.92311ZM8 7.87936V10.0002H1.33333V3.33353H6.12083C6.1875 3.33353 6.25 3.30645 6.29792 3.26061L7.13125 2.42728C7.28958 2.26895 7.17708 2.0002 6.95417 2.0002H1C0.447917 2.0002 0 2.44811 0 3.0002V10.3335C0 10.8856 0.447917 11.3335 1 11.3335H8.33333C8.88542 11.3335 9.33333 10.8856 9.33333 10.3335V7.04603C9.33333 6.82311 9.06458 6.7127 8.90625 6.86895L8.07292 7.70228C8.02708 7.7502 8 7.8127 8 7.87936Z" fill="currentColor"/>
</g>
<defs>
<clipPath id="clip0_445_5526">
<rect width="12" height="12" fill="currentColor"/>
</clipPath>
</defs>
</svg>
