<svg xmlns="http://www.w3.org/2000/svg" xmlns:xlink="http://www.w3.org/1999/xlink" version="1.1" width="16" height="16" viewBox="0 0 16 16"><defs><clipPath id="master_svg0_832_91036"><rect x="0" y="0" width="16" height="16" rx="0"/></clipPath></defs><g clip-path="url(#master_svg0_832_91036)"><rect x="0" y="0" width="16" height="16" rx="0" fill-opacity="0"/><g><path d="M15.903315495252228,7.594446984558106C14.396915495252228,4.655276984558105,11.414715495252228,2.6666669845581055,7.999995495252228,2.6666669845581055C4.585275495252228,2.6666669845581055,1.602225495252228,4.656666984558106,0.096666995252228,7.594726984558106C0.033123095252227994,7.720416984558105,0.000015495252227943406,7.859296984558106,0.00001549525222799275,8.000136984558106C0.000015495252227733698,8.140986984558104,0.033123095252227994,8.279856984558105,0.096666995252228,8.405556984558105C1.603055495252228,11.344726984558106,4.585275495252228,13.333366984558106,7.999995495252228,13.333366984558106C11.414715495252228,13.333366984558106,14.397815495252228,11.343336984558105,15.903315495252228,8.405276984558107C15.966915495252229,8.279576984558105,16.000015495252228,8.140706984558104,16.000015495252228,7.999856984558106C16.000015495252228,7.859016984558106,15.966915495252229,7.720136984558105,15.903315495252228,7.594446984558106C15.903315495252228,7.594446984558106,15.903315495252228,7.594446984558106,15.903315495252228,7.594446984558106ZM7.999995495252228,11.999996984558106C7.208875495252228,11.999996984558106,6.435515495252228,11.765406984558105,5.777715495252228,11.325876984558105C5.119925495252228,10.886356984558105,4.607235495252228,10.261636984558105,4.304485495252228,9.530736984558105C4.001735495252228,8.799826984558106,3.922515495252228,7.995566984558105,4.076855495252228,7.219636984558106C4.231195495252228,6.4437169845581055,4.612165495252228,5.730986984558106,5.171575495252228,5.171576984558106C5.730985495252228,4.6121669845581055,6.443715495252228,4.231196984558105,7.219635495252228,4.0768569845581055C7.995565495252228,3.922516984558105,8.799825495252229,4.001726984558106,9.530735495252229,4.304486984558105C10.261615495252228,4.607236984558106,10.886315495252228,5.119926984558106,11.325915495252229,5.777716984558106C11.765415495252228,6.435516984558106,12.000015495252228,7.208876984558105,12.000015495252228,7.999996984558106C12.000215495252228,8.525356984558105,11.897015495252228,9.045616984558105,11.696015495252228,9.531036984558106C11.495115495252229,10.016456984558104,11.200515495252228,10.457516984558104,10.829015495252229,10.828996984558106C10.457515495252228,11.200486984558106,10.016415495252229,11.495106984558106,9.531035495252228,11.696036984558106C9.045615495252228,11.896966984558105,8.525355495252228,12.000256984558105,7.999995495252228,11.999996984558106C7.999995495252228,11.999996984558106,7.999995495252228,11.999996984558106,7.999995495252228,11.999996984558106ZM7.999995495252228,5.333336984558105C7.761985495252228,5.336656984558106,7.525495495252228,5.3720669845581055,7.296945495252228,5.438606984558105C7.485335495252228,5.694626984558106,7.575745495252228,6.009686984558106,7.551765495252228,6.3266469845581055C7.527785495252228,6.643616984558106,7.391015495252228,6.9414869845581055,7.166245495252228,7.166246984558105C6.941485495252228,7.391016984558106,6.643615495252228,7.527786984558105,6.326655495252228,7.551766984558106C6.009695495252228,7.575746984558106,5.694635495252228,7.4853369845581055,5.438615495252228,7.296946984558105C5.292825495252228,7.834056984558106,5.319145495252228,8.403356984558105,5.513855495252228,8.924726984558106C5.708575495252228,9.446086984558105,6.061885495252228,9.893266984558107,6.524055495252228,10.203326984558107C6.986235495252228,10.513376984558105,7.534005495252228,10.670686984558106,8.090265495252227,10.653106984558105C8.646535495252229,10.635536984558104,9.183285495252228,10.443966984558106,9.624965495252228,10.105366984558106C10.066615495252227,9.766756984558105,10.391015495252228,9.298166984558105,10.552415495252228,8.765556984558106C10.713915495252229,8.232936984558105,10.704215495252228,7.663106984558105,10.524815495252229,7.136266984558105C10.345415495252228,6.609436984558105,10.005315495252228,6.152126984558105,9.552395495252227,5.828696984558105C9.099475495252229,5.5052769845581055,8.556535495252229,5.332026984558105,7.999995495252228,5.333336984558105C7.999995495252228,5.333336984558105,7.999995495252228,5.333336984558105,7.999995495252228,5.333336984558105Z" fill-opacity="1"/></g></g></svg>