<svg xmlns="http://www.w3.org/2000/svg" xmlns:xlink="http://www.w3.org/1999/xlink" fill="none" version="1.1" width="24.000003814697266" height="24" viewBox="0 0 24.000003814697266 24"><defs><clipPath id="master_svg0_138_56466"><rect x="0" y="0" width="24.000003814697266" height="24" rx="0"/></clipPath></defs><g clip-path="url(#master_svg0_138_56466)"><g><path d="M21.2499,21L2.75006,21C1.23303,21,0,19.767,0,18.2499L0,5.7500599999999995C0,4.23303,1.23303,3,2.75006,3L21.2499,3C22.767,3,24,4.23303,24,5.7500599999999995L24,18.2499C24,19.767,22.767,21,21.2499,21ZM2.75006,4.5C2.06104,4.5,1.5,5.06104,1.5,5.7500599999999995L1.5,18.2499C1.5,18.939,2.06104,19.5,2.75006,19.5L21.2499,19.5C21.939,19.5,22.5,18.939,22.5,18.2499L22.5,5.7500599999999995C22.5,5.06104,21.939,4.5,21.2499,4.5L2.75006,4.5Z" fill="currentColor" fill-opacity="1"/></g><g><path d="M5.0000599999999995,9.99994C3.897034,9.99994,3,9.10309,3,8.00006C3,6.897034,3.897034,6,5.0000599999999995,6C6.10309,6,6.9999400000000005,6.897034,6.9999400000000005,8.00006C6.9999400000000005,9.10309,6.10309,9.99994,5.0000599999999995,9.99994ZM5.0000599999999995,7.5C4.72394,7.5,4.5,7.72394,4.5,8.00006C4.5,8.276,4.72394,8.49994,5.0000599999999995,8.49994C5.276,8.49994,5.4999400000000005,8.276,5.4999400000000005,8.00006C5.4999400000000005,7.72394,5.276,7.5,5.0000599999999995,7.5Z" fill="currentColor" fill-opacity="1"/></g><g><path d="M0.750061140625,19.000015625C0.557983140625,19.000015625,0.366089140625,18.927115625,0.219971140625,18.780115625C-0.072998059375,18.487115625,-0.072998059375,18.012145625000002,0.219971140625,17.718995624999998L5.760014140625,12.179135625C6.444094140625,11.495055624999999,7.557004140625,11.495055624999999,8.239994140625,12.179135625L9.500124140625,13.439085625L14.260144140625,8.679077625C14.944044140625,7.994995625,16.057144140625,7.994995625,16.740144140625,8.679077625L23.780144140625,15.719115625C24.073144140625,16.012085625,24.073144140625,16.487055625,23.780144140625,16.780025625C23.487044140625,17.072995625,23.012044140625,17.072995625,22.719044140625,16.780025625L15.679044140625,9.739985625C15.581044140625,9.642025625,15.416944140625,9.642025625,15.320144140625,9.739985625L10.030044140625,15.030085625C9.737064140625,15.323055625,9.262084140625,15.323055625,8.969114140625,15.030085625L7.179074140625,13.240055625C7.052004140625,13.112975625,6.947084140625,13.112975625,6.820004140625,13.240055625L1.280154140625,18.780115625C1.134034140625,18.927115625,0.942138140625,19.000015625,0.750061140625,19.000015625Z" fill="currentColor" fill-opacity="1"/></g></g></svg>