<svg xmlns="http://www.w3.org/2000/svg" xmlns:xlink="http://www.w3.org/1999/xlink" fill="none" version="1.1" width="16" height="16" viewBox="0 0 16 16"><defs><clipPath id="master_svg0_166_60999"><rect x="0" y="0" width="16" height="16" rx="0"/></clipPath></defs><g clip-path="url(#master_svg0_166_60999)"><g><g><path d="M14.5,12L13,12L13,10.5C13,10.223858,12.77614,10,12.5,10C12.22386,10,12,10.223858,12,10.5L12,12L10.5,12C10.223858,12,10,12.22386,10,12.5C10,12.77614,10.223858,13,10.5,13L12,13L12,14.5C12,14.77614,12.22386,15,12.5,15C12.77614,15,13,14.77614,13,14.5L13,13L14.5,13C14.77614,13,15,12.77614,15,12.5C15,12.22386,14.77614,12,14.5,12Z" fill="currentColor" fill-opacity="1"/></g><g><path d="M8.5,12L2.5,12C2.22386,12,2,11.7761,2,11.5L2,2.5C2,2.22386,2.22386,2,2.5,2L11.5,2C11.7761,2,12,2.22386,12,2.5L12,8.5C12,8.77614,12.2239,9,12.5,9C12.7761,9,13,8.77614,13,8.5L13,2.5C13,1.671573,12.3284,1,11.5,1L2.5,1C1.671573,1,1,1.671573,1,2.5L1,11.5C1,12.3284,1.671573,13,2.5,13L8.5,13C8.77614,13,9,12.7761,9,12.5C9,12.2239,8.77614,12,8.5,12Z" fill="currentColor" fill-opacity="1"/></g><g><ellipse cx="5.5" cy="4.25" rx="1.25" ry="1.25" fill="currentColor" fill-opacity="1"/></g><g><path d="M3.645,7.145000830078125L3,7.795000830078125L3,11.000000830078125L11,11.000000830078125L11,7.795000830078125L8.855,5.644999830078125C8.659410000000001,5.447801130078125,8.340589999999999,5.447801130078125,8.145,5.644999830078125L5.5,8.295000830078125L4.355,7.145000830078125C4.15941,6.947800830078125,3.840588,6.947800830078125,3.645,7.145000830078125Z" fill="currentColor" fill-opacity="1"/></g></g></g></svg>
