<svg xmlns="http://www.w3.org/2000/svg" xmlns:xlink="http://www.w3.org/1999/xlink" fill="none" version="1.1" width="16" height="15.818183898925781" viewBox="0 0 16 15.818183898925781"><defs><clipPath id="master_svg0_166_61005"><rect x="0" y="0" width="16" height="15.818183898925781" rx="0"/></clipPath></defs><g clip-path="url(#master_svg0_166_61005)"><g><g><path d="M4.2203521728515625,6.090201555175781L5.1578521728515625,6.090201555175781L5.1578521728515625,5.313879555175781L7.531292172851563,5.313879555175781L7.531292172851563,10.592251555175782L6.718912172851562,10.592251555175782L6.718912172851562,11.51909155517578L9.281162172851563,11.51909155517578L9.281162172851563,10.592251555175782L8.468792172851563,10.592251555175782L8.468792172851563,5.313879555175781L10.842222172851564,5.313879555175781L10.842222172851564,6.090201555175781L11.779722172851564,6.090201555175781L11.779722172851564,4.387031555175781L4.220352649688563,4.387031555175781L4.2203521728515625,6.090201555175781Z" fill="currentColor" fill-opacity="1"/></g><g><path d="M14.8828,12.389L14.8828,3.42918C15.5377,3.16209,16,2.52436,16,1.78161C16,0.79922,15.1916,-1.17855e-7,14.1979,-1.17855e-7C13.4466,-1.17855e-7,12.8016,0.457028,12.5314,1.10449L3.46859,1.10449C3.19844,0.457028,2.55337,-1.17855e-7,1.80209,-1.17855e-7C0.808406,-1.17855e-7,-1.19209e-7,0.79922,-1.19209e-7,1.78161C-1.19209e-7,2.52436,0.462281,3.16212,1.11719,3.42921L1.11719,12.389C0.462281,12.6561,-1.19209e-7,13.2938,-1.19209e-7,14.0366C-1.19209e-7,15.019,0.808406,15.8182,1.80209,15.8182C2.55337,15.8182,3.19844,15.3612,3.46859,14.7137L12.5314,14.7137C12.8016,15.3612,13.4466,15.8182,14.1979,15.8182C15.1916,15.8182,16,15.019,16,14.0366C16,13.2938,15.5377,12.6561,14.8828,12.389ZM12.4139,13.7868L3.58609,13.7868C3.47447,13.004,2.84653,12.3832,2.05469,12.2729L2.05469,3.54534C2.84653,3.43502,3.47447,2.81419,3.58609,2.03134L12.4139,2.03134C12.5255,2.81422,13.1535,3.43502,13.9453,3.54534L13.9453,12.2728C13.1535,12.3832,12.5255,13.004,12.4139,13.7868ZM14.1979,0.926847C14.6747,0.926847,15.0625,1.31028,15.0625,1.78161C15.0625,2.25295,14.6747,2.63639,14.1979,2.63639C13.7212,2.63639,13.3333,2.25295,13.3333,1.78161C13.3333,1.31028,13.7212,0.926847,14.1979,0.926847ZM1.80209,0.926847C2.27881,0.926847,2.66666,1.31028,2.66666,1.78161C2.66666,2.25295,2.27881,2.63639,1.80209,2.63639C1.32534,2.63635,0.937501,2.25292,0.937501,1.78161C0.937501,1.31028,1.32534,0.926847,1.80209,0.926847ZM1.80209,14.8913C1.32534,14.8913,0.937501,14.5079,0.937501,14.0366C0.937501,13.5652,1.32534,13.1818,1.80209,13.1818C2.27881,13.1818,2.66666,13.5652,2.66666,14.0366C2.66666,14.5079,2.27881,14.8913,1.80209,14.8913ZM14.1979,14.8913C13.7212,14.8913,13.3333,14.5079,13.3333,14.0366C13.3333,13.5652,13.7212,13.1818,14.1979,13.1818C14.6747,13.1818,15.0625,13.5652,15.0625,14.0366C15.0625,14.5079,14.6747,14.8913,14.1979,14.8913Z" fill="currentColor" fill-opacity="1"/></g></g></g></svg>
