<svg xmlns="http://www.w3.org/2000/svg" xmlns:xlink="http://www.w3.org/1999/xlink" version="1.1" width="17.999980926513672" height="15.188535690307617" viewBox="0 0 17.999980926513672 15.188535690307617"><g><path d="M4.90815,0.124083C4.86895,0.0847527,4.82238,0.0535465,4.7711,0.0322536C4.71982,0.0109607,4.66484,1.249e-16,4.60932,0C4.55379,1.249e-16,4.49881,0.0109607,4.44753,0.0322536C4.39626,0.0535465,4.34968,0.0847527,4.31049,0.124083C4.31049,0.124083,2.07174,2.34983,2.07174,2.34983C2.07174,2.34983,1.27369,1.57217,1.27369,1.57217C1.2345,1.53284,1.18793,1.50163,1.13665,1.48034C1.08537,1.45905,1.03039,1.44809,0.974864,1.44809C0.919339,1.44809,0.864361,1.45905,0.813081,1.48034C0.761801,1.50163,0.715229,1.53284,0.676036,1.57217C0.676036,1.57217,0.124083,2.12483,0.124083,2.12483C0.0847527,2.16402,0.0535465,2.21059,0.0322536,2.26187C0.0109607,2.31315,1.26852e-17,2.36813,0,2.42365C6.04985e-17,2.47918,0.0109607,2.53416,0.0322536,2.58544C0.0535465,2.63672,0.0847527,2.68329,0.124083,2.72248C0.124083,2.72248,1.79717,4.38889,1.79717,4.38889C1.88068,4.46827,1.9915,4.51254,2.10672,4.51254C2.22194,4.51254,2.33276,4.46827,2.41627,4.38889C2.41627,4.38889,2.96436,3.83975,2.96436,3.83975C2.96436,3.83975,5.50264,1.30182,5.50264,1.30182C5.58172,1.22267,5.62641,1.11553,5.627,1.00364C5.6276,0.891751,5.58405,0.784143,5.5058,0.704161C5.5058,0.704161,4.90815,0.124083,4.90815,0.124083ZM4.90815,5.72061C4.86895,5.68128,4.82238,5.65007,4.7711,5.62878C4.71982,5.60748,4.66484,5.59652,4.60932,5.59652C4.55379,5.59652,4.49881,5.60748,4.44753,5.62878C4.39626,5.65007,4.34968,5.68128,4.31049,5.72061C4.31049,5.72061,2.07174,7.96076,2.07174,7.96076C2.07174,7.96076,1.27369,7.18381,1.27369,7.18381C1.2345,7.14448,1.18793,7.11327,1.13665,7.09198C1.08537,7.07069,1.03039,7.05973,0.974864,7.05973C0.919339,7.05973,0.864361,7.07069,0.813081,7.09198C0.761801,7.11327,0.715229,7.14448,0.676036,7.18381C0.676036,7.18381,0.124083,7.73541,0.124083,7.73541C0.0847527,7.7746,0.0535465,7.82118,0.0322536,7.87246C0.0109607,7.92374,-3.70797e-17,7.97871,0,8.03424C-2.73219e-17,8.08976,0.0109607,8.14474,0.0322536,8.19602C0.0535465,8.2473,0.0847527,8.29387,0.124083,8.33307C0.124083,8.33307,1.79295,10.003,1.79295,10.003C1.8764,10.0823,1.98716,10.1266,2.10232,10.1266C2.21749,10.1266,2.32825,10.0823,2.4117,10.003C2.4117,10.003,2.96365,9.45139,2.96365,9.45139C2.96365,9.45139,5.50194,6.9124,5.50194,6.9124C5.58072,6.83381,5.62526,6.72727,5.62585,6.61598C5.62644,6.5047,5.58304,6.39769,5.5051,6.31826C5.5051,6.31826,4.90815,5.72061,4.90815,5.72061ZM2.24998,11.8135C1.31869,11.8135,0.541739,12.5694,0.541739,13.501C0.541739,14.4327,1.3194,15.1885,2.24998,15.1885C2.69753,15.1885,3.12676,15.0107,3.44322,14.6943C3.75969,14.3778,3.93748,13.9486,3.93748,13.501C3.93748,13.0535,3.75969,12.6243,3.44322,12.3078C3.12676,11.9913,2.69753,11.8135,2.24998,11.8135ZM17.4375,12.376C17.4375,12.376,7.31248,12.376,7.31248,12.376C7.1633,12.376,7.02022,12.4353,6.91473,12.5408C6.80925,12.6463,6.74998,12.7894,6.74998,12.9385C6.74998,12.9385,6.74998,14.0635,6.74998,14.0635C6.74998,14.2127,6.80925,14.3558,6.91473,14.4613C7.02022,14.5668,7.1633,14.626,7.31248,14.626C7.31248,14.626,17.4375,14.626,17.4375,14.626C17.5867,14.626,17.7297,14.5668,17.8352,14.4613C17.9407,14.3558,18,14.2127,18,14.0635C18,14.0635,18,12.9385,18,12.9385C18,12.7894,17.9407,12.6463,17.8352,12.5408C17.7297,12.4353,17.5867,12.376,17.4375,12.376ZM17.4375,1.12604C17.4375,1.12604,7.31248,1.12604,7.31248,1.12604C7.1633,1.12604,7.02022,1.1853,6.91473,1.29079C6.80925,1.39628,6.74998,1.53935,6.74998,1.68854C6.74998,1.68854,6.74998,2.81354,6.74998,2.81354C6.74998,2.96272,6.80925,3.10579,6.91473,3.21128C7.02022,3.31677,7.1633,3.37604,7.31248,3.37604C7.31248,3.37604,17.4375,3.37604,17.4375,3.37604C17.5867,3.37604,17.7297,3.31677,17.8352,3.21128C17.9407,3.10579,18,2.96272,18,2.81354C18,2.81354,18,1.68854,18,1.68854C18,1.53935,17.9407,1.39628,17.8352,1.29079C17.7297,1.1853,17.5867,1.12604,17.4375,1.12604C17.4375,1.12604,17.4375,1.12604,17.4375,1.12604ZM17.4375,6.75104C17.4375,6.75104,7.31248,6.75104,7.31248,6.75104C7.1633,6.75104,7.02022,6.8103,6.91473,6.91579C6.80925,7.02128,6.74998,7.16435,6.74998,7.31354C6.74998,7.31354,6.74998,8.43854,6.74998,8.43854C6.74998,8.58772,6.80925,8.73079,6.91473,8.83628C7.02022,8.94177,7.1633,9.00104,7.31248,9.00104C7.31248,9.00104,17.4375,9.00104,17.4375,9.00104C17.5867,9.00104,17.7297,8.94177,17.8352,8.83628C17.9407,8.73079,18,8.58772,18,8.43854C18,8.43854,18,7.31354,18,7.31354C18,7.16435,17.9407,7.02128,17.8352,6.91579C17.7297,6.8103,17.5867,6.75104,17.4375,6.75104Z" /></g></svg>