<svg xmlns="http://www.w3.org/2000/svg" xmlns:xlink="http://www.w3.org/1999/xlink" version="1.1" width="24" height="24" viewBox="0 0 24 24"><g><path d="M21.5478,13.6986C21.7645,12.5742,21.7645,11.4258,21.5478,10.3014C21.5478,10.3014,23.6974,9.11315,23.6974,9.11315C23.9473,8.97758,24.0556,8.69846,23.9723,8.4353C23.4141,6.71276,22.456,5.14971,21.2063,3.8578C21.0146,3.65844,20.7064,3.61059,20.4564,3.74616C20.4564,3.74616,18.3069,4.93439,18.3069,4.93439C17.3988,4.19274,16.3574,3.61856,15.2326,3.23578C15.2326,3.23578,15.2326,0.859308,15.2326,0.859308C15.2326,0.588167,15.0326,0.348925,14.7577,0.293102C12.8998,-0.105635,11.0086,-0.0896852,9.24229,0.293102C8.96735,0.348925,8.7674,0.588167,8.7674,0.859308C8.7674,0.859308,8.7674,3.23578,8.7674,3.23578C7.64265,3.61856,6.60122,4.19274,5.69309,4.93439C5.69309,4.93439,3.54358,3.74616,3.54358,3.74616C3.30196,3.61059,2.98537,3.65844,2.79375,3.8578C1.54403,5.14971,0.585912,6.71276,0.0277047,8.4353C-0.0556098,8.69846,0.0610289,8.97758,0.302641,9.11315C0.302641,9.11315,2.45216,10.3014,2.45216,10.3014C2.23554,11.4258,2.23554,12.5742,2.45216,13.6986C2.45216,13.6986,0.302641,14.8869,0.302641,14.8869C0.0526974,15.0224,-0.0556098,15.3015,0.0277047,15.5647C0.585912,17.2872,1.54403,18.8423,2.79375,20.1422C2.98537,20.3416,3.29363,20.3894,3.54358,20.2538C3.54358,20.2538,5.69309,19.0656,5.69309,19.0656C6.60122,19.8073,7.64265,20.3814,8.7674,20.7642C8.7674,20.7642,8.7674,23.1407,8.7674,23.1407C8.7674,23.4118,8.96735,23.6511,9.24229,23.7069C11.1002,24.1056,12.9914,24.0897,14.7577,23.7069C15.0326,23.6511,15.2326,23.4118,15.2326,23.1407C15.2326,23.1407,15.2326,20.7642,15.2326,20.7642C16.3574,20.3814,17.3988,19.8073,18.3069,19.0656C18.3069,19.0656,20.4564,20.2538,20.4564,20.2538C20.698,20.3894,21.0146,20.3416,21.2063,20.1422C22.456,18.8503,23.4141,17.2872,23.9723,15.5647C24.0556,15.3015,23.939,15.0224,23.6974,14.8869C23.6974,14.8869,21.5478,13.6986,21.5478,13.6986ZM12.0083,15.8677C9.7755,15.8677,7.96758,14.1293,7.96758,12C7.96758,9.87075,9.78384,8.13226,12.0083,8.13226C14.2328,8.13226,16.0491,9.87075,16.0491,12C16.0491,14.1293,14.2412,15.8677,12.0083,15.8677Z"/></g></svg>