<svg xmlns="http://www.w3.org/2000/svg" xmlns:xlink="http://www.w3.org/1999/xlink" fill="none" version="1.1" width="24.000003814697266" height="24" viewBox="0 0 24.000003814697266 24"><defs><clipPath id="master_svg0_138_56462"><rect x="0" y="0" width="24.000003814697266" height="24" rx="0"/></clipPath></defs><g clip-path="url(#master_svg0_138_56462)"><g><path d="M8.023412802734375,11.000119999999999C6.918228802734375,11.000119999999999,6.019622802734375,10.10309,6.019622802734375,9.00006C6.019622802734375,7.897034,6.918228802734375,7,8.023412802734375,7C9.128602802734374,7,10.027392802734376,7.897034,10.027392802734376,9.00006C10.027392802734376,10.10309,9.128602802734374,11.000119999999999,8.023412802734375,11.000119999999999ZM8.023412802734375,8.5C7.746932802734375,8.5,7.522562802734375,8.72412,7.522562802734375,9.00006C7.522562802734375,9.276,7.746932802734375,9.500119999999999,8.023412802734375,9.500119999999999C8.300072802734375,9.500119999999999,8.524452802734375,9.276,8.524452802734375,9.00006C8.524452802734375,8.72412,8.300072802734375,8.5,8.023412802734375,8.5Z" fill="currentColor" fill-opacity="1"/></g><g><path d="M3.26416241796875,18.500065624999998C3.07170941796875,18.500065624999998,2.87943941796875,18.427005625,2.73303541796875,18.279965625000003C2.43949291796875,17.986995625,2.43949291796875,17.512025625,2.73303541796875,17.219055625L5.77908841796875,14.178955625C6.46431841796875,13.495055624999999,7.57959841796875,13.495055624999999,8.26391841796875,14.178955625L9.526328417968749,15.439085625L14.29567841796875,10.679077625C14.98107841796875,9.994995625,16.09617841796875,9.994995625,16.78047841796875,10.679077625L21.32947841796875,15.218995625C21.62297841796875,15.511965625,21.62297841796875,15.986935625000001,21.32947841796875,16.280085624999998C21.03597841796875,16.573055625000002,20.55997841796875,16.573055625000002,20.26627841796875,16.280085624999998L15.71747841796875,11.739985625C15.61937841796875,11.642025625,15.45497841796875,11.642025625,15.35777841796875,11.739985625L10.05745841796875,17.030085624999998C9.76391841796875,17.323055625000002,9.28800841796875,17.323055625000002,8.99428841796875,17.030085624999998L7.20092841796875,15.240055625C7.10258841796875,15.142085625,6.93838841796875,15.142085625,6.84115841796875,15.240055625L3.79528841796875,18.279965625000003C3.6488884179687497,18.427005625,3.4566164179687497,18.500065624999998,3.26416241796875,18.500065624999998Z" fill="currentColor" fill-opacity="1"/></g><g><path d="M18.794625830078125,24L5.268165830078125,24C3.748175830078125,24,2.512725830078125,22.767,2.512725830078125,21.2499L2.512725830078125,2.75006C2.512725830078125,1.23303,3.748175830078125,0,5.268165830078125,0L18.794625830078125,0C20.314625830078125,0,21.549825830078124,1.23303,21.549825830078124,2.75006L21.549825830078124,21.2499C21.549825830078124,22.767,20.314625830078125,24,18.794625830078125,24ZM5.268165830078125,1.5C4.577795830078125,1.5,4.015665830078125,2.06104,4.015665830078125,2.75006L4.015665830078125,21.2499C4.015665830078125,21.939,4.577795830078125,22.5,5.268165830078125,22.5L18.794625830078125,22.5C19.484925830078126,22.5,20.046925830078123,21.939,20.046925830078123,21.2499L20.046925830078123,2.75006C20.046925830078123,2.06104,19.484925830078126,1.5,18.794625830078125,1.5L5.268165830078125,1.5Z" fill="currentColor" fill-opacity="1"/></g></g></svg>