<svg t="1686030326402" class="icon" viewBox="0 0 1024 1024" version="1.1" xmlns="http://www.w3.org/2000/svg" p-id="5643" width="200" height="200"><path d="M934.6 249.7c-2.1-12-9.4-22.5-19.9-28.6L702.3 96.3c-19.8-11.6-45.3-5-56.9 14.8-5.6 9.6-7.2 20.8-4.4 31.5 2.8 10.8 9.6 19.8 19.2 25.4l100.2 58.8C646.1 248.6 534.7 308 445.3 395 352.8 485.1 290.2 598.4 269 714.1c-4.1 22.6 10.9 44.3 33.4 48.4 2.5 0.5 5.1 0.7 7.6 0.7 8.4 0 16.5-2.5 23.5-7.4 9.1-6.3 15.3-15.8 17.3-26.7 38.8-211.4 234.8-395.5 449.6-424.6L699.2 426.9c-7.1 8.6-10.4 19.4-9.4 30.4 1 11.1 6.3 21 14.9 28.1 8.6 7.1 19.4 10.4 30.4 9.4 11.1-1 21-6.3 28.1-14.9l162.4-196.5c7.8-9.4 11.1-21.7 9-33.7z" p-id="5644"></path><path d="M859.1 582.9c-22.9 0-41.6 18.6-41.6 41.6v150.4c0 19.7-6.1 38.1-17.2 51.8-10.4 12.9-24.5 20.3-38.6 20.3H226.1c-14.1 0-28.2-7.4-38.6-20.3-11.1-13.7-17.2-32.1-17.2-51.8V320.4c0-19.7 6.1-38.1 17.2-51.8 10.4-12.9 24.5-20.3 38.6-20.3h209.4c22.9 0 41.6-18.6 41.6-41.6 0-22.9-18.6-41.6-41.6-41.6H226.1c-37.6 0-72.8 16.4-99 46.1-25.8 29.2-40 68-40 109.1v454.4c0 41.1 14.2 79.8 40 109.1 26.2 29.7 61.3 46.1 99 46.1h535.6c37.6 0 72.8-16.4 99-46.1 25.8-29.3 40-68 40-109V624.5c0-23-18.7-41.6-41.6-41.6z" p-id="5645"></path></svg>