<svg xmlns="http://www.w3.org/2000/svg" xmlns:xlink="http://www.w3.org/1999/xlink" version="1.1" width="12" height="12" viewBox="0 0 12 12"><defs><clipPath id="master_svg0_2056_087236"><rect x="0" y="0" width="12" height="12" rx="0"/></clipPath></defs><g clip-path="url(#master_svg0_2056_087236)"><g><path d="M6.67227359375,9.5061296875L6.82223359375,9.4757296875C7.02013359375,9.4355996875,7.02013359375,9.152729687499999,6.82223359375,9.1126096875L6.67227359375,9.0822096875C6.29448359375,9.0056166875,5.99922359375,8.7103516875,5.92263359375,8.3325626875L5.89223359375,8.1826096875C5.85210359375,7.9847032875,5.56923359375,7.9847032875,5.52911359375,8.1826096875L5.49871359375,8.3325626875C5.42212059375,8.7103516875,5.12685559375,9.0056176875,4.74906659375,9.0822096875L4.59911359375,9.1126096875C4.40120719375,9.152729687499999,4.40120719375,9.4355996875,4.59911359375,9.4757296875L4.74906659375,9.5061296875C5.12685559375,9.5827196875,5.42212059375,9.8779796875,5.49871359375,10.255769687499999L5.52911359375,10.4057296875C5.56923359375,10.6036296875,5.85210359375,10.6036296875,5.89223359375,10.4057296875L5.92263359375,10.255769687499999C5.99922359375,9.8779896875,6.29448359375,9.5827196875,6.67227359375,9.5061296875Z" fill-opacity="1"/></g><g><g><path d="M6.149679448242187,3.662181830444336L6.867479448242188,3.516661830444336C7.206339448242187,3.447941830444336,7.206339448242187,2.963651830444336,6.867479448242188,2.894931830444336L6.149679448242187,2.749411830444336C5.442339448242187,2.606001830444336,4.889519448242187,2.053181830444336,4.746099448242187,1.345832830444336L4.600579448242188,0.628036830444336C4.531859448242187,0.28917703044433596,4.047569448242188,0.28917703044433596,3.9788494482421877,0.628036830444336L3.8333294482421874,1.345832830444336C3.6899194482421875,2.053181830444336,3.1370994482421874,2.606001830444336,2.4297504482421877,2.749411830444336L1.7119534482421874,2.894931830444336C1.3730945482421875,2.963651830444336,1.3730945482421875,3.447941830444336,1.7119534482421874,3.516661830444336L2.4297504482421877,3.662181830444336C3.137089448242188,3.8056018304443358,3.6899194482421875,4.358421830444335,3.8333294482421874,5.065761830444336L3.9788494482421877,5.783561830444336C4.047569448242188,6.122421830444336,4.531859448242187,6.122421830444336,4.600579448242188,5.783561830444336L4.746099448242187,5.065761830444336C4.889489448242188,4.358421830444335,5.442339448242187,3.805621830444336,6.149679448242187,3.662181830444336Z" fill-opacity="1"/></g><g><path d="M11.253574331054688,6.1597598773193365L11.804824331054688,6.047979877319336C12.065074331054689,5.9952298773193355,12.065074331054689,5.623269877319336,11.804824331054688,5.570519877319336L11.253574331054688,5.458739877319336C10.710334331054687,5.348589877319336,10.285794331054687,4.924059877319336,10.175654331054687,4.380827877319336L10.063884331054687,3.829577877319336C10.011124331054688,3.569327377319336,9.639174331054688,3.569327377319336,9.586434331054688,3.829577877319336L9.474664331054687,4.380827877319336C9.364504331054688,4.924059877319336,8.939984331054688,5.348609877319336,8.396751331054688,5.458739877319336L7.845502331054687,5.570519877319336C7.585251831054688,5.623269877319336,7.585251831054688,5.9952298773193355,7.845502331054687,6.047979877319336L8.396751331054688,6.1597598773193365C8.939984331054688,6.269909877319336,9.364534331054688,6.694439877319336,9.474664331054687,7.237669877319336L9.586434331054688,7.788919877319336C9.639194331054687,8.049169877319336,10.011154331054687,8.049169877319336,10.063884331054687,7.788919877319336L10.175654331054687,7.237669877319336C10.285814331054688,6.694459877319336,10.710384331054687,6.269889877319336,11.253574331054688,6.1597598773193365Z" fill-opacity="1"/></g></g></g></svg>