<svg xmlns="http://www.w3.org/2000/svg" xmlns:xlink="http://www.w3.org/1999/xlink" version="1.1" width="14" height="14" viewBox="0 0 14 14"><defs><clipPath id="master_svg0_78_25414/78_24926"><rect x="0" y="0" width="14" height="14" rx="0"/></clipPath></defs><g clip-path="url(#master_svg0_78_25414/78_24926)"><g><g><g><path d="M9.402123071289061,6.068711333007813C9.329963071289063,5.999982833007812,9.230303071289063,5.972491333007812,9.134083071289062,5.996546223007813L5.848863071289062,6.659776333007812C5.680473071289063,6.6941413330078126,5.560203071289062,6.845343333007812,5.563633071289063,7.017161333007812L5.563633071289063,9.566991333007813C5.436483071289063,9.518881333007812,5.302463071289063,9.494831333007813,5.1684430712890626,9.494831333007813C4.5430170712890625,9.484521333007812,4.030989471289063,9.982801333007814,4.020680116289062,10.608231333007812C4.010370771289063,11.233661333007813,4.5086530712890625,11.745691333007812,5.134083071289062,11.755991333007813C5.759513071289063,11.766301333007814,6.271543071289063,11.268021333007813,6.281853071289063,10.642591333007813C6.281853071289063,10.632281333007812,6.281853071289063,10.618541333007812,6.281853071289063,10.608231333007812L6.281853071289063,8.687271333007812L8.793873071289063,8.164931333007813L8.793873071289063,8.917511333007813C8.793873071289063,8.883141333007814,8.560203071289063,8.845341333007813,8.415873071289063,8.845341333007813C7.800753071289062,8.855651333007813,7.309343071289062,9.360811333007813,7.319653071289062,9.975931333007813C7.329963071289063,10.594481333007813,7.831673071289062,11.089331333007813,8.450233071289063,11.089331333007813C9.079103071289062,11.068711333007812,9.518963071289063,10.549811333007813,9.508653071289062,9.920941333007812L9.508653071289062,9.865961333007812L9.508653071289062,6.336752333007812C9.518963071289063,6.233659333007813,9.481163071289062,6.134003333007812,9.402123071289061,6.068711333007813ZM5.202813071289063,11.034351333007812C5.199373071289062,11.030911333007811,5.192503071289062,11.030911333007811,5.185623071289062,11.034351333007812C4.9588240712890626,11.058401333007811,4.745765071289062,10.927821333007813,4.697656071289062,10.704451333007812C4.649546071289063,10.481081333007811,4.793876071289063,10.261151333007813,5.017243071289062,10.216481333007813C5.072223071289063,10.206171333007813,5.134083071289062,10.192421333007813,5.189063071289063,10.199291333007812C5.4055630712890625,10.223351333007813,5.580813071289063,10.391731333007812,5.580813071289063,10.611661333007813C5.591123071289062,10.828161333007813,5.419303071289063,11.024041333007812,5.202813071289063,11.034351333007812ZM6.281853071289063,7.951871333007812L6.281853071289063,7.305821333007812L8.793873071289063,6.7834873330078125L8.793873071289063,7.429531333007812L6.281853071289063,7.951871333007812ZM8.488033071289063,10.374551333007812C8.477723071289063,10.374551333007812,8.467413071289062,10.374551333007812,8.453673071289064,10.374551333007812C8.237173071289062,10.374551333007812,8.058483071289062,10.199291333007812,8.058483071289062,9.979361333007812C8.048173071289064,9.752561333007812,8.226863071289063,9.560121333007812,8.453673071289064,9.549811333007813C8.680473071289063,9.539501333007813,8.872913071289062,9.718191333007812,8.883223071289063,9.945001333007813C8.893533071289063,10.171801333007814,8.714833071289062,10.364241333007811,8.488033071289063,10.374551333007812Z" /></g></g></g><g><g><g><path d="M12.456829705810547,3.89347L8.652719705810547,0.106529C8.587429705810546,0.0378007,8.494649705810547,0,8.401869705810547,0L3.2300397058105466,0C2.236916705810547,0,1.4362297058105469,0.804124,1.4362297058105469,1.79381L1.4362297058105469,12.2062C1.4362297058105469,13.1993,2.2403537058105467,14,3.2300397058105466,14L10.769559705810547,14C11.762729705810546,14,12.563329705810547,13.1959,12.563329705810547,12.2062L12.563329705810547,4.14433C12.563329705810547,4.04811,12.522129705810547,3.95876,12.456829705810547,3.89347ZM8.797049705810547,3.58763L8.797049705810547,1.2577L11.326269705810548,3.76632L8.975749705810546,3.76632C8.886399705810547,3.77663,8.807359705810548,3.71478,8.797049705810547,3.62543C8.797049705810547,3.61168,8.797049705810547,3.60137,8.797049705810547,3.58763ZM11.848629705810547,12.2062C11.848629705810547,12.8007,11.367499705810546,13.2818,10.772999705810546,13.2818L3.2300397058105466,13.2818C2.635539705810547,13.2818,2.154442705810547,12.8007,2.154442705810547,12.2062L2.154442705810547,1.79381C2.154442705810547,1.19931,2.635539705810547,0.718213,3.2300397058105466,0.718213L8.078839705810548,0.718213L8.078839705810548,3.59107C8.078839705810548,4.08591,8.480899705810547,4.48797,8.975749705810546,4.48797L11.848629705810547,4.48797L11.848629705810547,12.2062Z" /></g></g></g></g></svg>