<svg xmlns="http://www.w3.org/2000/svg" xmlns:xlink="http://www.w3.org/1999/xlink" version="1.1" width="14" height="14" viewBox="0 0 14 14"><defs><clipPath id="master_svg0_78_25406/78_24950"><rect x="0" y="0" width="14" height="14" rx="0"/></clipPath></defs><g clip-path="url(#master_svg0_78_25406/78_24950)"><g><path d="M11.86166875,2.90577L9.22509875,0.411414C8.94465875,0.146098,8.57759875,0,8.19155875,0L3.1718787500000003,0C2.34262075,0,1.66796875,0.674652,1.66796875,1.50391L1.66796875,12.4961C1.66796875,13.3253,2.34262075,14,3.1718787500000003,14L10.82812875,14C11.65737875,14,12.33206875,13.3253,12.33206875,12.4961L12.33206875,3.99826C12.33206875,3.58676,12.16056875,3.18855,11.86166875,2.90577ZM11.06494875,3.28125L9.02343875,3.28125C8.94804875,3.28125,8.88671875,3.21992,8.88671875,3.14453L8.88671875,1.22052L11.06494875,3.28125ZM10.82812875,13.1797L3.1718787500000003,13.1797C2.79493875,13.1797,2.48828075,12.873,2.48828075,12.4961L2.48828075,1.50391C2.48828075,1.12697,2.79493875,0.820313,3.1718787500000003,0.820313L8.06640875,0.820313L8.06640875,3.14453C8.06640875,3.67224,8.49572875,4.10156,9.02343875,4.10156L11.51171875,4.10156L11.51171875,12.4961C11.51171875,12.873,11.20505875,13.1797,10.82812875,13.1797Z"/></g><g><path d="M9.92578,5.46875L3.910156,5.46875C3.683641,5.46875,3.5,5.652391,3.5,5.878906C3.5,6.105422,3.683641,6.289062,3.910156,6.289062L9.92578,6.289062C10.1523,6.289062,10.33594,6.105422,10.33594,5.878906C10.33594,5.652391,10.1523,5.46875,9.92578,5.46875Z"/></g><g><path d="M9.92578,7.65625L3.910156,7.65625C3.683641,7.65625,3.5,7.839891,3.5,8.066406C3.5,8.292922,3.683641,8.476562,3.910156,8.476562L9.92578,8.476562C10.1523,8.476562,10.33594,8.292922,10.33594,8.066406C10.33594,7.839891,10.1523,7.65625,9.92578,7.65625Z"/></g><g><path d="M5.89859,9.84375L3.910156,9.84375C3.683641,9.84375,3.5,10.027391,3.5,10.253906C3.5,10.480422,3.683641,10.664062,3.910156,10.664062L5.89859,10.664062C6.125109999999999,10.664062,6.30875,10.480422,6.30875,10.253906C6.30875,10.027391,6.125109999999999,9.84375,5.89859,9.84375Z"/></g></g></svg>