<svg t="1695883075047" class="icon" viewBox="0 0 1024 1024" version="1.1" xmlns="http://www.w3.org/2000/svg" p-id="4231" width="200" height="200"><path d="M980.301314 953.631767V361.869197c-4.257285-55.344701-46.830131-59.601985-46.830131-59.601985h-25.543708V144.747679C890.898336 12.771854 767.437081 0 767.437081 0H128.844379s-25.543708 0-68.116555 51.087416S86.271532 127.71854 86.271532 127.71854h127.718541c21.286423 4.257285 42.572847 42.572847 42.572846 42.572847v42.572847H205.475503c-25.543708 0-34.058277 25.543708-34.058277 25.543708V298.009927H86.271532C35.184116 289.495358 43.698686 340.582774 43.698686 340.582774v638.592701c-4.257285 59.601985 63.85927 42.572847 63.85927 42.572847h813.141373c63.85927 4.257285 59.601985-68.116555 59.601985-68.116555zM86.271532 85.145694s21.286423-38.315562 59.601986-46.830132C196.960934 46.830131 213.990073 85.145694 213.990073 85.145694H86.271532z m553.447008-42.572847s8.514569 85.145694 0 149.004963h97.917548L592.888409 340.582774h-12.771854l-144.747679-149.004964h97.917547s25.543708-51.087416-21.286423-149.004963h127.71854zM243.791065 38.315562L469.427153 42.572847s34.058277 114.946686 25.543708 123.461255H388.538744s-21.286423-4.257285-12.771854 21.286424l195.835095 183.063241h12.771854V383.155621s12.771854 4.257285 12.771855 0v-12.771854h12.771854l195.835095-183.063241s12.771854-25.543708-12.771854-21.286424H682.291387s8.514569-80.888409-25.543708-127.71854H767.437081s76.631124 0 89.402978 89.402978v298.009928H299.135766l4.257285-293.752643S307.650336 80.888409 243.791065 38.315562zM86.271532 340.582774h85.145694s29.800993 8.514569 42.572847-42.572847V255.437081h42.572846v170.291387H86.271532V340.582774z m851.456936 638.592701H86.271532V468.301314h851.456936v510.874161z m0-553.447007h-42.572847V340.582774h25.543708c17.029139 8.514569 17.029139 42.572847 17.029139 42.572847v42.572847z" p-id="4232"></path></svg>