<svg xmlns="http://www.w3.org/2000/svg" xmlns:xlink="http://www.w3.org/1999/xlink" fill="none" version="1.1" width="41.9999885559082" height="27.999998092651367" viewBox="0 0 41.9999885559082 27.999998092651367"><g><path d="M41.7589,16.6318C41.7589,16.6318,36.478,25.6847,36.478,25.6847C36.0671,26.3893,35.4786,26.9738,34.7714,27.38C34.0641,27.7862,33.2627,28,32.4471,28C32.4471,28,3.28307,28,3.28307,28C1.93244,28,1.09091,26.5349,1.77144,25.3682C1.77144,25.3682,7.05235,16.3153,7.05235,16.3153C7.46333,15.6107,8.05178,15.0262,8.75905,14.62C9.46632,14.2138,10.2677,14,11.0833,14C11.0833,14,40.2474,14,40.2474,14C41.598,14,42.4395,15.4651,41.7589,16.6318ZM11.0833,11.6667C11.0833,11.6667,35,11.6667,35,11.6667C35,11.6667,35,8.16667,35,8.16667C35,6.23365,33.433,4.66667,31.5,4.66667C31.5,4.66667,19.8333,4.66667,19.8333,4.66667C19.8333,4.66667,15.1667,0,15.1667,0C15.1667,0,3.5,0,3.5,0C1.56698,0,0,1.56698,0,3.5C0,3.5,0,23.7742,0,23.7742C0,23.7742,5.03686,15.1395,5.03686,15.1395C6.28644,12.9974,8.60336,11.6667,11.0833,11.6667Z" /></g></svg>