<svg t="1689558752526" class="icon" viewBox="0 0 1024 1024" version="1.1" xmlns="http://www.w3.org/2000/svg" p-id="10274" width="200" height="200"><path d="M471.343533 743.592612c-144.109142 0-261.096577-173.524079-261.096577-179.39888 0-6.523577 116.987435-180.040493 261.096577-180.040493 144.760988 0 263.693728 181.025936 261.741259 180.040493C731.116975 562.559513 616.104521 743.592612 471.343533 743.592612L471.343533 743.592612 471.343533 743.592612 471.343533 743.592612zM470.359113 441.650769c-61.108776 0-110.446461 53.270251-110.446461 119.608122 0 65.689095 49.337685 119.248941 110.446461 119.248941 61.435211 0 111.106494-53.559846 111.106494-119.248941C581.46663 494.919996 531.795347 441.650769 470.359113 441.650769L470.359113 441.650769 470.359113 441.650769 470.359113 441.650769zM470.041888 613.548814c-29.097712 0-52.622498-25.494651-52.622498-56.543807 0-31.05325 23.541159-56.196906 52.622498-56.196906 29.067013 0 52.277644 25.142633 52.277644 56.196906C522.319531 588.054163 499.1089 613.548814 470.041888 613.548814L470.041888 613.548814 470.041888 613.548814 470.041888 613.548814zM470.041888 613.548814" p-id="10275"></path><path d="M825.475016 132.724861c-73.579809 0-133.237537 59.648518-133.237537 133.225257 0 73.579809 59.657728 133.228327 133.237537 133.228327 73.576739 0 133.233444-59.648518 133.233444-133.228327C958.70846 192.373379 899.051755 132.724861 825.475016 132.724861L825.475016 132.724861zM887.560026 235.971339c-3.413749 0-6.682189-0.537236-9.779737-1.538029l-34.131355 59.529815c7.270591 6.92062 11.794627 16.676821 11.794627 27.494191 0 20.945031-16.97051 37.916565-37.907355 37.916565-20.939915 0-37.910425-16.971533-37.910425-37.916565 0-9.342786 3.382027-17.899672 9.002025-24.49488l-21.225417-19.398816c-3.330862 1.642406-7.04751 2.572592-10.967796 2.572592-13.685697 0-24.76401-11.081383-24.76401-24.762987 0-13.670348 11.078313-24.750707 24.76401-24.750707 13.667278 0 24.749684 11.079336 24.749684 24.750707 0 5.489014-1.795902 10.562567-4.826935 14.667048l21.081131 19.262716c5.858428-3.64297 12.747325-5.747911 20.098757-5.747911 5.937223 0 11.523451 1.356904 16.539698 3.77907l33.511231-58.459437c-7.175423-5.815449-11.746532-14.673188-11.746532-24.626887 0-17.509792 14.20963-31.718399 31.718399-31.718399 17.526165 0 31.717376 14.208607 31.717376 31.718399C919.277402 221.765803 905.086192 235.971339 887.560026 235.971339L887.560026 235.971339zM874.305141 242.379283" p-id="10276"></path><path d="M825.475016 457.961246c-0.206708 0-0.397043-0.030699-0.603751-0.030699l0 327.000566c0 25.508977-20.685111 46.162366-46.179762 46.162366L164.680155 831.093479c-25.51 0-46.187949-20.654412-46.187949-46.162366L118.492206 342.794273c0-25.494651 20.677948-46.139853 46.187949-46.139853l471.457632 0c-1.620917-10.019191-2.683109-20.225647-2.683109-30.704302 0-10.05603 1.000793-19.848047 2.493797-29.485545L115.357819 236.464573c-27.637454 0-50.068326 22.423709-50.068326 50.069349l0 554.673915c0 27.635407 22.430872 50.068326 50.068326 50.068326l712.639646 0c27.652803 0 50.069349-22.432918 50.069349-50.068326L878.066815 450.484971C861.333712 455.247438 843.728752 457.961246 825.475016 457.961246z" p-id="10277"></path></svg>