<svg xmlns="http://www.w3.org/2000/svg" xmlns:xlink="http://www.w3.org/1999/xlink" version="1.1" width="41" height="41" viewBox="0 0 41 41"><g><path d="M0,20.4992C0,9.17804,9.17804,0,20.5,0C31.822,0,41,9.17804,41,20.4992C41,31.8211,31.822,41,20.5,41C9.17804,41,0,31.8211,0,20.4992ZM29.3065,26.369L29.3073,26.369L29.3073,8.91272C21.5287,8.65059,15.1569,11.5563,15.1569,11.5563L15.152,26.3C14.3598,25.9811,13.3968,25.9055,12.4189,26.1463C10.3095,26.6656,8.92895,28.4554,9.33324,30.1449C9.73918,31.8352,11.7771,32.7835,13.8865,32.2658C15.8743,31.7761,17.2162,30.1564,17.0223,28.5573L17.0223,17.541C17.0223,17.541,21.5287,15.946,27.3729,15.5458L27.3729,23.7394C26.589,23.4362,25.644,23.3672,24.6833,23.6038C22.5756,24.1224,21.1934,25.9121,21.5993,27.6024C22.0036,29.2919,24.0432,30.2402,26.1518,29.7217C27.9933,29.2689,29.2802,27.8473,29.3065,26.369Z" /></g></svg>