<svg t="1703475376718" class="icon" viewBox="0 0 1024 1024" version="1.1" xmlns="http://www.w3.org/2000/svg" p-id="6937" width="200" height="200"><path d="M87.36 368.27v-63h849V153.85a62.59 62.59 0 0 0-62.59-62.59H149.94a62.59 62.59 0 0 0-62.59 62.59v724.83a62.59 62.59 0 0 0 62.59 62.59h723.83a62.59 62.59 0 0 0 62.59-62.59V368.27zM480.9 163.38a52.16 52.16 0 1 1-52.16 52.16 52.16 52.16 0 0 1 52.16-52.16z m-135.2 0a52.16 52.16 0 1 1-52.16 52.16 52.16 52.16 0 0 1 52.16-52.16z m-135.2 0a52.16 52.16 0 1 1-52.16 52.16 52.16 52.16 0 0 1 52.15-52.16z" p-id="6938"></path></svg>