<svg t="1685503732198" class="icon" viewBox="0 0 1024 1024" version="1.1" xmlns="http://www.w3.org/2000/svg" p-id="6672" width="200" height="200"><path d="M923.176611 86.143569l-298.665174-85.332906a21.333227 21.333227 0 0 0-14.079929 0.853329l-511.99744 213.332266A21.333227 21.333227 0 0 0 85.335467 234.665493v554.663894a21.333227 21.333227 0 0 0 21.119894 21.333226 21.333227 21.333227 0 0 0-6.485301 41.557126l511.99744 170.665813a20.991895 20.991895 0 0 0 12.543937 0.298665l298.665174-85.332906A21.333227 21.333227 0 0 0 938.664533 917.328747v-810.662614a21.375893 21.375893 0 0 0-15.487922-20.522564zM116.225979 808.401291l127.99936-63.99968A21.333227 21.333227 0 0 0 256.00128 725.329707V272.681303l383.99808-95.99952v715.772421L109.911344 810.918612A18.133243 18.133243 0 0 0 106.882026 810.662613a21.247894 21.247894 0 0 0 9.343953-2.261322z" p-id="6673"></path></svg>