<svg xmlns="http://www.w3.org/2000/svg" xmlns:xlink="http://www.w3.org/1999/xlink" version="1.1" width="14" height="14" viewBox="0 0 14 14"><defs><clipPath id="master_svg0_78_25410/78_24926"><rect x="0" y="0" width="14" height="14" rx="0"/></clipPath></defs><g clip-path="url(#master_svg0_78_25410/78_24926)"><g><g><g><g><path d="M8.471658387451171,8.2743376171875L7.735778387451172,9.117927617187501L6.192168387451172,6.9281756171875C6.128678387451172,6.8327724171875,6.019398387451172,6.7781135371875,5.9049983874511724,6.7845723971875C5.792658387451172,6.7872175871875,5.687358387451171,6.8398839171875,5.617818387451171,6.9281756171875L3.2486003874511717,10.123047617187499C3.166904297451172,10.2454976171875,3.153333887451172,10.4011576171875,3.212699487451172,10.5358576171875C3.2703815874511717,10.6662776171875,3.393853387451172,10.7554576171875,3.535773387451172,10.7691976171875L10.104998387451172,10.7691976171875C10.24691838745117,10.7554576171875,10.37041838745117,10.6662776171875,10.428068387451173,10.5358576171875C10.487848387451173,10.4073376171875,10.474138387451172,10.256627617187501,10.392168387451171,10.1409876171875L9.028068387451171,8.3102076171875C8.967878387451172,8.2178976171875,8.86862838745117,8.1583276171875,8.758828387451171,8.1486676171875C8.64837838745117,8.1414876171875,8.541328387451172,8.1883476171875,8.471658387451171,8.2743376171875ZM7.197288387451172,10.0512476171875L4.253688387451172,10.0512476171875L5.904958387451172,7.8255976171874995L7.466498387451172,10.0512476171875L7.197288387451172,10.0512476171875ZM9.387048387451172,10.0512476171875L8.34601838745117,10.0512476171875L8.166548387451172,9.7640776171875L8.722958387451172,9.1358576171875L9.387048387451172,10.0512476171875Z" fill-opacity="1"/></g><g><path d="M7.844230574951172,7.2871321093749994C8.448910574951173,7.2871321093749994,8.939090574951171,6.796952109375,8.939090574951171,6.192272109375C8.939090574951171,5.587589109375,8.448910574951173,5.097412109375,7.844230574951172,5.097412109375C7.239547574951172,5.097412109375,6.749370574951172,5.587589109375,6.749370574951172,6.192272109375C6.749371099166172,6.796952109375,7.239548574951172,7.2871321093749994,7.844230574951172,7.2871321093749994ZM7.467321574951172,6.192272109375C7.467321574951172,5.984114109375,7.636073574951172,5.815363109375,7.844230574951172,5.815363109375C8.052390574951172,5.815363109375,8.221140574951171,5.984115109375,8.221140574951171,6.192272109375C8.221140574951171,6.400432109375,8.052390574951172,6.569182109375,7.844230574951172,6.569182109375C7.636073574951172,6.569182109375,7.467321574951172,6.400432109375,7.467321574951172,6.192272109375Z" fill-opacity="1"/></g><g><path d="M12.456394012451172,3.89486L8.651264012451172,0.107703C8.584994012451173,0.0400579,8.49467401245117,0.0013742,8.399994012451172,0L3.230774012451172,0C2.2394910124511718,0,1.4358940124511719,0.803597,1.4358940124511719,1.79488L1.4358940124511719,12.2051C1.4358940124511719,13.1964,2.239492012451172,14,3.230774012451172,14L10.769254012451173,14C11.760494012451172,14,12.564094012451172,13.1964,12.564094012451172,12.2051L12.564094012451172,4.14613C12.562794012451171,4.05148,12.523994012451173,3.96116,12.456394012451172,3.89486ZM8.79487401245117,3.58975L8.79487401245117,1.2564L11.325634012451172,3.76922L8.974344012451173,3.76922C8.885734012451172,3.77977,8.80538401245117,3.71649,8.79487401245117,3.62789C8.793354012451172,3.61524,8.793354012451172,3.60243,8.79487401245117,3.58975ZM11.846094012451172,12.2051C11.846094012451172,12.7999,11.363964012451172,13.282,10.769214012451172,13.282L3.230774012451172,13.282C2.636014012451172,13.282,2.153844012451172,12.7999,2.153844012451172,12.2051L2.153844012451172,1.79488C2.153844012451172,1.20012,2.635984012451172,0.71795,3.230774012451172,0.71795L8.076914012451173,0.71795L8.076914012451173,3.58975C8.076914012451173,4.08539,8.478704012451171,4.48717,8.974344012451173,4.48717L11.846094012451172,4.48717L11.846094012451172,12.2051Z"  fill-opacity="1"/></g></g></g></g></g></svg>