<svg t="1680834493384" class="icon" viewBox="0 0 1024 1024" version="1.1" xmlns="http://www.w3.org/2000/svg" p-id="20463" width="200" height="200"><path d="M384 64a64 64 0 1 1 0 128H192a32 32 0 0 0-32 32v608a32 32 0 0 0 32 32h576a32 32 0 0 0 32-32v-160a64 64 0 1 1 128 0v160a160 160 0 0 1-160 160H192a160 160 0 0 1-160-160V224a160 160 0 0 1 160-160z m416 32l224 208-224 208v-118.144l-47.2 1.152a576.992 576.992 0 0 0-491.2 298.56L256 704l45.44-145.408A512 512 0 0 1 788.8 199.296l11.2 0.096V96z" p-id="20464"></path></svg>