<svg xmlns="http://www.w3.org/2000/svg" xmlns:xlink="http://www.w3.org/1999/xlink" fill="none" version="1.1" width="20" height="20" viewBox="0 0 20 20"><g><g><path d="M9.99996,0C4.48616,0,0,4.48558,0,9.99996C0,15.5143,4.48616,20,9.99996,20C15.5138,20,20,15.5144,20,9.99996C20,4.48551,15.5138,0,9.99996,0ZM9.99996,16.923C6.17645,16.923,3.07688,13.8235,3.07688,9.99996C3.07688,6.17645,6.17645,3.07688,9.99996,3.07688C13.8235,3.07688,16.923,6.17645,16.923,9.99996C16.9188,13.8217,13.8217,16.9188,9.99996,16.923Z" fill="#FD6E5E" fill-opacity="1"/></g><g><path d="M10.0003940625,4.615478515625C9.1507100625,4.615557744025,8.4619514759,5.304316515625,8.4619514759,6.153918515625L8.4619514759,10.000048515625C8.4560555625,10.853878515625,9.1465800625,11.549188515625,10.0004240625,11.549188515625C10.8542740625,11.549188515625,11.5447940625,10.853878515625,11.5389040625,10.000048515625L11.5389040625,6.153918515625C11.5388640625,5.304250515625,10.8500540625,4.615478515625,10.0003940625,4.615478515625Z" fill="#FD6E5E" fill-opacity="1"/></g><g><ellipse cx="10.000353217124939" cy="13.846056342124939" rx="1.538439154624939" ry="1.538439154624939" fill="#FD6E5E" fill-opacity="1"/></g></g></svg>