<svg xmlns="http://www.w3.org/2000/svg" xmlns:xlink="http://www.w3.org/1999/xlink" fill="none" version="1.1" width="20" height="20" viewBox="0 0 20 20"><defs><clipPath id="master_svg0_465_011156"><rect x="0" y="0" width="20" height="20" rx="0"/></clipPath></defs><g><g clip-path="url(#master_svg0_465_011156)"><g><path d="M8.091484375,16.509351953124998C4.852224375,15.814951953125,2.500664375,12.902251953125,2.500664375,9.583251953125C2.500664375,5.677431953125,5.678164375,2.499931953125,9.583984375,2.499931953125C12.903084375,2.499931953125,15.815684375,4.851491953125,16.509784375000002,8.090951953125C16.608384375,8.538681953125,17.049984375,8.822751953125,17.498284375,8.726741953125C17.946584375,8.630721953125,18.233184375,8.190691953125,18.139784375,7.741841953125C17.281884375,3.738761953125,13.683484375,0.833251953125,9.583984375,0.833251953125C4.759374375,0.833251953125,0.833984375,4.758451953125,0.833984375,9.583251953125C0.833984375,13.682751953125,3.739254375,17.281051953125,7.742384375,18.138951953125C8.192464375,18.235551953125,8.635594375,17.948851953125,8.732014375,17.498751953125C8.828444375,17.048651953125,8.541634375000001,16.605651953124998,8.091484375,16.509351953124998Z" fill="#5E38FF" fill-opacity="1"/></g><g><path d="M8.749535,4.583278234375L8.749535,8.749955234375001L6.249537,8.749955234375001C5.79152,8.753085234375,5.421875,9.125265234375,5.421875,9.583295234375C5.421875,10.041325234375,5.79152,10.413505234375,6.249537,10.416635234375L9.582855,10.416635234375C10.043125,10.416595234375,10.416215000000001,10.043495234375001,10.416215000000001,9.583275234375L10.416215000000001,4.583278234375C10.413084999999999,4.125260234375,10.040905,3.755615234375,9.582875,3.755615234375C9.124845,3.755615234375,8.752665,4.125260234375,8.749535,4.583278234375Z" fill="#5E38FF" fill-opacity="1"/></g><g><g><path d="M14.582670883789064,9.166763305664062C11.596030883789062,9.166763305664062,9.166030883789062,11.596453305664063,9.166030883789062,14.583403305664064C9.166030883789062,17.570353305664064,11.596030883789062,20.000063305664064,14.582670883789064,20.000063305664064C17.569310883789065,20.000063305664064,19.999330883789064,17.570393305664062,19.999330883789064,14.583403305664064C19.999330883789064,11.596413305664063,17.569350883789063,9.166763305664062,14.582670883789064,9.166763305664062ZM14.582670883789064,18.333403305664064C12.511600883789063,18.333403305664064,10.832670883789062,16.654473305664062,10.832670883789062,14.583403305664064C10.832670883789062,12.512333305664063,12.511600883789063,10.833403305664062,14.582670883789064,10.833403305664062C16.653740883789062,10.833403305664062,18.332670883789064,12.512333305664063,18.332670883789064,14.583403305664064C18.330340883789063,16.653513305664063,16.652770883789064,18.331083305664063,14.582670883789064,18.333403305664064Z" fill="#FD6E5E" fill-opacity="1"/></g><g><path d="M14.583356258789063,11.666763305664062C14.123113258789063,11.666806220964062,13.750035524389062,12.039883305664063,13.750035524389062,12.500084305664062L13.750035524389062,14.583403305664064C13.746841908789062,15.045893305664062,14.120875258789063,15.422513305664062,14.583376258789063,15.422513305664062C15.045875258789062,15.422513305664062,15.419905258789063,15.045893305664062,15.416715258789063,14.583403305664064L15.416715258789063,12.500084305664062C15.416695258789062,12.039848305664062,15.043595258789063,11.666763305664062,14.583356258789063,11.666763305664062Z" fill="#FD6E5E" fill-opacity="1"/></g><g><ellipse cx="14.583335518836975" cy="16.666587471961975" rx="0.8333202600479126" ry="0.8333202600479126" fill="#FD6E5E" fill-opacity="1"/></g></g></g></g></svg>