<svg xmlns="http://www.w3.org/2000/svg" xmlns:xlink="http://www.w3.org/1999/xlink" version="1.1" width="14" height="14" viewBox="0 0 14 14"><defs><clipPath id="master_svg0_78_25403/78_24926"><rect x="0" y="0" width="14" height="14" rx="0"/></clipPath></defs><g clip-path="url(#master_svg0_78_25403/78_24926)"><g><path d="M12.5963125,3.10715L9.5633725,0.118027C9.4865725,0.0424042,9.3831825,1.30385e-8,9.2754025,1.30385e-8L2.4882825,1.30385e-8C1.8098144999999999,1.30385e-8,1.2578125,0.552002,1.2578125,1.23047L1.2578125,12.7695C1.2578125,13.448,1.8098144999999999,14,2.4882825,14L11.4881125,14C12.1666125,14,12.7186125,13.448,12.7186125,12.7695L12.7186125,3.39928C12.7185125,3.28947,12.6745125,3.18427,12.5963125,3.10715ZM9.6855625,1.39026L11.3079125,2.98912L9.6855625,2.98912L9.6855625,1.39026ZM2.4882825,0.820312L8.8652525,0.820312L8.8652525,3.39928C8.8652525,3.62582,9.0489625,3.80943,9.2754025,3.80943L11.8983125,3.80943L11.8983125,10.6289L2.0781245,10.6289L2.0781245,1.23047C2.0781245,1.00435,2.2621625,0.820312,2.4882825,0.820312ZM11.4880125,13.1797L2.4882825,13.1797C2.2621625,13.1797,2.0781245,12.9957,2.0781245,12.7695L2.0781245,11.4492L11.8983125,11.4492L11.8983125,12.7695C11.8982125,12.9957,11.7142125,13.1797,11.4880125,13.1797Z"/></g><g><path d="M5.0480800625,9.4308096484375C5.1399380625,9.4775996484375,5.2407680625,9.5005596484375,5.3410640625,9.5005596484375C5.4657130625,9.5005596484375,5.5896150625,9.4649896484375,5.6947170625,9.395249648437499L8.976289062500001,7.4812896484374996C8.9882490625,7.474349648437499,8.9997890625,7.4667596484375,9.0109990625,7.4586496484375004C9.162349062499999,7.348519648437501,9.249189062500001,7.1812596484375,9.249089062500001,6.999889648437501C9.249089062500001,6.818629648437501,9.162249062499999,6.6514696484375,9.0108990625,6.5413496484374996C8.9997890625,6.5332296484375,8.9881390625,6.525649648437501,8.976289062500001,6.5187096484375004L5.6947170625,4.6047496484375C5.5050200625,4.4788184484375,5.2541200625,4.4642920484375,5.0479740625,4.5691809484375C4.8502650625,4.6699046484375,4.7275390625,4.8649416484375,4.7275390625,5.0783516484375L4.7275390625,8.9216396484375C4.7275390625,9.1350496484375,4.8503720625,9.3301996484375,5.0480800625,9.4308096484375ZM5.5478510625,5.4687476484375L8.1732790625,6.9999996484375L5.5478510625,8.5313496484375L5.5478510625,5.4687476484375Z" /></g></g></svg>