<svg width="102" height="102" viewBox="0 0 102 102" fill="none" xmlns="http://www.w3.org/2000/svg">
<path d="M57 71.7L46.3 95.7L43.3 99.1L40.1 101.1H19.4C17.3 101.1 15.6 99.4 15.6 97.3V4.8C15.6 2.7 17.3 1 19.4 1H71C79.5 1 86.3 7.9 86.3 16.3V48L81.6 56.5L77.9 60.1L57 71.7Z" fill="white"/>
<path d="M86.3 44.6V48C86.3 52.3 84.1 55 84.1 55L44.6 98.9C44.6 98.9 42.2 101 40.4 101H37.3C41.1 101 44.1 97.9 44.2 94.2V66.5C44.2 62.3 47.6 59 51.7 59H72C75.9 58.9 86.3 47.5 86.3 44.6Z" fill="#CFCFCF"/>
<path d="M68.5 58.9H71C79.4 58.9 86.3 52.1 86.3 43.6V40.7L68.5 58.9Z" fill="white"/>
<path d="M31.9 101H37.4C41.2 101 44.3 97.9 44.3 94.1V88.4L31.9 101Z" fill="white"/>
</svg>