
<svg width="412" height="100" viewBox="0 0 412 100" fill="none" xmlns="http://www.w3.org/2000/svg">
<g clip-path="url(#clip0_48_6178)">
<path d="M41.4 71.7L30.7 95.7L27.7 99.1L24.5 101.1H3.8C1.7 101.1 0 99.4 0 97.3V4.8C0 2.7 1.7 1 3.8 1H55.4C63.9 1 70.7 7.9 70.7 16.3V48L66 56.5L62.3 60.1L41.4 71.7Z" fill="white"/>
<path d="M70.7 44.6V48C70.7 52.3 68.5 55 68.5 55L29 98.9C29 98.9 26.6 101 24.8 101H21.7C25.5 101 28.5 97.9 28.6 94.2V66.5C28.6 62.3 32 59 36.1 59H56.4C60.3 58.9 70.7 47.5 70.7 44.6Z" fill="#CFCFCF"/>
<path d="M52.9 58.9H55.4C63.8 58.9 70.7 52.1 70.7 43.6V40.7L52.9 58.9Z" fill="white"/>
<path d="M16.3 101H21.8C25.6 101 28.7 97.9 28.7 94.1V88.4L16.3 101Z" fill="white"/>
<path d="M124.7 14.8C129.2 14.8 133.3 15.5 137.2 16.9C141 18.3 144.4 20.5 147.2 23.3C150 26.1 152.2 29.7 153.8 34C155.4 38.3 156.2 43.3 156.2 49C156.2 54 155.6 58.7 154.3 63C153 67.3 151.1 70.9 148.4 74C145.8 77.1 142.5 79.5 138.6 81.3C134.7 83.1 130.1 84 124.8 84H94.9V14.8H124.7ZM123.6 71.2C125.8 71.2 127.9 70.8 130 70.1C132.1 69.4 133.9 68.2 135.5 66.6C137.1 65 138.4 62.8 139.4 60.2C140.4 57.6 140.9 54.3 140.9 50.5C140.9 47 140.6 43.9 139.9 41.1C139.2 38.3 138.1 35.9 136.6 33.9C135 31.9 133 30.4 130.4 29.3C127.8 28.2 124.7 27.7 121 27.7H110.1V71.3H123.6V71.2Z" fill="white"/>
<path d="M164.2 48.1C165.4 44.8 167.2 42.1 169.4 39.8C171.7 37.5 174.4 35.7 177.5 34.5C180.7 33.2 184.2 32.6 188.2 32.6C192.1 32.6 195.7 33.2 198.9 34.5C202.1 35.8 204.8 37.5 207.1 39.8C209.4 42.1 211.1 44.9 212.3 48.1C213.5 51.4 214.1 55 214.1 59C214.1 63 213.5 66.6 212.3 69.9C211.1 73.1 209.3 75.9 207.1 78.2C204.8 80.5 202.1 82.3 198.9 83.5C195.7 84.7 192.1 85.3 188.2 85.3C184.3 85.3 180.7 84.7 177.5 83.5C174.3 82.3 171.6 80.5 169.4 78.2C167.1 75.9 165.4 73.1 164.2 69.9C163 66.7 162.4 63.1 162.4 59C162.3 55 162.9 51.4 164.2 48.1ZM176.7 64.9C177.1 66.8 177.7 68.5 178.7 70C179.6 71.5 180.9 72.7 182.4 73.6C184 74.5 185.9 75 188.2 75C190.5 75 192.5 74.5 194.1 73.6C195.7 72.7 196.9 71.5 197.9 70C198.8 68.5 199.5 66.8 199.9 64.9C200.3 63 200.5 61 200.5 59C200.5 57 200.3 55 199.9 53.1C199.5 51.2 198.8 49.5 197.9 48C197 46.5 195.7 45.3 194.1 44.4C192.5 43.5 190.6 43 188.2 43C185.8 43 183.9 43.5 182.4 44.4C180.8 45.3 179.6 46.5 178.7 48C177.8 49.5 177.1 51.2 176.7 53.1C176.3 55 176.1 57 176.1 59C176.1 61 176.3 63 176.7 64.9Z" fill="white"/>
<path d="M245.3 42.9C243.1 42.9 241.3 43.4 239.8 44.4C238.3 45.4 237.1 46.7 236.2 48.3C235.3 49.9 234.6 51.6 234.2 53.5C233.8 55.4 233.6 57.3 233.6 59.2C233.6 61 233.8 62.9 234.2 64.7C234.6 66.6 235.2 68.3 236.1 69.8C237 71.3 238.2 72.6 239.6 73.5C241.1 74.5 242.9 75 245 75C248.3 75 250.8 74.1 252.6 72.2C254.4 70.4 255.5 67.9 255.9 64.8H269.2C268.3 71.5 265.7 76.5 261.4 80C257.1 83.5 251.7 85.2 245 85.2C241.3 85.2 237.8 84.6 234.7 83.3C231.6 82 228.9 80.3 226.7 78C224.5 75.7 222.8 73 221.6 69.9C220.4 66.8 219.8 63.3 219.8 59.6C219.8 55.7 220.4 52.1 221.5 48.8C222.6 45.5 224.3 42.6 226.5 40.2C228.7 37.8 231.4 35.9 234.5 34.5C237.7 33.1 241.3 32.5 245.4 32.5C248.4 32.5 251.2 32.9 254 33.7C256.7 34.5 259.2 35.7 261.4 37.2C263.6 38.8 265.3 40.8 266.7 43.1C268.1 45.5 268.8 48.3 269 51.5H255.5C254.5 45.8 251.2 42.9 245.3 42.9Z" fill="white"/>
<path d="M309.6 14.8C313.9 14.8 317.6 15.4 320.6 16.7C323.6 18 326.1 19.6 328 21.7C329.9 23.8 331.3 26.1 332.2 28.8C333.1 31.4 333.5 34.2 333.5 37C333.5 39.8 333.1 42.5 332.2 45.2C331.3 47.9 329.9 50.3 328 52.3C326.1 54.4 323.6 56 320.6 57.3C317.6 58.6 313.9 59.2 309.6 59.2H293.6V84H278.4V14.8H309.6ZM305.5 47.4C307.2 47.4 308.9 47.3 310.5 47C312.1 46.7 313.5 46.2 314.8 45.5C316 44.8 317 43.7 317.8 42.4C318.5 41 318.9 39.3 318.9 37.1C318.9 34.9 318.5 33.1 317.8 31.8C317.1 30.4 316.1 29.4 314.8 28.7C313.6 28 312.1 27.5 310.5 27.2C308.9 26.9 307.2 26.8 305.5 26.8H293.7V47.5H305.5V47.4Z" fill="white"/>
<path d="M337.6 49.3C337.8 46.1 338.6 43.4 340 41.3C341.4 39.2 343.2 37.5 345.4 36.2C347.6 34.9 350.1 34 352.8 33.4C355.5 32.9 358.3 32.6 361.1 32.6C363.6 32.6 366.2 32.8 368.8 33.1C371.4 33.5 373.7 34.2 375.9 35.2C378 36.2 379.8 37.7 381.1 39.5C382.4 41.3 383.1 43.8 383.1 46.8V72.9C383.1 75.2 383.2 77.3 383.5 79.4C383.8 81.5 384.2 83 384.9 84.1H370.9C370.6 83.3 370.4 82.5 370.3 81.7C370.1 80.9 370 80.1 370 79.2C367.8 81.5 365.2 83 362.2 83.9C359.2 84.8 356.2 85.3 353.1 85.3C350.7 85.3 348.5 85 346.4 84.4C344.3 83.8 342.5 82.9 341 81.7C339.4 80.5 338.2 78.9 337.4 77C336.5 75.1 336.1 72.9 336.1 70.3C336.1 67.5 336.6 65.1 337.6 63.3C338.6 61.5 339.9 60 341.5 58.9C343.1 57.8 344.9 57 346.9 56.4C348.9 55.9 351 55.4 353.1 55.1C355.2 54.8 357.2 54.5 359.2 54.3C361.2 54.1 363 53.8 364.5 53.4C366.1 53 367.3 52.4 368.2 51.7C369.1 51 369.5 49.9 369.5 48.5C369.5 47 369.3 45.8 368.8 45C368.3 44.1 367.7 43.4 366.9 43C366.1 42.5 365.2 42.2 364.1 42C363 41.8 361.9 41.8 360.7 41.8C358 41.8 355.9 42.4 354.3 43.5C352.7 44.7 351.8 46.6 351.6 49.3H337.6ZM369.4 59.5C368.8 60 368.1 60.4 367.2 60.7C366.3 61 365.4 61.2 364.4 61.4C363.4 61.6 362.3 61.8 361.3 61.9C360.2 62 359.1 62.2 358 62.4C357 62.6 355.9 62.9 354.9 63.2C353.9 63.5 353 64 352.3 64.5C351.6 65 351 65.7 350.5 66.6C350 67.4 349.8 68.5 349.8 69.8C349.8 71 350 72.1 350.5 72.9C351 73.7 351.6 74.4 352.3 74.9C353.1 75.4 354 75.7 355 75.9C356 76.1 357.1 76.2 358.2 76.2C360.9 76.2 363 75.7 364.5 74.8C366 73.9 367.1 72.8 367.8 71.6C368.5 70.3 368.9 69.1 369.1 67.8C369.3 66.5 369.3 65.5 369.3 64.7V59.5H369.4Z" fill="white"/>
<path d="M408 14.8V84H394.2V14.8H408Z" fill="white"/>
</g>
<defs>
<clipPath id="clip0_48_6178">
<rect width="412" height="100" fill="white"/>
</clipPath>
</defs>
</svg>