<svg xmlns="http://www.w3.org/2000/svg" xmlns:xlink="http://www.w3.org/1999/xlink" version="1.1" width="20" height="14" viewBox="0 0 20 14"><g><g><path d="M0,14.000036059570313L2.45602,14.000036059570313L3.30744,10.981756059570312L7.2207,10.981756059570312L8.07212,14.000036059570313L10.6264,14.000036059570313L6.74587,2.2288360595703125L3.88051,2.2288360595703125L0,14.000036059570313ZM3.83139,9.154916059570311L4.19161,7.868196059570312C4.55182,6.645006059570313,4.89567,5.310626059570312,5.22313,4.023896059570313L5.28863,4.023896059570313C5.64884,5.2788560595703125,5.97631,6.645006059570313,6.3529,7.868196059570312L6.71312,9.154916059570311L3.83139,9.154916059570311ZM11.8544,14.000036059570313L14.2613,14.000036059570313L14.2613,5.104116059570313L11.8544,5.104116059570313L11.8544,14.000036059570313Z" fill-opacity="1"/></g><g><path d="M16.6205178125,8.814927729492187L16.7432778125,8.790787729492187C16.9052978125,8.758917729492188,16.9052978125,8.534238729492188,16.7432778125,8.502367729492187L16.6205178125,8.478223729492187C16.3112278125,8.417386729492188,16.0695078125,8.182864729492188,16.0067978125,7.8827967294921875L15.9819178125,7.763691729492187C15.949067812500001,7.606499829492187,15.7174878125,7.606499829492187,15.6846388125,7.763691729492187L15.6597528125,7.8827967294921875C15.5970478125,8.182864729492188,15.3553218125,8.417387729492187,15.0460358125,8.478223729492187L14.9232738125,8.502367729492187C14.7612528125,8.534238729492188,14.7612528125,8.758917729492188,14.9232738125,8.790787729492187L15.0460358125,8.814927729492187C15.3553218125,8.875767729492187,15.5970478125,9.110287729492187,15.6597528125,9.410357729492187L15.6846388125,9.529457729492187C15.7174888125,9.686647729492186,15.949067812500001,9.686647729492186,15.9819178125,9.529457729492187L16.0067978125,9.410357729492187C16.0695078125,9.110287729492187,16.3112278125,8.875767729492187,16.6205178125,8.814927729492187Z" fill-opacity="1"/></g><g><path d="M14.9241178125,2.61181L15.5117578125,2.49623C15.7891778125,2.44164,15.7891778125,2.05698,15.5117578125,2.0024L14.9241178125,1.88682C14.3450378125,1.77291,13.8924578125,1.33382,13.7750478125,0.771989L13.6559078125,0.201861C13.5996478125,-0.0672869,13.2031778125,-0.0672869,13.1469178125,0.201861L13.0277778125,0.771989C12.9103678125,1.33382,12.4577978125,1.77291,11.8787098125,1.88682L11.2910688125,2.0024C11.0136540125,2.05698,11.0136540125,2.44164,11.2910688125,2.49623L11.8787098125,2.61181C12.4577978125,2.72572,12.9103678125,3.16481,13.0277778125,3.72664L13.1469178125,4.29677C13.2031778125,4.56592,13.5996478125,4.56592,13.6559078125,4.29677L13.7750478125,3.72664C13.892437812499999,3.16481,14.3450378125,2.72574,14.9241178125,2.61181Z" fill-opacity="1"/></g><g><path d="M19.38885484375,4.885982211914063L19.84014484375,4.797202211914063C20.05320484375,4.755292211914062,20.05320484375,4.4598622119140625,19.84014484375,4.4179622119140625L19.38885484375,4.329182211914063C18.94412484375,4.241682211914062,18.59655484375,3.904502211914062,18.50639484375,3.4730192119140626L18.414894843749998,3.0351752119140625C18.37169484375,2.8284646119140624,18.06719484375,2.8284646119140624,18.02401484375,3.0351752119140625L17.93251484375,3.4730192119140626C17.84233484375,3.904502211914062,17.49478484375,4.241702211914062,17.05005284375,4.329182211914063L16.59875984375,4.4179622119140625C16.38569994375,4.4598622119140625,16.38569994375,4.755292211914062,16.59875984375,4.797202211914063L17.05005284375,4.885982211914063C17.49478484375,4.973472211914062,17.84234484375,5.310662211914062,17.93251484375,5.742142211914063L18.02401484375,6.179982211914062C18.06721484375,6.386692211914062,18.37171484375,6.386692211914062,18.414894843749998,6.179982211914062L18.50639484375,5.742142211914063C18.59657484375,5.310682211914063,18.94416484375,4.973452211914062,19.38885484375,4.885982211914063Z" fill-opacity="1"/></g></g></svg>