<svg xmlns="http://www.w3.org/2000/svg" xmlns:xlink="http://www.w3.org/1999/xlink" fill="none" version="1.1" width="264.000244140625" height="59" viewBox="0 0 264.000244140625 59"><defs><clipPath id="master_svg0_23_9329/23_8978"><rect x="0" y="0" width="219.64791870117188" height="59" rx="0"/></clipPath><clipPath id="master_svg1_23_9329/23_8978/1_520"><rect x="16.36181640625" y="6.8076171875" width="187.25062561035156" height="45.38461685180664" rx="0"/></clipPath><linearGradient x1="0.23061904311180115" y1="0.2663285732269287" x2="0.6131449341773987" y2="0.5980359315872192" id="master_svg2_1_000"><stop offset="0%" stop-color="#1D3D78" stop-opacity="1"/><stop offset="71.61999940872192%" stop-color="#232D5A" stop-opacity="1"/><stop offset="82.81000256538391%" stop-color="#222F5D" stop-opacity="1"/><stop offset="91.79999828338623%" stop-color="#203467" stop-opacity="1"/><stop offset="100%" stop-color="#1D3D78" stop-opacity="1"/></linearGradient><linearGradient x1="0.7554261684417725" y1="0.7512778043746948" x2="0.49653977155685425" y2="0.4981444478034973" id="master_svg3_1_94"><stop offset="0%" stop-color="#0997BF" stop-opacity="1"/><stop offset="100%" stop-color="#17B2C0" stop-opacity="1"/></linearGradient><linearGradient x1="0.835893452167511" y1="0.8352660536766052" x2="0.4902704656124115" y2="0.4952177107334137" id="master_svg4_1_97"><stop offset="0%" stop-color="#0997BF" stop-opacity="1"/><stop offset="100%" stop-color="#17B2C0" stop-opacity="1"/></linearGradient><linearGradient x1="-0.216985285282135" y1="0.39718952775001526" x2="4.917570114135742" y2="1.4671982526779175" id="master_svg5_1_013"><stop offset="0%" stop-color="#17B2C0" stop-opacity="1"/><stop offset="100%" stop-color="#1587C9" stop-opacity="1"/></linearGradient><linearGradient x1="-1.5242631435394287" y1="0.03187648579478264" x2="4.553779602050781" y2="1.4375344514846802" id="master_svg6_1_007"><stop offset="0%" stop-color="#17B2C0" stop-opacity="1"/><stop offset="0.11698920279741287%" stop-color="#17B2C0" stop-opacity="1"/><stop offset="100%" stop-color="#1587C9" stop-opacity="1"/></linearGradient><linearGradient x1="-2.7039875984191895" y1="-0.20804747939109802" x2="3.66994309425354" y2="1.1949429512023926" id="master_svg7_1_019"><stop offset="0%" stop-color="#17B2C0" stop-opacity="1"/><stop offset="0.11698920279741287%" stop-color="#17B2C0" stop-opacity="1"/><stop offset="100%" stop-color="#1587C9" stop-opacity="1"/></linearGradient><linearGradient x1="-3.3943302631378174" y1="-0.19616909325122833" x2="2.3086605072021484" y2="0.8722932934761047" id="master_svg8_1_016"><stop offset="0%" stop-color="#17B2C0" stop-opacity="1"/><stop offset="0.11698920279741287%" stop-color="#17B2C0" stop-opacity="1"/><stop offset="100%" stop-color="#1587C9" stop-opacity="1"/></linearGradient><linearGradient x1="-5.003492832183838" y1="-0.6900075674057007" x2="1.4489669799804688" y2="0.715650200843811" id="master_svg9_1_010"><stop offset="0%" stop-color="#17B2C0" stop-opacity="1"/><stop offset="0.11698920279741287%" stop-color="#17B2C0" stop-opacity="1"/><stop offset="100%" stop-color="#1587C9" stop-opacity="1"/></linearGradient><linearGradient x1="-21.537992477416992" y1="-0.5341618657112122" x2="1.2326443195343018" y2="0.5343005657196045" id="master_svga_1_022"><stop offset="0%" stop-color="#17B2C0" stop-opacity="1"/><stop offset="0.11698920279741287%" stop-color="#17B2C0" stop-opacity="1"/><stop offset="100%" stop-color="#1587C9" stop-opacity="1"/></linearGradient></defs><g><g clip-path="url(#master_svg0_23_9329/23_8978)"><g clip-path="url(#master_svg1_23_9329/23_8978/1_520)"><g><g><g><path d="M35.08663702363968,38.5314171875C35.08663702363968,38.5314171875,30.26903702363968,49.2422171875,30.26903702363968,49.2422171875C30.26903702363968,49.2422171875,28.951037023639678,50.7399171875,28.951037023639678,50.7399171875C28.951037023639678,50.7399171875,27.49663702363968,51.6022171875,27.49663702363968,51.6022171875C27.49663702363968,51.6022171875,18.179557023639678,51.6022171875,18.179557023639678,51.6022171875C17.22512402363968,51.6022171875,16.49793702363968,50.8307171875,16.49793702363968,49.9230171875C16.49793702363968,49.9230171875,16.49793702363968,8.4868471875,16.49793702363968,8.4868471875C16.49793702363968,7.5791551875,17.22512402363968,6.8076171875,18.179557023639678,6.8076171875C18.179557023639678,6.8076171875,41.35863702363968,6.8076171875,41.35863702363968,6.8076171875C45.176337023639675,6.8076171875,48.22143702363968,9.8937671875,48.22143702363968,13.6606971875C48.22143702363968,13.6606971875,48.22143702363968,27.8661171875,48.22143702363968,27.8661171875C48.22143702363968,27.8661171875,46.08533702363968,31.6784171875,46.08533702363968,31.6784171875C46.08533702363968,31.6784171875,44.40373702363968,33.266817187499996,44.40373702363968,33.266817187499996C44.40373702363968,33.266817187499996,35.08663702363968,38.5314171875,35.08663702363968,38.5314171875Z" fill="#17B2C0" fill-opacity="1"/></g><g><path d="M48.22142139863968,26.368408203125C48.22142139863968,26.368408203125,48.22142139863968,27.911488203125,48.22142139863968,27.911488203125C48.22142139863968,29.863028203125,47.22152139863968,31.043028203125,47.22152139863968,31.043028203125C47.22152139863968,31.043028203125,29.49631139863968,50.694608203125,29.49631139863968,50.694608203125C29.49631139863968,50.694608203125,28.405531398639678,51.647608203125,27.632901398639678,51.647608203125C27.632901398639678,51.647608203125,26.26942139863968,51.647608203125,26.26942139863968,51.647608203125C27.951041398639678,51.647608203125,29.35996139863968,50.286108203124996,29.35996139863968,48.606908203125C29.35996139863968,48.606908203125,29.35996139863968,36.171488203125,29.35996139863968,36.171488203125C29.35996139863968,34.310718203125,30.85979139863968,32.813028203125,32.72320139863968,32.813028203125C32.72320139863968,32.813028203125,41.85852139863968,32.813028203125,41.85852139863968,32.813028203125C43.540121398639684,32.767638203125,48.22142139863968,27.684558203125,48.22142139863968,26.368408203125Z" fill="url(#master_svg2_1_000)" fill-opacity="1"/></g><g><path d="M40.22254639863968,32.767618671875C40.22254639863968,32.767618671875,41.35877639863968,32.767618671875,41.35877639863968,32.767618671875C45.13105639863968,32.767618671875,48.22160639863968,29.681468671875,48.22160639863968,25.914538671875C48.22160639863968,25.914538671875,48.22160639863968,24.598388671875,48.22160639863968,24.598388671875C48.22160639863968,24.598388671875,40.22254639863968,32.767618671875,40.22254639863968,32.767618671875Z" fill="url(#master_svg3_1_94)" fill-opacity="1"/></g><g><path d="M23.81531983613968,51.64770953125C23.81531983613968,51.64770953125,26.26957983613968,51.64770953125,26.26957983613968,51.64770953125C27.95119983613968,51.64770953125,29.36011983613968,50.286169531249996,29.36011983613968,48.56155953125C29.36011983613968,48.56155953125,29.36011983613968,46.02001953125,29.36011983613968,46.02001953125C29.36011983613968,46.02001953125,23.81531983613968,51.64770953125,23.81531983613968,51.64770953125Z" fill="url(#master_svg4_1_97)" fill-opacity="1"/></g></g><g><g><path d="M73.12766008272172,13.524487495422363C75.17286008272171,13.524487495422363,77.03626008272171,13.842179495422362,78.7633600827217,14.477564495422364C80.49036008272171,15.112947495422363,82.0356600827217,16.111407495422363,83.30826008272172,17.38217749542236C84.58086008272171,18.652947495422364,85.5806600827217,20.286797495422363,86.3078600827217,22.238337495422364C87.03506008272171,24.18988749542236,87.3986600827217,26.459087495422363,87.3986600827217,29.045987495422363C87.3986600827217,31.315287495422364,87.12596008272172,33.44828749542236,86.53516008272172,35.35448749542236C85.94426008272171,37.305987495422364,85.08076008272171,38.93988749542237,83.85366008272172,40.34678749542236C82.67196008272171,41.75368749542236,81.17216008272172,42.84298749542236,79.3995600827217,43.65988749542237C77.62706008272171,44.476787495422364,75.5364600827217,44.88528749542236,73.12766008272172,44.88528749542236C73.12766008272172,44.88528749542236,59.58376008272171,44.88528749542236,59.58376008272171,44.88528749542236C59.58376008272171,44.88528749542236,59.58376008272171,13.524487495422363,59.58376008272171,13.524487495422363C59.58376008272171,13.524487495422363,73.12766008272172,13.524487495422363,73.12766008272172,13.524487495422363ZM72.62766008272172,39.12138749542237C73.62756008272171,39.12138749542237,74.58196008272171,38.93988749542237,75.5364600827217,38.62218749542237C76.49086008272171,38.304487495422364,77.30896008272171,37.75988749542236,78.03616008272171,37.03368749542236C78.7633600827217,36.30758749542237,79.3541600827217,35.30908749542236,79.80866008272172,34.12908749542237C80.26316008272171,32.94908749542236,80.49036008272171,31.451387495422363,80.49036008272171,29.726787495422364C80.49036008272171,28.13828749542236,80.3540600827217,26.73138749542236,80.03586008272171,25.460687495422363C79.71776008272171,24.18988749542236,79.21776008272171,23.10063749542236,78.53606008272172,22.192947495422363C77.85436008272171,21.285257495422364,76.89986008272172,20.60448749542236,75.71826008272171,20.105257495422364C74.5365600827217,19.606027495422364,73.12766008272172,19.379107495422364,71.44596008272171,19.379107495422364C71.44596008272171,19.379107495422364,66.53749008272172,19.379107495422364,66.53749008272172,19.379107495422364C66.53749008272172,19.379107495422364,66.53749008272172,39.16678749542236,66.53749008272172,39.16678749542236C66.53749008272172,39.16678749542236,72.62766008272172,39.16678749542236,72.62766008272172,39.16678749542236C72.62766008272172,39.16678749542236,72.62766008272172,39.12138749542237,72.62766008272172,39.12138749542237Z" fill="url(#master_svg5_1_013)" fill-opacity="1"/></g><g><path d="M91.03465958272172,28.637720776672364C91.5800525827217,27.140020776672365,92.39813258272171,25.914640776672364,93.3980125827217,24.870790776672365C94.44334258272171,23.826950776672362,95.67047258272171,23.010020776672363,97.07940258272171,22.465408776672362C98.53377258272171,21.875408776672362,100.12449258272171,21.603100776672363,101.9424725827217,21.603100776672363C103.71497258272171,21.603100776672363,105.35117258272172,21.875408776672362,106.80557258272171,22.465408776672362C108.25987258272171,23.055410776672364,109.48707258272171,23.826950776672362,110.5323725827217,24.870790776672365C111.5776725827217,25.914640776672364,112.35037258272172,27.185410776672363,112.89567258272172,28.637720776672364C113.44107258272172,30.135410776672366,113.7137725827217,31.769300776672363,113.7137725827217,33.58460077667236C113.7137725827217,35.400000776672364,113.44107258272172,37.03390077667236,112.89567258272172,38.48620077667236C112.35037258272172,39.93850077667236,111.5322725827217,41.209300776672364,110.5323725827217,42.25310077667236C109.48707258272171,43.29690077667236,108.25987258272171,44.11390077667237,106.80557258272171,44.65850077667236C105.35117258272172,45.203100776672365,103.71497258272171,45.47540077667236,101.9424725827217,45.47540077667236C100.16994258272172,45.47540077667236,98.53377258272171,45.203100776672365,97.07940258272171,44.65850077667236C95.62503258272172,44.11390077667237,94.39789258272171,43.29690077667236,93.3980125827217,42.25310077667236C92.35268258272171,41.209300776672364,91.5800525827217,39.93850077667236,91.03465958272172,38.48620077667236C90.4892685827217,37.03390077667236,90.21657258272171,35.400000776672364,90.21657258272171,33.58460077667236C90.21657258272171,31.769300776672363,90.4892685827217,30.135410776672366,91.03465958272172,28.637720776672364ZM96.71580258272171,36.21690077667236C96.8976025827217,37.07930077667236,97.17030258272172,37.85080077667236,97.62479258272171,38.53160077667236C98.03383258272171,39.212300776672365,98.62467258272171,39.75690077667237,99.3064125827217,40.165400776672364C99.98814258272171,40.57390077667236,100.89717258272171,40.80080077667236,101.9424725827217,40.80080077667236C102.9877725827217,40.80080077667236,103.89677258272171,40.57390077667236,104.6239725827217,40.165400776672364C105.35117258272172,39.75690077667237,105.89657258272172,39.212300776672365,106.35107258272171,38.53160077667236C106.7600725827217,37.85080077667236,107.0781725827217,37.07930077667236,107.2599725827217,36.21690077667236C107.44177258272171,35.35460077667236,107.53267258272172,34.446900776672365,107.53267258272172,33.53930077667236C107.53267258272172,32.631600776672364,107.44177258272171,31.723900776672362,107.2599725827217,30.861560776672363C107.0781725827217,29.999250776672362,106.7600725827217,29.227720776672363,106.35107258272171,28.546950776672364C105.94197258272172,27.866180776672365,105.35117258272172,27.321560776672364,104.6239725827217,26.913100776672362C103.89677258272171,26.504640776672364,103.03327258272171,26.277720776672364,101.9424725827217,26.277720776672364C100.89717258272171,26.277720776672364,99.98814258272171,26.504640776672364,99.3064125827217,26.913100776672362C98.62467258272171,27.321560776672364,98.03383258272171,27.866180776672365,97.62479258272171,28.546950776672364C97.2157525827217,29.227720776672363,96.8976025827217,29.999250776672362,96.71580258272171,30.861560776672363C96.53401258272172,31.723900776672362,96.44311258272171,32.631600776672364,96.44311258272171,33.53930077667236C96.44311258272171,34.492300776672366,96.53401258272172,35.35460077667236,96.71580258272171,36.21690077667236Z" fill="url(#master_svg6_1_007)" fill-opacity="1"/></g><g><path d="M127.89397336397171,26.277690620422362C126.89407336397171,26.277690620422362,126.0759933639717,26.504610620422362,125.39425336397171,26.958460620422365C124.71252336397171,27.412310620422364,124.16713336397171,28.002300620422364,123.75809336397171,28.728460620422364C123.3490533639717,29.454610620422365,123.0309033639717,30.226150620422363,122.84910336397171,31.088460620422364C122.66731336397172,31.950790620422364,122.57641336397171,32.813090620422365,122.57641336397171,33.67539062042236C122.57641336397171,34.49229062042237,122.66731336397172,35.30919062042236,122.84910336397171,36.17149062042236C123.0309033639717,37.03389062042236,123.30359336397171,37.80539062042236,123.71264336397171,38.48619062042236C124.12168336397171,39.166890620422365,124.62162336397171,39.75689062042237,125.30336336397171,40.165390620422365C125.98510336397172,40.61919062042236,126.80317336397171,40.84619062042236,127.75757336397172,40.84619062042236C129.2574733639717,40.84619062042236,130.39367336397171,40.43769062042236,131.2117733639717,39.57539062042237C132.02987336397172,38.758490620422364,132.5297733639717,37.62389062042236,132.7115733639717,36.21689062042236C132.7115733639717,36.21689062042236,138.7562733639717,36.21689062042236,138.7562733639717,36.21689062042236C138.3472733639717,39.257690620422366,137.1655733639717,41.526890620422364,135.25677336397172,43.11539062042236C133.3023733639717,44.703890620422364,130.8481733639717,45.47539062042236,127.8030733639717,45.47539062042236C126.12144336397171,45.47539062042236,124.5307233639717,45.20309062042236,123.12180336397171,44.61309062042236C121.71287336397171,44.023090620422366,120.48574336397171,43.25149062042236,119.48586336397172,42.20769062042236C118.48598336397171,41.163890620422364,117.7133533639717,39.938490620422364,117.16796036397172,38.53149062042236C116.6225693639717,37.12459062042237,116.34987336397171,35.53619062042236,116.34987336397171,33.85689062042236C116.34987336397171,32.086890620422366,116.62256736397171,30.453070620422363,117.1225083639717,28.955380620422364C117.62245336397172,27.457690620422362,118.39508336397171,26.14154062042236,119.39496336397171,25.052310620422364C120.3948533639717,23.963070620422364,121.6219733639717,23.100770620422363,123.0309033639717,22.465382620422364C124.48527336397171,21.829998620422362,126.12144336397171,21.557690620422363,127.93937336397171,21.557690620422363C129.3028733639717,21.557690620422363,130.5754733639717,21.739229620422364,131.8480733639717,22.102306620422365C133.07517336397171,22.46538362042236,134.21137336397172,23.010000620422364,135.2112733639717,23.690770620422363C136.2111733639717,24.416920620422363,136.98377336397172,25.324610620422362,137.6200733639717,26.36846062042236C138.2563733639717,27.457690620422362,138.5745733639717,28.683070620422363,138.6654733639717,30.180770620422365C138.6654733639717,30.180770620422365,132.5297733639717,30.180770620422365,132.5297733639717,30.180770620422365C132.12077336397172,27.593840620422363,130.5754733639717,26.277690620422362,127.89397336397171,26.277690620422362Z" fill="url(#master_svg7_1_019)" fill-opacity="1"/></g><g><path d="M157.11761984834672,13.524487495422363C159.0720198483467,13.524487495422363,160.75361984834672,13.796795495422364,162.1171198483467,14.386795495422364C163.48051984834672,14.976797495422364,164.61681984834672,15.702947495422363,165.4803198483467,16.656027495422364C166.3438198483467,17.609107495422364,166.9801198483467,18.652947495422364,167.3892198483467,19.878337495422365C167.79821984834672,21.058337495422364,167.9800198483467,22.329107495422363,167.9800198483467,23.599887495422365C167.9800198483467,24.870687495422363,167.79821984834672,26.095987495422364,167.3892198483467,27.321387495422364C166.9801198483467,28.546787495422365,166.3438198483467,29.635987495422363,165.4803198483467,30.543687495422365C164.61681984834672,31.496787495422364,163.48051984834672,32.22298749542236,162.1171198483467,32.81298749542236C160.75361984834672,33.402987495422366,159.0720198483467,33.67528749542237,157.11761984834672,33.67528749542237C157.11761984834672,33.67528749542237,149.8457998483467,33.67528749542237,149.8457998483467,33.67528749542237C149.8457998483467,33.67528749542237,149.8457998483467,44.93068749542236,149.8457998483467,44.93068749542236C149.8457998483467,44.93068749542236,142.9375198483467,44.93068749542236,142.9375198483467,44.93068749542236C142.9375198483467,44.93068749542236,142.9375198483467,13.524487495422363,142.9375198483467,13.524487495422363C142.9375198483467,13.524487495422363,157.11761984834672,13.524487495422363,157.11761984834672,13.524487495422363ZM155.2088198483467,28.319887495422364C155.98141984834672,28.319887495422364,156.7541198483467,28.274487495422363,157.4812198483467,28.13828749542236C158.20841984834672,28.002187495422362,158.8447198483467,27.77528749542236,159.4355198483467,27.457587495422363C159.9809198483467,27.139887495422364,160.43541984834673,26.640687495422362,160.79901984834672,26.050687495422363C161.1172198483467,25.415287495422362,161.29901984834672,24.643687495422363,161.29901984834672,23.645287495422362C161.29901984834672,22.646797495422362,161.1172198483467,21.829867495422363,160.79901984834672,21.239867495422363C160.4809198483467,20.60448749542236,160.0264198483467,20.150637495422362,159.4355198483467,19.832947495422363C158.8902198483467,19.515257495422365,158.2539198483467,19.28833749542236,157.4812198483467,19.152177495422364C156.7541198483467,19.016027495422364,155.98141984834672,18.970637495422363,155.2088198483467,18.970637495422363C155.2088198483467,18.970637495422363,149.8457998483467,18.970637495422363,149.8457998483467,18.970637495422363C149.8457998483467,18.970637495422363,149.8457998483467,28.365287495422365,149.8457998483467,28.365287495422365C149.8457998483467,28.365287495422365,155.2088198483467,28.365287495422365,155.2088198483467,28.365287495422365C155.2088198483467,28.365287495422365,155.2088198483467,28.319887495422364,155.2088198483467,28.319887495422364Z" fill="url(#master_svg8_1_016)" fill-opacity="1"/></g><g><path d="M169.84359523897172,29.182330776672362C169.9344932389717,27.73002077667236,170.2980852389717,26.504640776672364,170.9343752389717,25.551560776672364C171.5706652389717,24.598480776672364,172.38874523897172,23.826950776672362,173.3886252389717,23.236950776672362C174.3885052389717,22.646950776672362,175.52473523897172,22.238486776672364,176.7518652389717,21.966178776672365C177.97899523897172,21.739255776672362,179.2515952389717,21.603100776672363,180.5241952389717,21.603100776672363C181.66039523897172,21.603100776672363,182.84209523897172,21.693869976672364,184.0236952389717,21.830023776672363C185.2053952389717,22.011562776672363,186.2506952389717,22.329255776672362,187.2505952389717,22.783100776672363C188.20509523897172,23.236950776672362,189.0231952389717,23.917720776672365,189.6139952389717,24.734640776672364C190.25029523897172,25.551560776672364,190.5229952389717,26.686180776672362,190.5229952389717,28.047720776672364C190.5229952389717,28.047720776672364,190.5229952389717,39.89310077667236,190.5229952389717,39.89310077667236C190.5229952389717,40.93690077667236,190.5683952389717,41.890000776672366,190.7047952389717,42.84310077667236C190.84109523897172,43.796200776672364,191.0228952389717,44.476900776672366,191.34109523897172,44.93080077667236C191.34109523897172,44.93080077667236,184.97819523897172,44.93080077667236,184.97819523897172,44.93080077667236C184.8417952389717,44.56770077667237,184.7508952389717,44.204600776672365,184.7054952389717,43.841600776672365C184.6145952389717,43.47850077667236,184.5690952389717,43.11540077667236,184.5690952389717,42.70690077667236C183.5691952389717,43.750800776672364,182.3875952389717,44.43160077667236,181.0694952389717,44.84000077667236C179.7060952389717,45.24850077667236,178.3425852389717,45.47540077667236,176.9336552389717,45.47540077667236C175.84287523897171,45.47540077667236,174.8430052389717,45.33930077667236,173.88856523897172,45.06690077667236C172.93413523897172,44.79460077667237,172.1160552389717,44.38620077667237,171.43431523897172,43.841600776672365C170.7525752389717,43.29690077667236,170.1617362389717,42.570800776672364,169.7981432389717,41.75390077667237C169.3891002389717,40.89160077667236,169.2072952389717,39.89310077667236,169.2072952389717,38.71310077667236C169.2072952389717,37.44230077667236,169.43454123897172,36.35310077667236,169.8890332389717,35.53620077667236C170.34352523897172,34.71930077667236,170.9343752389717,34.038500776672365,171.66156523897172,33.53930077667236C172.38874523897172,33.040000776672365,173.2068352389717,32.67690077667236,174.11581523897172,32.40460077667237C175.0247952389717,32.17770077667237,175.9792252389717,31.950800776672363,176.9336552389717,31.814600776672364C177.8880852389717,31.678500776672365,178.7970752389717,31.542330776672365,179.7060952389717,31.451560776672363C180.61499523897172,31.360790776672363,181.4330952389717,31.224640776672363,182.1148952389717,31.04310077667236C182.79659523897172,30.861560776672363,183.38739523897172,30.58926077667236,183.79649523897172,30.271560776672363C184.2054952389717,29.953870776672364,184.38729523897172,29.454640776672363,184.38729523897172,28.819250776672362C184.38729523897172,28.138490776672363,184.2963952389717,27.593870776672365,184.0691952389717,27.230790776672364C183.84189523897172,26.822330776672363,183.5691952389717,26.550020776672362,183.2056952389717,26.323100776672362C182.84209523897172,26.096180776672362,182.4329952389717,25.960020776672362,181.9330952389717,25.869250776672363C181.4330952389717,25.778490776672363,180.9331952389717,25.778480776672364,180.3877952389717,25.778480776672364C179.16066523897172,25.778480776672364,178.20623523897171,26.050790776672365,177.4790552389717,26.550020776672362C176.79731523897172,27.094640776672364,176.3428152389717,27.956950776672365,176.25191523897172,29.182330776672362C176.25191523897172,29.182330776672362,169.84359523897172,29.182330776672362,169.84359523897172,29.182330776672362ZM184.2963952389717,33.811600776672364C184.0236952389717,34.038500776672365,183.7055952389717,34.220000776672364,183.29649523897172,34.35620077667237C182.88749523897172,34.492300776672366,182.4784952389717,34.58310077667237,182.0239952389717,34.67390077667236C181.5694952389717,34.76460077667237,181.0694952389717,34.85540077667236,180.61499523897172,34.90080077667236C180.11509523897172,34.94620077667236,179.61519523897172,35.03690077667236,179.1152252389717,35.12770077667236C178.6607352389717,35.218500776672364,178.1607852389717,35.35460077667236,177.7062952389717,35.490800776672366C177.2518052389717,35.626900776672365,176.8427652389717,35.85390077667236,176.5246152389717,36.08080077667236C176.2064752389717,36.30770077667236,175.93378523897172,36.625400776672365,175.7065352389717,37.03390077667236C175.4792952389717,37.39690077667236,175.38838523897172,37.89620077667236,175.38838523897172,38.48620077667236C175.38838523897172,39.030800776672365,175.4792952389717,39.53000077667237,175.7065352389717,39.89310077667236C175.93378523897172,40.25620077667236,176.2064752389717,40.57390077667236,176.5246152389717,40.80080077667236C176.88820523897172,41.02770077667236,177.2972552389717,41.163900776672364,177.75174523897172,41.25460077667236C178.20624523897172,41.34540077667236,178.7061752389717,41.390800776672364,179.2061152389717,41.390800776672364C180.4331952389717,41.390800776672364,181.3876952389717,41.163900776672364,182.0693952389717,40.75540077667236C182.75119523897172,40.34690077667236,183.25109523897171,39.84770077667236,183.5691952389717,39.303100776672366C183.88739523897172,38.71310077667236,184.0691952389717,38.16850077667236,184.1600952389717,37.578500776672364C184.2509952389717,36.98850077667237,184.2509952389717,36.53460077667236,184.2509952389717,36.17160077667236C184.2509952389717,36.17160077667236,184.2509952389717,33.811600776672364,184.2509952389717,33.811600776672364C184.2509952389717,33.811600776672364,184.2963952389717,33.811600776672364,184.2963952389717,33.811600776672364Z" fill="url(#master_svg9_1_010)" fill-opacity="1"/></g><g><path d="M201.79421664522172,13.524487495422363C201.79421664522172,13.524487495422363,201.79421664522172,44.93068749542236,201.79421664522172,44.93068749542236C201.79421664522172,44.93068749542236,195.5222366452217,44.93068749542236,195.5222366452217,44.93068749542236C195.5222366452217,44.93068749542236,195.5222366452217,13.524487495422363,195.5222366452217,13.524487495422363C195.5222366452217,13.524487495422363,201.79421664522172,13.524487495422363,201.79421664522172,13.524487495422363Z" fill="url(#master_svga_1_022)" fill-opacity="1"/></g></g></g></g></g><g><g><path d="M212.25592041015625,45.30360375747681L218.61015041015625,45.30360375747681L220.81295041015625,37.580903757476804L230.93732041015625,37.580903757476804L233.14012041015624,45.30360375747681L239.74852041015626,45.30360375747681L229.70882041015625,15.185003757476807L222.29562041015626,15.185003757476807L212.25592041015625,45.30360375747681ZM222.16852041015625,32.9066037574768L223.10052041015626,29.614303757476804C224.03242041015625,26.48450375747681,224.92202041015625,23.070293757476808,225.76922041015624,19.777983757476807L225.93872041015624,19.777983757476807C226.87062041015625,22.98900375747681,227.71792041015624,26.48450375747681,228.69222041015624,29.614303757476804L229.62412041015625,32.9066037574768L222.16852041015625,32.9066037574768ZM242.92562041015626,45.30360375747681L249.15282041015627,45.30360375747681L249.15282041015627,22.541903757476806L242.92562041015626,22.541903757476806L242.92562041015626,45.30360375747681Z" fill="#1566C8" fill-opacity="1"/></g><g><path d="M255.25638806152344,32.036549776000975L255.57400806152344,31.974769776000976C255.99318806152343,31.893229776000975,255.99318806152343,31.318359776000975,255.57400806152344,31.236809776000975L255.25638806152344,31.175029776000976C254.45620806152343,31.01936977600098,253.83080806152344,30.419309776000976,253.66857806152345,29.651531776000976L253.60419806152345,29.34678277600098C253.51920806152344,28.944579776000978,252.92006806152344,28.944579776000978,252.83508806152344,29.34678277600098L252.77069806152343,29.651531776000976C252.60846806152344,30.419309776000976,251.98306806152343,31.019379776000978,251.18288606152345,31.175029776000976L250.86527406152345,31.236809776000975C250.44609306152344,31.318359776000975,250.44609306152344,31.893229776000975,250.86527406152345,31.974769776000976L251.18288606152345,32.036549776000975C251.98306806152343,32.19220977600098,252.60846806152344,32.792279776000974,252.77069806152343,33.560059776000976L252.83508806152344,33.864809776000975C252.92006806152344,34.267009776000975,253.51920806152344,34.267009776000975,253.60419806152345,33.864809776000975L253.66857806152345,33.560059776000976C253.83080806152344,32.792279776000974,254.45620806152343,32.19220977600098,255.25638806152344,32.036549776000975Z" fill="#1566C8" fill-opacity="1"/></g><g><path d="M250.86776700805663,16.164911494750974L252.38812700805664,15.869161494750976C253.10582700805665,15.729511494750977,253.10582700805665,14.745291494750976,252.38812700805664,14.605631494750977L250.86776700805663,14.309891494750977C249.36955700805663,14.018431494750978,248.19864700805664,12.894941494750977,247.89488700805663,11.457411494750977L247.58665700805665,9.998637494750977C247.44110700805663,9.309976494750977,246.41533700805664,9.309976494750977,246.26978700805665,9.998637494750977L245.96155700805664,11.457411494750977C245.65779700805663,12.894941494750977,244.48687700805664,14.018431494750978,242.98867700805664,14.309891494750977L241.46832500805664,14.605631494750977C240.75059400805665,14.745291494750976,240.75059400805665,15.729511494750977,241.46832500805664,15.869161494750976L242.98867700805664,16.164911494750974C244.48687700805664,16.456371494750975,245.65779700805663,17.57986149475098,245.96155700805664,19.017391494750974L246.26978700805665,20.476141494750976C246.41533700805664,21.164841494750977,247.44110700805663,21.164841494750977,247.58665700805665,20.476141494750976L247.89488700805663,19.017391494750974C248.19859700805665,17.57986149475098,249.36955700805663,16.456421494750977,250.86776700805663,16.164911494750974Z" fill="#1566C8" fill-opacity="1"/></g><g><path d="M262.41915041015625,21.98376286819458L263.58674041015627,21.75661286819458C264.13796041015627,21.64939286819458,264.13796041015627,20.89347286819458,263.58674041015627,20.78625286819458L262.41915041015625,20.55909286819458C261.26853041015625,20.33523286819458,260.36931041015623,19.47247286819458,260.1360404101562,18.36846286819458L259.89930041015623,17.24816086819458C259.78755041015626,16.71925686819458,258.99973041015625,16.71925686819458,258.88803041015626,17.24816086819458L258.65129041015626,18.36846286819458C258.4179704101563,19.47247286819458,257.51879041015627,20.33527286819458,256.36818041015624,20.55909286819458L255.20059241015625,20.78625286819458C254.64936341015624,20.89347286819458,254.64936341015624,21.64939286819458,255.20059241015625,21.75661286819458L256.36818041015624,21.98376286819458C257.51879041015627,22.20763286819458,258.41802041015626,23.07039286819458,258.65129041015626,24.17440286819458L258.88803041015626,25.29470286819458C258.99978041015623,25.82360286819458,259.78760041015624,25.82360286819458,259.89930041015623,25.29470286819458L260.1360404101562,24.17440286819458C260.3693604101563,23.07044286819458,261.2686304101563,22.20759286819458,262.41915041015625,21.98376286819458Z" fill="#1566C8" fill-opacity="1"/></g></g></g></svg>