<svg xmlns="http://www.w3.org/2000/svg" xmlns:xlink="http://www.w3.org/1999/xlink" version="1.1" width="20" height="20" viewBox="0 0 20 20"><defs><clipPath id="master_svg0_47_05164"><rect x="0" y="0" width="20" height="20" rx="0"/></clipPath></defs><g clip-path="url(#master_svg0_47_05164)"><g><rect x="0" y="0" width="20" height="20" rx="0" fill-opacity="0.009999999776482582"/></g><g><path d="M0.66650390625,18.3333259765625L0.66650390625,1.6666259765625Q0.66650390625,1.5681345765625,0.68571890625,1.4715359765625Q0.70493390625,1.3749369765625001,0.74262490625,1.2839429765625Q0.78031590625,1.1929479765625,0.83503390625,1.1110559765625Q0.88975290625,1.0291629765625,0.95939690625,0.9595189765625Q1.02904090625,0.8898749765625,1.11093390625,0.8351559765625Q1.19282590625,0.7804379765625,1.28382090625,0.7427469765625Q1.3748149062500001,0.7050559765625,1.47141390625,0.6858409765625Q1.56801250625,0.6666259765625,1.66650390625,0.6666259765625L18.33320390625,0.6666259765625Q18.43170390625,0.6666259765625,18.52830390625,0.6858409765625Q18.62490390625,0.7050559765625,18.71580390625,0.7427469765625Q18.80680390625,0.7804379765625,18.88870390625,0.8351559765625Q18.97060390625,0.8898749765625,19.04030390625,0.9595189765625Q19.10990390625,1.0291629765625,19.16460390625,1.1110559765625Q19.21940390625,1.1929479765625,19.25700390625,1.2839429765625Q19.29470390625,1.3749369765625001,19.31390390625,1.4715359765625Q19.33320390625,1.5681345765625,19.33320390625,1.6666259765625L19.33320390625,18.3333259765625Q19.33320390625,18.4318259765625,19.31390390625,18.5284259765625Q19.29470390625,18.6250259765625,19.25700390625,18.7159259765625Q19.21940390625,18.8069259765625,19.16460390625,18.8888259765625Q19.10990390625,18.9707259765625,19.04030390625,19.0404259765625Q18.97060390625,19.1100259765625,18.88870390625,19.1647259765625Q18.80680390625,19.2195259765625,18.71580390625,19.2571259765625Q18.62490390625,19.2948259765625,18.52830390625,19.3140259765625Q18.43170390625,19.3333259765625,18.33320390625,19.3333259765625L1.66650390625,19.3333259765625Q1.56801250625,19.3333259765625,1.47141390625,19.3140259765625Q1.3748149062500001,19.2948259765625,1.28382090625,19.2571259765625Q1.19282590625,19.2195259765625,1.11093390625,19.1647259765625Q1.02904090625,19.1100259765625,0.95939690625,19.0404259765625Q0.88975290625,18.9707259765625,0.83503390625,18.8888259765625Q0.78031590625,18.8069259765625,0.74262490625,18.7159259765625Q0.70493390625,18.6250259765625,0.68571890625,18.5284259765625Q0.66650390625,18.4318259765625,0.66650390625,18.3333259765625ZM2.66650390625,2.6666259765625L2.66650390625,17.3333259765625L17.33320390625,17.3333259765625L17.33320390625,2.6666259765625L2.66650390625,2.6666259765625Z"  fill-opacity="1"/></g><g><path d="M5.66650390625,5.6666259765625L1.66650390625,5.6666259765625Q1.56801250625,5.6666259765625,1.47141390625,5.6858359765625Q1.3748149062500001,5.7050559765625,1.28382090625,5.7427459765625Q1.19282590625,5.7804359765625,1.11093390625,5.8351559765625Q1.02904090625,5.8898759765625,0.95939690625,5.9595159765625Q0.88975290625,6.0291659765625,0.83503390625,6.1110559765625Q0.78031590625,6.1929459765625,0.74262490625,6.2839459765625Q0.70493390625,6.3749359765625,0.68571890625,6.4715359765625Q0.66650390625,6.5681359765625,0.66650390625,6.6666259765625Q0.66650390625,6.7651159765625,0.68571890625,6.8617159765625Q0.70493390625,6.9583159765625,0.74262490625,7.0493059765625Q0.78031590625,7.1403059765625,0.83503390625,7.2221959765625Q0.88975290625,7.3040859765625,0.95939690625,7.3737359765625Q1.02904090625,7.4433759765625,1.11093390625,7.4980959765625Q1.19282590625,7.5528159765625,1.28382090625,7.5905059765625Q1.3748149062500001,7.6281959765625,1.47141390625,7.6474059765625Q1.56801250625,7.6666259765625,1.66650390625,7.6666259765625L6.66650390625,7.6666259765625Q6.76499390625,7.6666259765625,6.86159390625,7.6474059765625Q6.95819390625,7.6281959765625,7.04918390625,7.5905059765625Q7.14018390625,7.5528159765625,7.22207390625,7.4980959765625Q7.30396390625,7.4433759765625,7.37361390625,7.3737359765625Q7.44325390625,7.3040859765625,7.49797390625,7.2221959765625Q7.55269390625,7.1403059765625,7.59038390625,7.0493059765625Q7.62807390625,6.9583159765625,7.64728390625,6.8617159765625Q7.66650390625,6.7651159765625,7.66650390625,6.6666259765625L7.66650390625,1.6666259765625Q7.66650390625,1.5681345765625,7.64728390625,1.4715359765625Q7.62807390625,1.3749369765625001,7.59038390625,1.2839429765625Q7.55269390625,1.1929479765625,7.49797390625,1.1110559765625Q7.44325390625,1.0291629765625,7.37361390625,0.9595189765625Q7.30396390625,0.8898749765625,7.22207390625,0.8351559765625Q7.14018390625,0.7804379765625,7.04918390625,0.7427469765625Q6.95819390625,0.7050559765625,6.86159390625,0.6858409765625Q6.76499390625,0.6666259765625,6.66650390625,0.6666259765625Q6.56801390625,0.6666259765625,6.47141390625,0.6858409765625Q6.37481390625,0.7050559765625,6.28382390625,0.7427469765625Q6.19282390625,0.7804379765625,6.11093390625,0.8351559765625Q6.02904390625,0.8898749765625,5.95939390625,0.9595189765625Q5.88975390625,1.0291629765625,5.83503390625,1.1110559765625Q5.78031390625,1.1929479765625,5.74262390625,1.2839429765625Q5.70493390625,1.3749369765625001,5.68571390625,1.4715359765625Q5.66650390625,1.5681345765625,5.66650390625,1.6666259765625L5.66650390625,5.6666259765625Z" fill-rule="evenodd" fill-opacity="1"/></g><g><path d="M14,14L10,14Q9.9015086,14,9.80491,14.019210000000001Q9.708311,14.03843,9.617317,14.07612Q9.526322,14.11381,9.44443,14.16853Q9.362537,14.22325,9.292893,14.29289Q9.223249,14.36254,9.16853,14.44443Q9.113812,14.52632,9.076121,14.61732Q9.03843,14.70831,9.019214999999999,14.80491Q9,14.90151,9,15Q9,15.09849,9.019214999999999,15.19509Q9.03843,15.29169,9.076121,15.38268Q9.113812,15.47368,9.16853,15.55557Q9.223249,15.63746,9.292893,15.70711Q9.362537,15.77675,9.44443,15.83147Q9.526322,15.88619,9.617317,15.92388Q9.708311,15.96157,9.80491,15.98078Q9.9015086,16,10,16L15,16Q15.09849,16,15.19509,15.98078Q15.29169,15.96157,15.38268,15.92388Q15.47368,15.88619,15.55557,15.83147Q15.63746,15.77675,15.70711,15.70711Q15.77675,15.63746,15.83147,15.55557Q15.88619,15.47368,15.92388,15.38268Q15.96157,15.29169,15.98078,15.19509Q16,15.09849,16,15L16,10Q16,9.9015086,15.98078,9.80491Q15.96157,9.708311,15.92388,9.617317Q15.88619,9.526322,15.83147,9.44443Q15.77675,9.362537,15.70711,9.292893Q15.63746,9.223249,15.55557,9.16853Q15.47368,9.113812,15.38268,9.076121Q15.29169,9.03843,15.19509,9.019214999999999Q15.09849,9,15,9Q14.90151,9,14.80491,9.019214999999999Q14.70831,9.03843,14.61732,9.076121Q14.52632,9.113812,14.44443,9.16853Q14.36254,9.223249,14.29289,9.292893Q14.22325,9.362537,14.16853,9.44443Q14.11381,9.526322,14.07612,9.617317Q14.03843,9.708311,14.019210000000001,9.80491Q14,9.9015086,14,10L14,14Z" fill-rule="evenodd"  fill-opacity="1"/></g><g><path d="M10.707226,9.293012000000001L10.707107,9.292893Q10.566455,9.152241,10.382683,9.07612Q10.198912,9,10,9Q9.801088,9,9.617317,9.07612Q9.433545,9.152241,9.292893,9.292893Q9.152241,9.433545,9.07612,9.617317Q9,9.801088,9,10Q9,10.198912,9.07612,10.382683Q9.152241,10.566455,9.292893,10.707107L9.293012000000001,10.707226L14.29238,15.70659L14.29289,15.70711Q14.43355,15.847760000000001,14.61732,15.92388Q14.80109,16,15,16Q15.19891,16,15.38268,15.92388Q15.56645,15.847760000000001,15.70711,15.70711Q15.847760000000001,15.56645,15.92388,15.38268Q16,15.19891,16,15Q16,14.80109,15.92388,14.61732Q15.847760000000001,14.43355,15.70711,14.29289L15.70659,14.29238L10.707226,9.293012000000001Z" fill-rule="evenodd" fill-opacity="1"/></g><g><path d="M0.66650390625,2.5L0.66650390625,10.83333Q0.66650390625,10.93182,0.68571890625,11.02842Q0.70493390625,11.12502,0.74262490625,11.21602Q0.78031590625,11.30701,0.83503390625,11.3889Q0.88975290625,11.47079,0.95939690625,11.54044Q1.02904090625,11.61008,1.11093390625,11.6648Q1.19282590625,11.71952,1.28382090625,11.75721Q1.3748149062500001,11.7949,1.47141390625,11.81412Q1.56801250625,11.83333,1.66650390625,11.83333Q1.76499530625,11.83333,1.86159390625,11.81412Q1.9581929062499999,11.7949,2.04918690625,11.75721Q2.14018190625,11.71952,2.22207390625,11.6648Q2.30396690625,11.61008,2.37361090625,11.54044Q2.44325490625,11.47079,2.49797390625,11.3889Q2.5526919062499998,11.30701,2.59038290625,11.21601Q2.62807390625,11.12502,2.64728890625,11.02842Q2.66650390625,10.93182,2.66650390625,10.83333L2.66650390625,2.5Q2.66650390625,2.4015086,2.64728890625,2.30491Q2.62807390625,2.208311,2.59038290625,2.117317Q2.5526919062499998,2.026322,2.49797390625,1.94443Q2.44325490625,1.862537,2.37361090625,1.7928929999999998Q2.30396690625,1.723249,2.22207390625,1.66853Q2.14018190625,1.613812,2.04918690625,1.576121Q1.9581929062499999,1.53843,1.86159390625,1.519215Q1.76499530625,1.5,1.66650390625,1.5Q1.56801250625,1.5,1.47141390625,1.519215Q1.3748149062500001,1.53843,1.28382090625,1.576121Q1.19282590625,1.613812,1.11093390625,1.66853Q1.02904090625,1.723249,0.95939690625,1.7928929999999998Q0.88975290625,1.862537,0.83503390625,1.94443Q0.78031590625,2.026322,0.74262490625,2.117317Q0.70493390625,2.208311,0.68571890625,2.30491Q0.66650390625,2.4015086,0.66650390625,2.5Z" fill-rule="evenodd" fill-opacity="1"/></g><g><path d="M2.91650390625,2.6666259765625L11.24983390625,2.6666259765625Q11.34832390625,2.6666259765625,11.44492390625,2.6474109765625Q11.54152390625,2.6281959765625,11.63252390625,2.5905049765625Q11.72351390625,2.5528139765624998,11.80540390625,2.4980959765625Q11.88729390625,2.4433769765625,11.95694390625,2.3737329765625Q12.02658390625,2.3040889765625,12.08130390625,2.2221959765625Q12.13602390625,2.1403039765625,12.17371390625,2.0493089765625Q12.21140390625,1.9583149765624999,12.23062390625,1.8617159765625Q12.24983390625,1.7651173765625,12.24983390625,1.6666259765625Q12.24983390625,1.5681345765625,12.23062390625,1.4715359765625Q12.21140390625,1.3749369765625001,12.17371390625,1.2839429765625Q12.13602390625,1.1929479765625,12.08130390625,1.1110559765625Q12.02658390625,1.0291629765625,11.95694390625,0.9595189765625Q11.88729390625,0.8898749765625,11.80540390625,0.8351559765625Q11.72351390625,0.7804379765625,11.63251390625,0.7427469765625Q11.54152390625,0.7050559765625,11.44492390625,0.6858409765625Q11.34832390625,0.6666259765625,11.24983390625,0.6666259765625L2.91650390625,0.6666259765625Q2.81801250625,0.6666259765625,2.72141390625,0.6858409765625Q2.62481490625,0.7050559765625,2.53382090625,0.7427469765625Q2.44282590625,0.7804379765625,2.36093390625,0.8351559765625Q2.27904090625,0.8898749765625,2.20939690625,0.9595189765625Q2.13975290625,1.0291629765625,2.08503390625,1.1110559765625Q2.0303159062500002,1.1929479765625,1.99262490625,1.2839429765625Q1.95493390625,1.3749369765625001,1.93571890625,1.4715359765625Q1.91650390625,1.5681345765625,1.91650390625,1.6666259765625Q1.91650390625,1.7651173765625,1.93571890625,1.8617159765625Q1.95493390625,1.9583149765624999,1.99262490625,2.0493089765625Q2.0303159062500002,2.1403039765625,2.08503390625,2.2221959765625Q2.13975290625,2.3040889765625,2.20939690625,2.3737329765625Q2.27904090625,2.4433769765625,2.36093390625,2.4980959765625Q2.44282590625,2.5528139765624998,2.53382090625,2.5905049765625Q2.62481490625,2.6281959765625,2.72141390625,2.6474109765625Q2.81801250625,2.6666259765625,2.91650390625,2.6666259765625Z" fill-rule="evenodd" fill-opacity="1"/></g></g></svg>