<svg xmlns="http://www.w3.org/2000/svg" xmlns:xlink="http://www.w3.org/1999/xlink" fill="none" version="1.1" width="20" height="20" viewBox="0 0 20 20"><defs><clipPath id="master_svg0_47_05083"><rect x="0" y="0" width="20" height="20" rx="0"/></clipPath></defs><g clip-path="url(#master_svg0_47_05083)"><g><path d="M16.5,3.5L16.5,6.25Q16.5,6.34849,16.51921,6.44509Q16.538429999999998,6.54169,16.57612,6.63268Q16.61381,6.72368,16.66853,6.80557Q16.72325,6.88746,16.79289,6.95711Q16.86254,7.02675,16.94443,7.08147Q17.02632,7.13619,17.11732,7.17388Q17.20831,7.21157,17.30491,7.23078Q17.401510000000002,7.25,17.5,7.25Q17.598489999999998,7.25,17.69509,7.23078Q17.79169,7.21157,17.88268,7.17388Q17.97368,7.13619,18.05557,7.08147Q18.13746,7.02675,18.20711,6.95711Q18.27675,6.88746,18.33147,6.80557Q18.38619,6.72368,18.42388,6.63268Q18.461570000000002,6.54169,18.48078,6.44509Q18.5,6.34849,18.5,6.25L18.5,2.5Q18.5,2.4015086,18.48078,2.30491Q18.461570000000002,2.208311,18.42388,2.117317Q18.38619,2.026322,18.33147,1.94443Q18.27675,1.862537,18.20711,1.7928929999999998Q18.13746,1.723249,18.05557,1.66853Q17.97368,1.613812,17.88268,1.576121Q17.79169,1.53843,17.69509,1.519215Q17.598489999999998,1.5,17.5,1.5L13.75,1.5Q13.6515086,1.5,13.55491,1.519215Q13.458311,1.53843,13.367317,1.576121Q13.276322,1.613812,13.19443,1.66853Q13.112537,1.723249,13.042893,1.7928929999999998Q12.973249,1.862537,12.91853,1.94443Q12.863812,2.026322,12.826121,2.117317Q12.78843,2.208311,12.769214999999999,2.30491Q12.75,2.4015086,12.75,2.5Q12.75,2.5984914,12.769214999999999,2.69509Q12.78843,2.791689,12.826121,2.882683Q12.863812,2.973678,12.91853,3.05557Q12.973249,3.137463,13.042893,3.207107Q13.112537,3.276751,13.19443,3.33147Q13.276322,3.3861879999999998,13.367317,3.423879Q13.458311,3.46157,13.55491,3.480785Q13.6515086,3.5,13.75,3.5L16.5,3.5Z" fill-rule="evenodd"  fill-opacity="1"/></g><g><path d="M16.5,16.5L13.75,16.5Q13.6515086,16.5,13.55491,16.51921Q13.458311,16.538429999999998,13.367317,16.57612Q13.276322,16.61381,13.19443,16.66853Q13.112537,16.72325,13.042893,16.79289Q12.973249,16.86254,12.91853,16.94443Q12.863812,17.02632,12.826121,17.11732Q12.78843,17.20831,12.769214999999999,17.30491Q12.75,17.401510000000002,12.75,17.5Q12.75,17.598489999999998,12.769214999999999,17.69509Q12.78843,17.79169,12.826121,17.88268Q12.863812,17.97368,12.91853,18.05557Q12.973249,18.13746,13.042893,18.20711Q13.112537,18.27675,13.19443,18.33147Q13.276322,18.38619,13.367317,18.42388Q13.458311,18.461570000000002,13.55491,18.48078Q13.6515086,18.5,13.75,18.5L17.5,18.5Q17.598489999999998,18.5,17.69509,18.48078Q17.79169,18.461570000000002,17.88268,18.42388Q17.97368,18.38619,18.05557,18.33147Q18.13746,18.27675,18.20711,18.20711Q18.27675,18.13746,18.33147,18.05557Q18.38619,17.97368,18.42388,17.88268Q18.461570000000002,17.79169,18.48078,17.69509Q18.5,17.598489999999998,18.5,17.5L18.5,13.75Q18.5,13.6515086,18.48078,13.55491Q18.461570000000002,13.458311,18.42388,13.367317Q18.38619,13.276322,18.33147,13.19443Q18.27675,13.112537,18.20711,13.042893Q18.13746,12.973249,18.05557,12.91853Q17.97368,12.863812,17.88268,12.826121Q17.79169,12.78843,17.69509,12.769214999999999Q17.598489999999998,12.75,17.5,12.75Q17.401510000000002,12.75,17.30491,12.769214999999999Q17.20831,12.78843,17.11732,12.826121Q17.02632,12.863812,16.94443,12.91853Q16.86254,12.973249,16.79289,13.042893Q16.72325,13.112537,16.66853,13.19443Q16.61381,13.276322,16.57612,13.367317Q16.538429999999998,13.458311,16.51921,13.55491Q16.5,13.6515086,16.5,13.75L16.5,16.5Z" fill-rule="evenodd" /></g><g><path d="M3.5,16.5L3.5,13.75Q3.5,13.6515086,3.480785,13.55491Q3.46157,13.458311,3.423879,13.367317Q3.3861879999999998,13.276322,3.33147,13.19443Q3.276751,13.112537,3.207107,13.042893Q3.137463,12.973249,3.05557,12.91853Q2.973678,12.863812,2.882683,12.826121Q2.791689,12.78843,2.69509,12.769214999999999Q2.5984914,12.75,2.5,12.75Q2.4015086,12.75,2.30491,12.769214999999999Q2.208311,12.78843,2.117317,12.826121Q2.026322,12.863812,1.94443,12.91853Q1.862537,12.973249,1.7928929999999998,13.042893Q1.723249,13.112537,1.66853,13.19443Q1.613812,13.276322,1.576121,13.367317Q1.53843,13.458311,1.519215,13.55491Q1.5,13.6515086,1.5,13.75L1.5,17.5Q1.5,17.598489999999998,1.519215,17.69509Q1.53843,17.79169,1.576121,17.88268Q1.613812,17.97368,1.66853,18.05557Q1.723249,18.13746,1.7928929999999998,18.20711Q1.862537,18.27675,1.94443,18.33147Q2.026322,18.38619,2.117317,18.42388Q2.208311,18.461570000000002,2.30491,18.48078Q2.4015086,18.5,2.5,18.5L6.25,18.5Q6.34849,18.5,6.44509,18.48078Q6.54169,18.461570000000002,6.63268,18.42388Q6.72368,18.38619,6.80557,18.33147Q6.88746,18.27675,6.95711,18.20711Q7.02675,18.13746,7.08147,18.05557Q7.13619,17.97368,7.17388,17.88268Q7.21157,17.79169,7.23078,17.69509Q7.25,17.598489999999998,7.25,17.5Q7.25,17.401510000000002,7.23078,17.30491Q7.21157,17.20831,7.17388,17.11732Q7.13619,17.02632,7.08147,16.94443Q7.02675,16.86254,6.95711,16.79289Q6.88746,16.72325,6.80557,16.66853Q6.72368,16.61381,6.63268,16.57612Q6.54169,16.538429999999998,6.44509,16.51921Q6.34849,16.5,6.25,16.5L3.5,16.5Z" /></g><g><path d="M3.5,3.5L6.25,3.5Q6.34849,3.5,6.44509,3.480785Q6.54169,3.46157,6.63268,3.423879Q6.72368,3.3861879999999998,6.80557,3.33147Q6.88746,3.276751,6.95711,3.207107Q7.02675,3.137463,7.08147,3.05557Q7.13619,2.973678,7.17388,2.882683Q7.21157,2.791689,7.23078,2.69509Q7.25,2.5984914,7.25,2.5Q7.25,2.4015086,7.23078,2.30491Q7.21157,2.208311,7.17388,2.117317Q7.13619,2.026322,7.08147,1.94443Q7.02675,1.862537,6.95711,1.7928929999999998Q6.88746,1.723249,6.80557,1.66853Q6.72368,1.613812,6.63268,1.576121Q6.54169,1.53843,6.44509,1.519215Q6.34849,1.5,6.25,1.5L2.5,1.5Q2.4015086,1.5,2.30491,1.519215Q2.208311,1.53843,2.117317,1.576121Q2.026322,1.613812,1.94443,1.66853Q1.862537,1.723249,1.7928929999999998,1.7928929999999998Q1.723249,1.862537,1.66853,1.94443Q1.613812,2.026322,1.576121,2.117317Q1.53843,2.208311,1.519215,2.30491Q1.5,2.4015086,1.5,2.5L1.5,6.25Q1.5,6.34849,1.519215,6.44509Q1.53843,6.54169,1.576121,6.63268Q1.613812,6.72368,1.66853,6.80557Q1.723249,6.88746,1.7928929999999998,6.95711Q1.862537,7.02675,1.94443,7.08147Q2.026322,7.13619,2.117317,7.17388Q2.208311,7.21157,2.30491,7.23078Q2.4015086,7.25,2.5,7.25Q2.5984914,7.25,2.69509,7.23078Q2.791689,7.21157,2.882683,7.17388Q2.973678,7.13619,3.05557,7.08147Q3.137463,7.02675,3.207107,6.95711Q3.276751,6.88746,3.33147,6.80557Q3.3861879999999998,6.72368,3.423879,6.63268Q3.46157,6.54169,3.480785,6.44509Q3.5,6.34849,3.5,6.25L3.5,3.5Z" /></g></g></svg>