<svg xmlns="http://www.w3.org/2000/svg" xmlns:xlink="http://www.w3.org/1999/xlink" version="1.1" width="12" height="12" viewBox="0 0 12 12"><defs><clipPath id="master_svg0_106_19318"><rect x="0" y="0" width="12" height="12" rx="0"/></clipPath></defs><g clip-path="url(#master_svg0_106_19318)"><g><path d="M5,2.5C5,1.947715,5.447715,1.5,6,1.5C6.55228,1.5,7,1.947715,7,2.5C7,3.05228,6.55228,3.5,6,3.5C5.447715,3.5,5,3.05228,5,2.5C5,2.5,5,2.5,5,2.5ZM5,6C5,5.44772,5.447715,5,6,5C6.55228,5,7,5.44772,7,6C7,6.5523,6.55228,7,6,7C5.447715,7,5,6.5523,5,6C5,6,5,6,5,6ZM5,9.5C5,8.947700000000001,5.447715,8.5,6,8.5C6.55228,8.5,7,8.947700000000001,7,9.5C7,10.0523,6.55228,10.5,6,10.5C5.447715,10.5,5,10.0523,5,9.5C5,9.5,5,9.5,5,9.5Z" fill-rule="evenodd" fill-opacity="1"/></g></g></svg>