<svg xmlns="http://www.w3.org/2000/svg" xmlns:xlink="http://www.w3.org/1999/xlink" version="1.1" width="24" height="24" viewBox="0 0 24 24"><defs><clipPath id="master_svg0_1_07205"><rect x="0" y="0" width="24" height="24" rx="0"/></clipPath></defs><g clip-path="url(#master_svg0_1_07205)"><g><path d="M22.70709487400055,1.292893105026245C22.97879487400055,1.5645311050262452,23.070794874000548,1.9677631050262452,22.94389487400055,2.330352105026245C22.94389487400055,2.330352105026245,15.943894874000549,22.330372105026246,15.943894874000549,22.330372105026246C15.80839487400055,22.717372105026246,15.45039487400055,22.982472105026247,15.04079487400055,22.999172105026243C14.63109487400055,23.015872105026244,14.25269487400055,22.780772105026244,14.08619487400055,22.406172105026243C14.08619487400055,22.406172105026243,10.24239487400055,13.757572105026245,10.24239487400055,13.757572105026245C10.24239487400055,13.757572105026245,1.5938618740005492,9.913812105026246,1.5938618740005492,9.913812105026246C1.2191808740005494,9.747282105026246,0.9841173740005493,9.368912105026245,1.0008311590005494,8.959232105026246C1.0175449740005493,8.549562105026245,1.2826488740005493,8.191592105026245,1.6696498740005494,8.056142105026245C1.6696498740005494,8.056142105026245,21.669694874000548,1.056141605026245,21.669694874000548,1.056141605026245C22.03219487400055,0.9292362050262452,22.43549487400055,1.0212553050262452,22.70709487400055,1.292893105026245C22.70709487400055,1.292893105026245,22.70709487400055,1.292893105026245,22.70709487400055,1.292893105026245ZM12.19279487400055,13.221472105026246C12.19279487400055,13.221472105026246,14.88939487400055,19.288972105026247,14.88939487400055,19.288972105026247C14.88939487400055,19.288972105026247,19.60849487400055,5.8056821050262455,19.60849487400055,5.8056821050262455C19.60849487400055,5.8056821050262455,12.19279487400055,13.221472105026246,12.19279487400055,13.221472105026246C12.19279487400055,13.221472105026246,12.19279487400055,13.221472105026246,12.19279487400055,13.221472105026246ZM18.194294874000548,4.391472105026246C18.194294874000548,4.391472105026246,4.711074874000549,9.110602105026246,4.711074874000549,9.110602105026246C4.711074874000549,9.110602105026246,10.778534874000549,11.807272105026245,10.778534874000549,11.807272105026245C10.778534874000549,11.807272105026245,18.194294874000548,4.391472105026246,18.194294874000548,4.391472105026246C18.194294874000548,4.391472105026246,18.194294874000548,4.391472105026246,18.194294874000548,4.391472105026246Z" /></g></g></svg>