<?xml version="1.0" encoding="utf-8"?>
<!-- Generator: Adobe Illustrator 27.2.0, SVG Export Plug-In . SVG Version: 6.00 Build 0)  -->
<svg version="1.1" id="Layer_1" xmlns="http://www.w3.org/2000/svg" xmlns:xlink="http://www.w3.org/1999/xlink" x="0px" y="0px"
	 viewBox="0 0 16 16" style="enable-background:new 0 0 16 16;" xml:space="preserve">
<path d="M14.6,4l-2.6-2.6c-0.1-0.1-0.2-0.1-0.3-0.1H2.8c-0.7,0-1.3,0.6-1.3,1.3V13c0,0.7,0.6,1.3,1.3,1.3h10.5
	c0.7,0,1.3-0.6,1.3-1.3V4.3C14.7,4.2,14.6,4,14.6,4z M9.9,2.1v2.6H6.4V2.1H9.9z M4.6,13.5v-3.1C4.6,10.2,4.8,10,5,10h6.1
	c0.2,0,0.4,0.2,0.4,0.4v3.1H4.6z M13.8,13c0,0.2-0.2,0.4-0.4,0.4h-0.9v-3.1c0-0.7-0.6-1.3-1.3-1.3H5c-0.7,0-1.3,0.6-1.3,1.3v3.1H2.8
	c-0.2,0-0.4-0.2-0.4-0.4V2.5c0-0.2,0.2-0.4,0.4-0.4h2.6v2.6c0,0.5,0.4,0.9,0.9,0.9h3.5c0.5,0,0.9-0.4,0.9-0.9V2.1h0.7l2.4,2.4V13z"
	/>
</svg>
