<svg width="25" height="25" viewBox="0 0 25 25" fill="none" xmlns="http://www.w3.org/2000/svg">
<path d="M14.1362 21.7329L13.0522 22.8169C12.5933 23.2759 11.8511 23.2759 11.397 22.8169L1.90479 13.3296C1.4458 12.8706 1.4458 12.1284 1.90479 11.6743L11.397 2.18213C11.856 1.72314 12.5981 1.72314 13.0522 2.18213L14.1362 3.26611C14.6001 3.72998 14.5903 4.48682 14.1167 4.94092L8.23291 10.5464H22.2661C22.9155 10.5464 23.438 11.0688 23.438 11.7183V13.2808C23.438 13.9302 22.9155 14.4526 22.2661 14.4526H8.23291L14.1167 20.0581C14.5952 20.5122 14.605 21.269 14.1362 21.7329Z" fill="currentColor"/>
</svg>
