<svg width="22" height="22" viewBox="0 0 22 22" fill="none" xmlns="http://www.w3.org/2000/svg">
<g clip-path="url(#clip0_1493_103838)">
<path d="M0.53335 6.36007L10.5425 10.9006C10.8347 11.0333 11.1651 11.0333 11.4573 10.9006L21.4664 6.36007C22.1776 6.03737 22.1776 4.96272 21.4664 4.64003L11.4577 0.0990903C11.3142 0.0334731 11.1582 -0.000488281 11.0003 -0.000488281C10.8425 -0.000488281 10.6865 0.0334731 10.5429 0.0990903L0.53335 4.6396C-0.177783 4.96229 -0.177783 6.03737 0.53335 6.36007ZM21.4669 10.1533L18.9708 9.02198L12.0253 12.1703C11.7005 12.3177 11.3555 12.3925 11.0001 12.3925C10.6448 12.3925 10.3001 12.3177 9.97487 12.1703L3.02983 9.02198L0.53335 10.1533C-0.177783 10.4756 -0.177783 11.5498 0.53335 11.8721L10.5425 16.4092C10.8347 16.5415 11.1651 16.5415 11.4573 16.4092L21.4669 11.8721C22.178 11.5498 22.178 10.4756 21.4669 10.1533V10.1533ZM21.4669 15.6448L18.9803 14.5177L12.0253 17.6703C11.7005 17.8177 11.3555 17.8925 11.0001 17.8925C10.6448 17.8925 10.3001 17.8177 9.97487 17.6703L3.02038 14.5177L0.53335 15.6448C-0.177783 15.967 -0.177783 17.0412 0.53335 17.3635L10.5425 21.9006C10.8347 22.0329 11.1651 22.0329 11.4573 21.9006L21.4669 17.3635C22.178 17.0412 22.178 15.967 21.4669 15.6448V15.6448Z" fill="currentColor"/>
</g>
<defs>
<clipPath id="clip0_1493_103838">
<rect width="22" height="22" fill="currentColor"/>
</clipPath>
</defs>
</svg>
