<svg width="25" height="25" viewBox="0 0 25 25" fill="none" xmlns="http://www.w3.org/2000/svg">
<path d="M10.8643 3.26611L11.9482 2.18213C12.4072 1.72314 13.1494 1.72314 13.6035 2.18213L23.0957 11.6694C23.5547 12.1284 23.5547 12.8706 23.0957 13.3247L13.6035 22.8169C13.1445 23.2759 12.4023 23.2759 11.9482 22.8169L10.8643 21.7329C10.4004 21.269 10.4102 20.5122 10.8838 20.0581L16.7676 14.4526H2.73438C2.08496 14.4526 1.5625 13.9302 1.5625 13.2808V11.7183C1.5625 11.0688 2.08496 10.5464 2.73438 10.5464H16.7676L10.8838 4.94092C10.4053 4.48682 10.3955 3.72998 10.8643 3.26611Z" fill="currentColor"/>
</svg>
