<svg width="25" height="25" viewBox="0 0 25 25" fill="none" xmlns="http://www.w3.org/2000/svg">
<path d="M20.8504 3.11839H15.9198C15.7592 1.37218 14.2869 0 12.4995 0C10.7121 0 9.23985 1.37218 9.0792 3.11839H4.14857C2.69137 3.11839 1.50586 4.30391 1.50586 5.76111C1.50586 7.18285 2.63454 8.34536 4.04284 8.40115V21.8816C4.04284 23.6011 5.44174 25 7.16123 25H17.8377C19.5572 25 20.9561 23.6011 20.9561 21.8816V8.40109C22.3644 8.34535 23.4931 7.18285 23.4931 5.76106C23.4931 4.30385 22.3076 3.11839 20.8504 3.11839ZM9.06177 20.591C9.06177 21.0288 8.7068 21.3838 8.26898 21.3838C7.83112 21.3838 7.4762 21.0288 7.4762 20.591V10.17C7.4762 9.73218 7.83117 9.37726 8.26898 9.37726C8.70685 9.37726 9.06177 9.73223 9.06177 10.17V20.591ZM13.2923 20.591C13.2923 21.0288 12.9373 21.3838 12.4995 21.3838C12.0616 21.3838 11.7067 21.0288 11.7067 20.591V10.17C11.7067 9.73218 12.0617 9.37726 12.4995 9.37726C12.9374 9.37726 13.2923 9.73223 13.2923 10.17V20.591ZM17.5228 20.591C17.5228 21.0288 17.1678 21.3838 16.73 21.3838C16.2922 21.3838 15.9372 21.0288 15.9372 20.591V10.17C15.9372 9.73218 16.2922 9.37726 16.73 9.37726C17.1679 9.37726 17.5228 9.73223 17.5228 10.17V20.591Z" fill="currentColor"/>
</svg>
