<svg width="22" height="22" viewBox="0 0 22 22" fill="none" xmlns="http://www.w3.org/2000/svg">
<path d="M22 11.2752V10.7252C22 10.4213 21.7539 10.1752 21.45 10.1752H11.825V8.80019H14.3C14.9074 8.80019 15.4 8.3076 15.4 7.70019V3.3002C15.4 2.69279 14.9074 2.2002 14.3 2.2002H7.7C7.09259 2.2002 6.6 2.69279 6.6 3.3002V7.70019C6.6 8.3076 7.09259 8.80019 7.7 8.80019H10.175V10.1752H0.55C0.246125 10.1752 0 10.4213 0 10.7252V11.2752C0 11.5791 0.246125 11.8252 0.55 11.8252H4.125V13.2002H2.2C1.59259 13.2002 1.1 13.6928 1.1 14.3002V18.7002C1.1 19.3076 1.59259 19.8002 2.2 19.8002H7.7C8.30741 19.8002 8.8 19.3076 8.8 18.7002V14.3002C8.8 13.6928 8.30741 13.2002 7.7 13.2002H5.775V11.8252H16.225V13.2002H14.3C13.6926 13.2002 13.2 13.6928 13.2 14.3002V18.7002C13.2 19.3076 13.6926 19.8002 14.3 19.8002H19.8C20.4074 19.8002 20.9 19.3076 20.9 18.7002V14.3002C20.9 13.6928 20.4074 13.2002 19.8 13.2002H17.875V11.8252H21.45C21.7539 11.8252 22 11.5791 22 11.2752ZM8.8 6.60019V4.4002H13.2V6.60019H8.8ZM6.6 17.6002H3.3V15.4002H6.6V17.6002ZM18.7 17.6002H15.4V15.4002H18.7V17.6002Z" fill="currentColor"/>
</svg>
