<svg width="22" height="22" viewBox="0 0 22 22" fill="none" xmlns="http://www.w3.org/2000/svg">
<g clip-path="url(#clip0_1493_103840)">
<path d="M5.99884 1.52519C5.95094 1.47712 5.89402 1.43898 5.83134 1.41296C5.76867 1.38693 5.70147 1.37354 5.63361 1.37354C5.56575 1.37354 5.49855 1.38693 5.43588 1.41296C5.3732 1.43898 5.31628 1.47712 5.26838 1.52519L2.53213 4.24554L1.55673 3.29507C1.50883 3.247 1.45191 3.20886 1.38923 3.18284C1.32656 3.15681 1.25936 3.14342 1.1915 3.14342C1.12364 3.14342 1.05644 3.15681 0.993766 3.18284C0.931091 3.20886 0.874169 3.247 0.826266 3.29507L0.151657 3.97054C0.103587 4.01845 0.0654457 4.07537 0.0394211 4.13804C0.0133964 4.20072 0 4.26791 0 4.33578C0 4.40364 0.0133964 4.47084 0.0394211 4.53351C0.0654457 4.59619 0.103587 4.65311 0.151657 4.70101L2.19654 6.73773C2.29861 6.83476 2.43405 6.88886 2.57488 6.88886C2.71571 6.88886 2.85115 6.83476 2.95322 6.73773L3.6231 6.06656L6.72545 2.96465C6.82211 2.86791 6.87672 2.73696 6.87745 2.60021C6.87817 2.46345 6.82494 2.33193 6.72931 2.23418L5.99884 1.52519ZM5.99884 8.36539C5.95094 8.31732 5.89402 8.27918 5.83134 8.25315C5.76867 8.22713 5.70147 8.21373 5.63361 8.21373C5.56575 8.21373 5.49855 8.22713 5.43588 8.25315C5.3732 8.27918 5.31628 8.31732 5.26838 8.36539L2.53213 11.1034L1.55673 10.1537C1.50883 10.1057 1.45191 10.0675 1.38923 10.0415C1.32656 10.0155 1.25936 10.0021 1.1915 10.0021C1.12364 10.0021 1.05644 10.0155 0.993766 10.0415C0.931091 10.0675 0.874169 10.1057 0.826266 10.1537L0.151657 10.8279C0.103587 10.8758 0.0654457 10.9328 0.0394211 10.9954C0.0133964 11.0581 0 11.1253 0 11.1932C0 11.261 0.0133964 11.3282 0.0394211 11.3909C0.0654457 11.4536 0.103587 11.5105 0.151657 11.5584L2.19138 13.5994C2.29338 13.6964 2.42875 13.7505 2.56951 13.7505C2.71026 13.7505 2.84564 13.6964 2.94763 13.5994L3.62224 12.9252L6.72459 9.82203C6.82088 9.72597 6.87531 9.59575 6.87604 9.45974C6.87676 9.32373 6.82372 9.19294 6.72845 9.09586L5.99884 8.36539ZM2.74998 15.8123C1.61173 15.8123 0.662125 16.7361 0.662125 17.8748C0.662125 19.0135 1.61259 19.9373 2.74998 19.9373C3.29699 19.9373 3.82159 19.72 4.20838 19.3332C4.59518 18.9464 4.81248 18.4218 4.81248 17.8748C4.81248 17.3278 4.59518 16.8032 4.20838 16.4164C3.82159 16.0296 3.29699 15.8123 2.74998 15.8123ZM21.3125 16.4998H8.93748C8.75514 16.4998 8.58027 16.5722 8.45134 16.7012C8.32241 16.8301 8.24998 17.005 8.24998 17.1873V18.5623C8.24998 18.7446 8.32241 18.9195 8.45134 19.0484C8.58027 19.1774 8.75514 19.2498 8.93748 19.2498H21.3125C21.4948 19.2498 21.6697 19.1774 21.7986 19.0484C21.9275 18.9195 22 18.7446 22 18.5623V17.1873C22 17.005 21.9275 16.8301 21.7986 16.7012C21.6697 16.5722 21.4948 16.4998 21.3125 16.4998ZM21.3125 2.7498H8.93748C8.75514 2.7498 8.58027 2.82223 8.45134 2.95117C8.32241 3.0801 8.24998 3.25497 8.24998 3.4373V4.8123C8.24998 4.99464 8.32241 5.16951 8.45134 5.29844C8.58027 5.42737 8.75514 5.4998 8.93748 5.4998H21.3125C21.4948 5.4998 21.6697 5.42737 21.7986 5.29844C21.9275 5.16951 22 4.99464 22 4.8123V3.4373C22 3.25497 21.9275 3.0801 21.7986 2.95117C21.6697 2.82223 21.4948 2.7498 21.3125 2.7498V2.7498ZM21.3125 9.6248H8.93748C8.75514 9.6248 8.58027 9.69723 8.45134 9.82617C8.32241 9.9551 8.24998 10.13 8.24998 10.3123V11.6873C8.24998 11.8696 8.32241 12.0445 8.45134 12.1734C8.58027 12.3024 8.75514 12.3748 8.93748 12.3748H21.3125C21.4948 12.3748 21.6697 12.3024 21.7986 12.1734C21.9275 12.0445 22 11.8696 22 11.6873V10.3123C22 10.13 21.9275 9.9551 21.7986 9.82617C21.6697 9.69723 21.4948 9.6248 21.3125 9.6248Z" fill="currentColor"/>
</g>
<defs>
<clipPath id="clip0_1493_103840">
<rect width="22" height="22" fill="currentColor"/>
</clipPath>
</defs>
</svg>
