<svg t="1695631793137" class="icon" viewBox="0 0 1024 1024" version="1.1" xmlns="http://www.w3.org/2000/svg" p-id="9462" width="200" height="200"><path d="M0 0h1024v1024H0z" fill="#FFFFFF" fill-opacity="0" p-id="9463"></path><path d="M763.306667 94.72l165.973333 165.973333a32 32 0 0 1 0 45.226667l-165.973333 165.973333a32 32 0 0 1-45.226667 0l-145.92-145.92H394.666667v74.666667a32 32 0 0 1-32 32H288v191.786667a160.085333 160.085333 0 0 1-42.666667 314.24 160 160 0 0 1-42.666666-314.24V432.64H128a32 32 0 0 1-32-32v-234.666667A32 32 0 0 1 128 133.973333h234.666667a32 32 0 0 1 32 32v74.666667h177.450666l145.92-145.92a32 32 0 0 1 45.269334 0z m-95.061334 470.869333l230.954667 56.021334a25.6 25.6 0 0 1 18.816 30.933333l-0.384 1.450667-83.2 224.170666a8.533333 8.533333 0 0 1-15.530667 1.066667l-35.669333-67.114667a42.666667 42.666667 0 0 1-2.346667-34.901333l11.648-31.445333c-90.794667 43.349333-144.426667 116.864-144.426666 192.682666h-85.333334c0-108.544 70.826667-208.170667 185.088-265.728l-25.898666-6.314666a42.666667 42.666667 0 0 1-27.605334-21.418667l-35.669333-67.114667a8.533333 8.533333 0 0 1 9.557333-12.288zM245.333333 704a74.666667 74.666667 0 1 0 0 149.333333 74.666667 74.666667 0 0 0 0-149.333333zM740.693333 192.768L650.154667 283.306667 740.693333 373.76 831.146667 283.306667 740.693333 192.768zM309.333333 219.306667h-128v128h128v-128z" fill="#4E5B69" p-id="9464"></path></svg>