<svg t="1695631604670" class="icon" viewBox="0 0 1024 1024" version="1.1" xmlns="http://www.w3.org/2000/svg" p-id="8342" width="200" height="200"><path d="M0 112C0 50.176 50.176 0 112 0h224C397.824 0 448 50.176 448 112v224A112 112 0 0 1 336 448H256v256a64 64 0 0 0 64 64h256v-80C576 626.176 626.176 576 688 576h224c61.824 0 112 50.176 112 112v224A112 112 0 0 1 912 1024h-224A112 112 0 0 1 576 912v-48H320A160 160 0 0 1 160 704V448h-48A112 112 0 0 1 0 336v-224z m112-16a16 16 0 0 0-16 16v224c0 8.832 7.168 16 16 16h224a16 16 0 0 0 16-16v-224a16 16 0 0 0-16-16h-224z m576 576a16 16 0 0 0-16 16v224c0 8.832 7.168 16 16 16h224a16 16 0 0 0 16-16v-224a16 16 0 0 0-16-16h-224z" p-id="8343"></path></svg>