<svg width="25" height="25" viewBox="0 0 25 25" fill="none" xmlns="http://www.w3.org/2000/svg">
<path d="M18.5104 17.1453C17.7355 17.1453 17.0137 17.3705 16.4051 17.7579L10.2627 13.4695C10.3613 13.1253 10.4152 12.7622 10.4152 12.3863C10.4152 12.0104 10.3613 11.6473 10.2627 11.3032L16.2393 7.13051C16.8806 7.58601 17.6638 7.85475 18.5103 7.85475C20.6793 7.85475 22.4377 6.09639 22.4377 3.9274C22.4377 1.75841 20.6794 0 18.5104 0C16.3414 0 14.583 1.75836 14.583 3.92735C14.583 4.2138 14.6145 4.49279 14.6728 4.7618L8.54443 9.04041C7.94622 8.67197 7.24205 8.459 6.48789 8.459C4.3189 8.459 2.56055 10.2174 2.56055 12.3863C2.56055 14.5553 4.31885 16.3137 6.48789 16.3137C7.242 16.3137 7.94622 16.1007 8.54443 15.7323L14.7201 20.0439C14.6313 20.3719 14.583 20.7166 14.583 21.0727C14.583 23.2416 16.3414 25 18.5104 25C20.6794 25 22.4377 23.2416 22.4377 21.0727C22.4377 18.9037 20.6794 17.1453 18.5104 17.1453Z" fill="currentColor"/>
</svg>
