<svg width="16" height="16" viewBox="0 0 16 16" fill="none" xmlns="http://www.w3.org/2000/svg">
<path d="M15.9082 10.3359L13.8964 13.7847C13.7398 14.0531 13.5157 14.2757 13.2462 14.4305C12.9768 14.5852 12.6715 14.6667 12.3608 14.6667H1.25069C0.736167 14.6667 0.415583 14.1085 0.674833 13.6641L2.68661 10.2153C2.84317 9.94694 3.06734 9.72427 3.33678 9.56952C3.60622 9.41477 3.91151 9.33333 4.22222 9.33333H15.3323C15.8469 9.33333 16.1674 9.89147 15.9082 10.3359ZM4.22222 8.44444H13.3333V7.11111C13.3333 6.37472 12.7364 5.77778 12 5.77778H7.55556L5.77778 4H1.33333C0.596944 4 0 4.59694 0 5.33333V13.0568L1.91881 9.76744C2.39483 8.95139 3.27747 8.44444 4.22222 8.44444Z" fill="currentColor"/>
<g clip-path="url(#clip0_1578_41876)">
<path d="M14.9316 5.32324L13.958 4.34961C13.9141 4.30566 13.8545 4.28125 13.792 4.28125H13.6328C13.9023 3.93652 14.0625 3.50293 14.0625 3.03125C14.0625 1.90918 13.1533 1 12.0312 1C10.9092 1 10 1.90918 10 3.03125C10 4.15332 10.9092 5.0625 12.0312 5.0625C12.5029 5.0625 12.9365 4.90234 13.2812 4.63281V4.79199C13.2812 4.85449 13.3057 4.91406 13.3496 4.95801L14.3232 5.93164C14.415 6.02344 14.5635 6.02344 14.6543 5.93164L14.9307 5.65527C15.0225 5.56348 15.0225 5.41504 14.9316 5.32324ZM12.0312 4.28125C11.3408 4.28125 10.7812 3.72266 10.7812 3.03125C10.7812 2.34082 11.3398 1.78125 12.0312 1.78125C12.7217 1.78125 13.2812 2.33984 13.2812 3.03125C13.2812 3.72168 12.7227 4.28125 12.0312 4.28125Z" fill="currentColor"/>
</g>
<defs>
<clipPath id="clip0_1578_41876">
<rect width="5" height="5" fill="white" transform="translate(10 1)"/>
</clipPath>
</defs>
</svg>
