<?xml version="1.0" encoding="UTF-8"?><svg id="svg5" xmlns="http://www.w3.org/2000/svg" width="13.23" height="13.23" viewBox="0 0 13.23 13.23"><g id="layer1"><g id="g1745"><path id="path66778" d="m10.9,11.13c0,.29-.24.53-.53.53H2.95c-.29,0-.53-.24-.53-.53V2.12c0-.29.24-.53.53-.53h5.3l2.65,2.65v6.89Z" style="fill:#ecf5ff;"/><path id="path66800" d="m10.77,4.24h-1.99c-.29,0-.53-.24-.53-.53v-1.99" style="fill:#bdddff;"/><path id="path10836" d="m2.95,1.33c-.44,0-.79.36-.79.79v9.01c0,.44.36.79.79.79h7.42c.44,0,.79-.36.79-.79v-6.89c0-.07-.03-.14-.08-.19l-2.65-2.65s-.12-.08-.19-.08H2.95Zm0,.53h5.03v1.85c0,.44.36.79.79.79h1.85v6.62c0,.15-.12.26-.26.26H2.95c-.15,0-.26-.12-.26-.26V2.12c0-.15.12-.26.26-.26Zm5.56.37l1.75,1.75h-1.48c-.15,0-.26-.12-.26-.26v-1.48Z" style="fill:#3d9ce2;"/></g></g><rect x="3.3" y="6.74" width=".37" height="1.06" rx=".15" ry=".15" style="fill:#3d9ce2;"/><rect x="4.02" y="5.35" width=".37" height="3.85" rx=".15" ry=".15" style="fill:#3d9ce2;"/><rect x="4.74" y="6.13" width=".37" height="2.29" rx=".15" ry=".15" style="fill:#3d9ce2;"/><rect x="5.46" y="5.78" width=".37" height="2.98" rx=".15" ry=".15" style="fill:#3d9ce2;"/><rect x="6.17" y="5.4" width=".37" height="3.74" rx=".15" ry=".15" style="fill:#3d9ce2;"/><rect x="6.89" y="6.77" width=".37" height="1" rx=".15" ry=".15" style="fill:#3d9ce2;"/><rect x="7.61" y="6.33" width=".37" height="1.88" rx=".15" ry=".15" style="fill:#3d9ce2;"/><rect x="8.33" y="5.44" width=".37" height="3.66" rx=".15" ry=".15" style="fill:#3d9ce2;"/><rect x="9.05" y="6.41" width=".37" height="1.72" rx=".15" ry=".15" style="fill:#3d9ce2;"/><rect x="9.77" y="6.41" width=".37" height="1.72" rx=".15" ry=".15" style="fill:#3d9ce2;"/></svg>