<?xml version="1.0" encoding="UTF-8"?><svg id="svg5" xmlns="http://www.w3.org/2000/svg" width="13.23" height="13.23" viewBox="0 0 13.23 13.23"><g id="layer1"><g id="g1745"><path id="path66778" d="m10.9,11.13c0,.29-.24.53-.53.53H2.95c-.29,0-.53-.24-.53-.53V2.12c0-.29.24-.53.53-.53h5.3l2.65,2.65v6.89Z" style="fill:#ecf5ff;"/><path id="path66800" d="m10.77,4.24h-1.99c-.29,0-.53-.24-.53-.53v-1.99" style="fill:#bdddff;"/><path id="path10836" d="m2.95,1.33c-.44,0-.79.36-.79.79v9.01c0,.44.36.79.79.79h7.42c.44,0,.79-.36.79-.79v-6.89c0-.07-.03-.14-.08-.19l-2.65-2.65s-.12-.08-.19-.08H2.95Zm0,.53h5.03v1.85c0,.44.36.79.79.79h1.85v6.62c0,.15-.12.26-.26.26H2.95c-.15,0-.26-.12-.26-.26V2.12c0-.15.12-.26.26-.26Zm5.56.37l1.75,1.75h-1.48c-.15,0-.26-.12-.26-.26v-1.48Z" style="fill:#3d9ce2;"/></g></g><text transform="translate(3.24 11.07)" style="fill:#3d9ce2; font-family:MyriadPro-Regular, &apos;Myriad Pro&apos;; font-size:2.62px;"><tspan x="0" y="0">E</tspan><tspan x="1.29" y="0" style="letter-spacing:-.03em;">X</tspan><tspan x="2.71" y="0" style="letter-spacing:0em;">CEL</tspan></text><path d="m9.79,6.26H3.44c-.08,0-.14-.06-.14-.14v-1c0-.08.06-.14.14-.14h6.35c.08,0,.14.06.14.14v1c0,.08-.06.14-.14.14Zm-6.21-.29h6.07v-.72H3.58v.72Z" style="fill:#3d9ce2;"/><path d="m9.79,7.26H3.44c-.08,0-.14-.06-.14-.14v-1c0-.08.06-.14.14-.14h6.35c.08,0,.14.06.14.14v1c0,.08-.06.14-.14.14Zm-6.21-.29h6.07v-.71H3.58v.71Z" style="fill:#3d9ce2;"/><path d="m9.79,8.26H3.44c-.08,0-.14-.06-.14-.14v-1c0-.08.06-.14.14-.14h6.35c.08,0,.14.06.14.14v1c0,.08-.06.14-.14.14Zm-6.21-.29h6.07v-.72H3.58v.72Z" style="fill:#3d9ce2;"/><path d="m7.84,8.26h-2.44c-.08,0-.14-.06-.14-.14v-3.01c0-.08.06-.14.14-.14h2.44c.08,0,.14.06.14.14v3.01c0,.08-.06.14-.14.14Zm-2.3-.29h2.16v-2.72h-2.16v2.72Z" style="fill:#3d9ce2;"/></svg>