<?xml version="1.0" encoding="UTF-8"?><svg id="svg5" xmlns="http://www.w3.org/2000/svg" width="13.23" height="13.23" viewBox="0 0 13.23 13.23"><g id="layer1"><g id="g1745"><path id="path66778" d="m10.9,11.13c0,.29-.24.53-.53.53H2.95c-.29,0-.53-.24-.53-.53V2.12c0-.29.24-.53.53-.53h5.3l2.65,2.65v6.89Z" style="fill:#ecf5ff;"/><path id="path66800" d="m10.77,4.24h-1.99c-.29,0-.53-.24-.53-.53v-1.99" style="fill:#bdddff;"/><path id="path10836" d="m2.95,1.33c-.44,0-.79.36-.79.79v9.01c0,.44.36.79.79.79h7.42c.44,0,.79-.36.79-.79v-6.89c0-.07-.03-.14-.08-.19l-2.65-2.65s-.12-.08-.19-.08H2.95Zm0,.53h5.03v1.85c0,.44.36.79.79.79h1.85v6.62c0,.15-.12.26-.26.26H2.95c-.15,0-.26-.12-.26-.26V2.12c0-.15.12-.26.26-.26Zm5.56.37l1.75,1.75h-1.48c-.15,0-.26-.12-.26-.26v-1.48Z" style="fill:#3d9ce2;"/></g></g><path d="m7.75,6.36c-.13,0-.29.02-.48.05-.26-.28-.53-.69-.72-1.09.19-.81.09-.92.05-.97-.04-.06-.11-.15-.18-.15-.03,0-.11.01-.14.02-.08.03-.13.09-.16.18-.1.24.04.64.18.95-.12.49-.32,1.07-.54,1.54-.54.25-.82.49-.85.73-.01.08.01.21.16.32.04.03.09.05.14.05.13,0,.25-.1.4-.3.11-.15.22-.35.34-.61.38-.17.85-.32,1.25-.4.22.22.42.33.6.33.13,0,.24-.06.31-.17.08-.11.1-.22.06-.31-.06-.11-.19-.16-.41-.16h0Zm-2.54,1.39c-.07-.05-.06-.09-.06-.1,0-.08.13-.22.44-.39-.23.43-.35.48-.37.49h0Zm1.16-3.29s.15.16.02.46c-.2-.21-.03-.46-.02-.46h0Zm-.29,2.3c.14-.34.28-.73.38-1.08.16.29.35.57.54.79-.3.07-.62.17-.92.29h0Zm1.83-.07c-.04.06-.14.06-.17.06-.08,0-.1-.05-.22-.14.09-.01.18-.01.26-.01.13,0,.15.02.17.03,0,.01-.01.03-.03.06h0Z" style="fill:#3d9ce2;"/><text transform="translate(4.41 11.07)" style="fill:#3d9ce2; font-family:MyriadPro-Regular, &apos;Myriad Pro&apos;; font-size:2.62px;"><tspan x="0" y="0">PDF</tspan></text></svg>