<?xml version="1.0" encoding="UTF-8"?><svg id="svg5" xmlns="http://www.w3.org/2000/svg" width="13.23" height="13.23" viewBox="0 0 13.23 13.23"><g id="layer1"><g id="g1745"><path id="path66778" d="m10.9,11.13c0,.29-.24.53-.53.53H2.95c-.29,0-.53-.24-.53-.53V2.12c0-.29.24-.53.53-.53h5.3l2.65,2.65v6.89Z" style="fill:#ecf5ff;"/><path id="path66800" d="m10.77,4.24h-1.99c-.29,0-.53-.24-.53-.53v-1.99" style="fill:#bdddff;"/><path id="path10836" d="m2.95,1.33c-.44,0-.79.36-.79.79v9.01c0,.44.36.79.79.79h7.42c.44,0,.79-.36.79-.79v-6.89c0-.07-.03-.14-.08-.19l-2.65-2.65s-.12-.08-.19-.08H2.95Zm0,.53h5.03v1.85c0,.44.36.79.79.79h1.85v6.62c0,.15-.12.26-.26.26H2.95c-.15,0-.26-.12-.26-.26V2.12c0-.15.12-.26.26-.26Zm5.56.37l1.75,1.75h-1.48c-.15,0-.26-.12-.26-.26v-1.48Z" style="fill:#3d9ce2;"/></g></g><text transform="translate(4.57 11.07)" style="fill:#3d9ce2; font-family:MyriadPro-Regular, &apos;Myriad Pro&apos;; font-size:2.62px;"><tspan x="0" y="0">PPT</tspan></text><path d="m7.82,8.76c-.05,0-.11-.03-.14-.08l-.54-.96c-.04-.07-.02-.17.06-.21.07-.04.17-.02.21.06l.54.96c.04.07.02.17-.06.21-.02.01-.05.02-.08.02Zm-2.41,0s-.05,0-.08-.02c-.08-.04-.1-.14-.06-.21l.54-.96c.04-.08.14-.1.21-.06.08.04.1.14.06.21l-.54.96c-.03.05-.08.08-.14.08Z" style="fill:#3d9ce2;"/><path d="m6.62,5.05c-.09,0-.16-.07-.16-.16v-.33c0-.09.07-.16.16-.16s.16.07.16.16v.33c0,.09-.07.16-.16.16Z" style="fill:#3d9ce2;"/><path d="m9.13,7.8h-5.03c-.09,0-.16-.07-.16-.16v-2.75c0-.09.07-.16.16-.16h5.03c.09,0,.16.07.16.16v2.75c0,.09-.07.16-.16.16Zm-4.87-.31h4.72v-2.43h-4.72v2.43Z" style="fill:#3d9ce2;"/><path d="m8.47,7.1c-.09,0-.16-.07-.16-.16v-1.33c0-.09.07-.16.16-.16s.16.07.16.16v1.33c0,.09-.07.16-.16.16Z" style="fill:#3d9ce2;"/><path d="m7.97,7.1c-.09,0-.16-.07-.16-.16v-.78c0-.09.07-.16.15-.16.08,0,.16.07.16.16v.78c0,.09-.07.16-.15.16h0Z" style="fill:#3d9ce2;"/><path d="m7.47,7.1c-.09,0-.16-.07-.16-.16v-.39c0-.09.07-.16.16-.16s.16.07.16.16v.39c0,.09-.07.16-.16.16Z" style="fill:#3d9ce2;"/><path d="m6.28,5.77h-1.53c-.09,0-.16-.07-.16-.16s.07-.16.16-.16h1.53c.09,0,.16.07.16.16s-.07.16-.16.16Z" style="fill:#3d9ce2;"/><path d="m5.68,6.44h-.93c-.09,0-.16-.07-.16-.16s.07-.16.16-.16h.93c.09,0,.16.07.16.16s-.07.16-.16.16Z" style="fill:#3d9ce2;"/><path d="m4.75,7.1c-.09,0-.16-.07-.16-.16,0-.09.07-.16.16-.16h1.89s0,0,0,0c.09,0,.16.07.16.16,0,.09-.07.16-.16.16h-1.89s0,0,0,0Z" style="fill:#3d9ce2;"/></svg>