<?xml version="1.0" encoding="UTF-8"?><svg id="svg5" xmlns="http://www.w3.org/2000/svg" width="13.23" height="13.23" viewBox="0 0 13.23 13.23"><g id="layer1"><g id="g1745"><path id="path66778" d="m10.9,11.13c0,.29-.24.53-.53.53H2.95c-.29,0-.53-.24-.53-.53V2.12c0-.29.24-.53.53-.53h5.3l2.65,2.65v6.89Z" style="fill:#ecf5ff;"/><path id="path66800" d="m10.77,4.24h-1.99c-.29,0-.53-.24-.53-.53v-1.99" style="fill:#bdddff;"/><path id="path10836" d="m2.95,1.33c-.44,0-.79.36-.79.79v9.01c0,.44.36.79.79.79h7.42c.44,0,.79-.36.79-.79v-6.89c0-.07-.03-.14-.08-.19l-2.65-2.65s-.12-.08-.19-.08H2.95Zm0,.53h5.03v1.85c0,.44.36.79.79.79h1.85v6.62c0,.15-.12.26-.26.26H2.95c-.15,0-.26-.12-.26-.26V2.12c0-.15.12-.26.26-.26Zm5.56.37l1.75,1.75h-1.48c-.15,0-.26-.12-.26-.26v-1.48Z" style="fill:#3d9ce2;"/></g></g><path d="m5.1,2.52h-1.09c-.08,0-.14-.06-.14-.14s.06-.14.14-.14h1.09c.08,0,.14.06.14.14s-.06.14-.14.14Z" style="fill:#3d9ce2;"/><path d="m5.1,3.13h-1.09c-.08,0-.14-.06-.14-.14s.06-.14.14-.14h1.09c.08,0,.14.06.14.14s-.06.14-.14.14Z" style="fill:#3d9ce2;"/><path d="m4.55,5.7c-.08,0-.14-.06-.14-.14V1.61c0-.08.06-.14.14-.14s.14.06.14.14v3.94c0,.08-.06.14-.14.14Z" style="fill:#3d9ce2;"/><path d="m5.1,3.74h-1.09c-.08,0-.14-.06-.14-.14s.06-.14.14-.14h1.09c.08,0,.14.06.14.14s-.06.14-.14.14Z" style="fill:#3d9ce2;"/><path d="m5.1,4.35h-1.09c-.08,0-.14-.06-.14-.14s.06-.14.14-.14h1.09c.08,0,.14.06.14.14s-.06.14-.14.14Z" style="fill:#3d9ce2;"/><path d="m5.1,4.96h-1.09c-.08,0-.14-.06-.14-.14s.06-.14.14-.14h1.09c.08,0,.14.06.14.14s-.06.14-.14.14Z" style="fill:#3d9ce2;"/><path d="m4.55,7.9c-.26,0-.52-.12-.7-.31-.16-.17-.23-.39-.2-.61l.17-1.45c0-.07.07-.13.14-.13h1.17c.07,0,.13.05.14.13l.17,1.45c.03.22-.05.44-.2.61-.17.19-.43.31-.69.31Zm-.46-2.21l-.15,1.32c-.02.14.03.27.13.38.12.13.3.22.48.22s.36-.08.48-.21c.1-.11.15-.25.13-.39l-.15-1.32h-.91Z" style="fill:#3d9ce2;"/><path d="m4.55,7.44c-.15,0-.29-.07-.39-.18-.08-.1-.12-.21-.1-.33l.04-.26c.01-.07.07-.12.14-.12h.6c.07,0,.13.05.14.12l.04.26c.02.12-.01.24-.1.33-.1.11-.24.18-.39.18Zm-.18-.6l-.02.14s.01.08.03.1c.04.05.11.08.17.08s.13-.03.17-.08c.02-.02.04-.06.03-.1l-.02-.14h-.36Z" style="fill:#3d9ce2;"/><text transform="translate(4.88 11.07)" style="fill:#3d9ce2; font-family:MyriadPro-Regular, &apos;Myriad Pro&apos;; font-size:2.62px;"><tspan x="0" y="0">ZIP</tspan></text><text transform="translate(7.55 16.68)" style="font-family:MyriadPro-Regular, &apos;Myriad Pro&apos;; font-size:12px;"><tspan x="0" y="0"> </tspan></text></svg>