<svg xmlns="http://www.w3.org/2000/svg" xmlns:xlink="http://www.w3.org/1999/xlink" fill="none" version="1.1" width="54" height="54" viewBox="0 0 54 54"><defs><clipPath id="master_svg0_1724_038202"><rect x="12" y="12" width="30" height="30" rx="0"/></clipPath></defs><g><g><ellipse cx="27" cy="27" rx="27" ry="27" fill="#FFFFFF" fill-opacity="1"/><ellipse cx="27" cy="27" rx="25" ry="25" fill-opacity="0" stroke-opacity="1" stroke="#0099FF" fill="none" stroke-width="4"/></g><g clip-path="url(#master_svg0_1724_038202)"><g><g><g><g><path d="M38.85982828125,34.30542546875C38.34050828125,33.91911746875,37.60644828125,34.02698666875,37.22013928125,34.54618746875C37.00767728125,34.83177246875,36.78033328125,35.11191046875,36.54437828125,35.37880046875C36.11576428125,35.86367046875,36.16129228125,36.60429046875,36.64615528125,37.03296046875C36.86916328125,37.23007046875,37.14601928125,37.32687046875,37.42187828125,37.32687046875C37.74601828125,37.32687046875,38.06875828125,37.19310046875,38.30031828125,36.93113046875C38.57974828125,36.61507046875,38.84898828125,36.28331046875,39.10058828125,35.94505046875C39.48689828125,35.42585046875,39.379148281249996,34.69167546875,38.85982828125,34.30542546875Z" fill="#000000" fill-opacity="1"/></g><g><path d="M40.8196559375,28.80976764375C40.1876559375,28.67213084375,39.5629939375,29.07320484375,39.4253569375,29.70554884375C39.3495949375,30.05342484375,39.2580709375,30.40193484375,39.1531304375,30.74154484375C38.9620569375,31.35994484375,39.3084629375,32.01607484375,39.9268029375,32.20715484375C40.0420579375,32.24271484375,40.1585359375,32.25965484375,40.2731559375,32.25965484375C40.7735459375,32.25965484375,41.2369059375,31.93656484375,41.3924059375,31.43336484375C41.5169759375,31.03035484375,41.6256159375,30.61673484375,41.7154959375,30.20406484375C41.8531259375,29.57172284375,41.4520559375,28.94746284375,40.8196559375,28.80976764375Z" fill="#000000" fill-opacity="1"/></g><g><path d="M33.21904734375,38.05853396875C32.90791734375,38.23220496875,32.58576734375,38.39451096875,32.26162334375,38.54093696875C31.67176114375,38.80730296875,31.40955334375,39.50140796875,31.67592034375,40.09126796875C31.87162334375,40.524627968749996,32.29812634375,40.781097968750004,32.74461734375,40.781097968750004C32.90586734375,40.781097968750004,33.06974734375,40.74763796875,33.22625734375,40.67696796875C33.61080734375,40.50329796875,33.99271734375,40.31081796875,34.36162734375,40.10485796875C34.92675734375,39.78939796875,35.12908734375,39.07548796875,34.81349734375,38.51040996875C34.49808734375,37.94538966875,33.78417734375,37.74306496875,33.21904734375,38.05853396875Z" fill="#000000" fill-opacity="1"/></g><g><path d="M25.828164140625,17.624995L25.828164140625,26.514625000000002L21.530957140625,30.811725C21.073340140625,31.269425,21.073340140625,32.011425,21.530957140625,32.469025C21.759824140625,32.697925,22.059648140625,32.812225,22.359644140625,32.812225C22.659534140625,32.812225,22.959474140625,32.697825,23.188344140625,32.469025L27.828734140625002,27.828625000000002C28.048454140625,27.608925,28.171914140625,27.310825,28.171914140625,27.000025L28.171914140625,17.624995C28.171914140625,16.977774,27.647264140625,16.453125,27.000034140625,16.453125C26.352814140625,16.453125,25.828164140625,16.977774,25.828164140625,17.624995Z" fill="#000000" fill-opacity="1"/></g><g><path d="M40.8281,14.51953C40.1809,14.51953,39.6562,15.04418,39.6562,15.69141L39.6562,18.94547C36.9286,14.66766,32.165099999999995,12,27,12C22.9934,12,19.22654,13.56029,16.39336,16.39336C13.56029,19.22654,12,22.9934,12,27C12,31.0066,13.56029,34.7735,16.39336,37.6066C19.22654,40.4397,22.9934,42,27,42C27.009900000000002,42,27.0195,41.9988,27.0293,41.9985C27.039099999999998,41.9988,27.0487,42,27.0586,42C27.4809,42,27.907400000000003,41.9822,28.3264,41.9471C28.9713,41.893100000000004,29.4504,41.326499999999996,29.3964,40.6816C29.3423,40.0366,28.7765,39.5573,28.1308,39.611599999999996C27.776699999999998,39.6412,27.416,39.6562,27.0586,39.6562C27.0487,39.6562,27.039099999999998,39.6575,27.0293,39.6577C27.0195,39.6575,27.009900000000002,39.6562,27,39.6562C20.02131,39.6562,14.34375,33.9787,14.34375,27C14.34375,20.02131,20.02131,14.34375,27,14.34375C31.4975,14.34375,35.6342,16.741,37.8947,20.55469L34.672399999999996,20.55469C34.0252,20.55469,33.5006,21.079340000000002,33.5006,21.72656C33.5006,22.3738,34.0252,22.898400000000002,34.672399999999996,22.898400000000002L38.25,22.898400000000002C38.9637,22.898400000000002,39.631299999999996,22.6979,40.199799999999996,22.3504C40.2364,22.3296,40.2715,22.3071,40.305099999999996,22.282899999999998C41.3249,21.61195,42,20.45783,42,19.14844L42,15.69141C42,15.04418,41.4754,14.51953,40.8281,14.51953Z" fill="#000000" fill-opacity="1"/></g></g></g></g></g></g></svg>