<svg xmlns="http://www.w3.org/2000/svg" xmlns:xlink="http://www.w3.org/1999/xlink" fill="none" version="1.1" width="116" height="116" viewBox="0 0 116 116"><defs><clipPath id="master_svg0_1220_001015"><rect x="0" y="0" width="116" height="116" rx="0"/></clipPath></defs><g clip-path="url(#master_svg0_1220_001015)"><g><g><path d="M31.497523498535156,45.439361572265625C29.695903498535156,45.439361572265625,28.235023498535156,46.900231572265625,28.235023498535156,48.70186157226563C28.235023498535156,50.50348157226563,29.695903498535156,51.964361572265624,31.497523498535156,51.964361572265624L66.47882349853515,51.964361572265624C68.28042349853516,51.964361572265624,69.74132349853517,50.50348157226563,69.74132349853517,48.70186157226563C69.74132349853517,46.900231572265625,68.28042349853516,45.439361572265625,66.47882349853515,45.439361572265625L31.497523498535156,45.439361572265625Z" fill="#FFFFFF" fill-opacity="1"/></g><g><path d="M47.226423498535155,63.959381103515625L31.497523498535156,63.959381103515625C29.695903498535156,63.959381103515625,28.235023498535156,65.42025110351562,28.235023498535156,67.22188110351563C28.235023498535156,69.02350110351563,29.695903498535156,70.48438110351563,31.497523498535156,70.48438110351563L47.226423498535155,70.48438110351563C49.028023498535156,70.48438110351563,50.48892349853516,69.02350110351563,50.48892349853516,67.22188110351563C50.48892349853516,65.42025110351562,49.028023498535156,63.959381103515625,47.226423498535155,63.959381103515625Z" fill="#FFFFFF" fill-opacity="1"/></g><g><path d="M46.74432662353516,105.48745727539062L21.913126623535156,105.48745727539062C16.57352662353516,105.48745727539062,12.234356623535156,101.13015727539063,12.234356623535156,95.77245727539062L12.234356623535156,29.688657275390625C12.234356623535156,24.330957275390624,16.57352662353516,19.973657275390625,21.913126623535156,19.973657275390625L28.652026623535157,19.973657275390625L28.652026623535157,20.792957275390624C28.652026623535157,25.552557275390626,32.52342662353516,29.420457275390625,37.28312662353515,29.420457275390625L68.45812662353515,29.420457275390625C73.21772662353516,29.420457275390625,77.08922662353515,25.552557275390626,77.08922662353515,20.792957275390624L77.08922662353515,19.973657275390625L83.79552662353515,19.973657275390625C89.22212662353516,19.973657275390625,93.47062662353515,24.240357275390625,93.47062662353515,29.688657275390625L93.47062662353515,48.284957275390624C93.47062662353515,50.086557275390625,94.93152662353516,51.54745727539063,96.73312662353516,51.54745727539063C98.53472662353515,51.54745727539063,99.99562662353516,50.086557275390625,99.99562662353516,48.284957275390624L99.99562662353516,29.688657275390625C99.99562662353516,20.734957275390624,92.72752662353516,13.448707275390625,83.79182662353516,13.448707275390625L77.08562662353516,13.448707275390625L77.08562662353516,12.614957275390625C77.08562662353516,7.8553372753906245,73.21412662353515,3.987457275390625,68.45452662353516,3.987457275390625L37.279526623535155,3.987457275390625C32.51982662353515,3.987457275390625,28.648326623535155,7.855327275390625,28.648326623535155,12.614957275390625L28.648326623535155,13.448707275390625L21.913126623535156,13.448707275390625C12.977476623535157,13.448707275390625,5.705726623535156,20.734957275390624,5.705726623535156,29.688657275390625L5.705726623535156,95.77245727539062C5.705726623535156,104.72645727539063,12.977476623535157,112.01245727539063,21.913126623535156,112.01245727539063L46.74432662353516,112.01245727539063C48.546026623535155,112.01245727539063,50.006826623535154,110.55145727539062,50.006826623535154,108.74945727539063C50.006826623535154,106.94845727539062,48.546026623535155,105.48745727539062,46.74432662353516,105.48745727539062ZM35.18062662353516,12.614957275390625C35.18062662353516,11.454957275390626,36.12312662353516,10.512457275390625,37.28312662353515,10.512457275390625L68.45812662353515,10.512457275390625C69.61812662353515,10.512457275390625,70.56062662353516,11.454957275390626,70.56062662353516,12.614957275390625L70.56062662353516,20.789357275390625C70.56062662353516,21.949357275390625,69.61812662353515,22.891857275390624,68.45812662353515,22.891857275390624L37.28312662353515,22.891857275390624C36.12312662353516,22.891857275390624,35.18062662353516,21.949357275390625,35.18062662353516,20.789357275390625L35.18062662353516,12.614957275390625Z" fill="#FFFFFF" fill-opacity="1"/></g><g><path d="M106.82870006103516,62.922580244140626C102.36270006103516,58.452950244140624,94.56530006103516,58.449330244140626,90.09570006103516,62.922580244140626L61.17178006103516,91.84650024414063C60.240160061035155,92.77810024414063,59.63116006103515,93.95980024414062,59.41003006103516,95.26120024414062L57.82228506103515,104.64630024414063C57.48515806103516,106.65820024414063,58.14853606103516,108.72440024414063,59.59129006103515,110.16360024414062C60.78391006103516,111.35620024414062,62.397040061035156,112.00870024414063,64.05367006103515,112.00870024414063C64.40529006103516,112.00870024414063,64.75330006103516,111.97970024414062,65.10129006103516,111.92170024414062L74.48280006103516,110.33760024414062C75.78420006103516,110.11640024414064,76.96590006103516,109.50740024414063,77.89750006103516,108.57580024414062L106.82140006103515,79.65190024414062C111.43600006103516,75.04100024414062,111.43600006103516,67.53720024414062,106.82870006103516,62.922580244140626ZM73.39890006103516,103.90680024414063L64.26028006103516,105.73020024414063L65.79004006103516,96.46110024414062L86.52140006103515,75.72970024414062L94.02880006103516,83.23710024414062L73.39890006103516,103.90680024414063ZM102.21040006103516,75.03730024414062L98.63620006103515,78.61880024414063L91.13240006103516,71.11510024414062L94.71030006103516,67.53720024414062C95.71080006103516,66.53671024414062,97.04480006103515,65.98208024414062,98.45850006103515,65.98208024414062C99.87950006103516,65.98208024414062,101.20990006103516,66.53308024414062,102.21040006103516,67.53720024414062C104.28030006103515,69.60710024414063,104.28030006103515,72.96750024414062,102.21040006103516,75.03730024414062Z" fill="#FFFFFF" fill-opacity="1"/></g></g></g></svg>